<svg xmlns="http://www.w3.org/2000/svg">
<defs>
<font id="CaviarDreams-Bold" horiz-adv-x="1154" >
  <font-face 
    font-family="Caviar Dreams"
    font-weight="500"
    font-stretch="normal"
    units-per-em="2048"
    panose-1="2 11 6 2 2 2 4 2 5 4"
    ascent="1638"
    descent="-410"
    x-height="935"
    cap-height="1516"
    bbox="-74 -425 2545 1893"
    underline-thickness="150"
    underline-position="-142"
    unicode-range="U+0020-U+FB02"
  />
<missing-glyph horiz-adv-x="2620" 
d="M1041 1359l546 -0.00195312l308 -392l-64 -302c84 28 126 72.667 126 134c-13.333 16 -20 32 -20 48c0 52 46.667 78 140 78c69.333 0 139.333 -46.667 210 -140c45.333 -37.333 131.333 -74.666 258 -111.999c0 -18.667 -6.66699 -28 -20 -28
c0 -9.33301 2 -16.666 6 -21.999c-4 -22.667 -22.667 -37 -56 -43c-12 -2 -26 -3 -42 -3c-29.333 0 -65.333 3.33301 -108 10c16 -13.333 61.333 -20 136 -20c14 2.66699 26.333 4 37 4s19.667 -1.33301 27 -4c0 -36 -68 -64 -204 -84l-126 8
c76 -37.333 139.333 -56 190 -56h42v-8c-34.667 -46.667 -98 -70 -190 -70c-46.667 0 -100 12 -160 36c0 -29.333 53.333 -62 160 -98c0 -18.667 -25.333 -30.667 -76 -36c-29.333 0 -92.666 21.333 -190 64c0 -22.667 23.333 -53.334 70 -92.001c-3.33301 -2 -9 -3 -17 -3
c-24 0 -69.667 10.333 -137 31l22 -62l-28 -8c-25.333 0 -70 35.333 -134 106l-62 -294h-742l-84 294c-49.333 -62.667 -89.333 -98 -120 -106l-28 8l14 62c-57.333 -28 -101.333 -42 -132 -42l-14 22c42 25.333 63 50.666 63 75.999
c0 2.66699 -0.333008 5.33398 -1 8.00098c-85.333 -42.667 -148 -64 -188 -64c-46.667 5.33301 -70 17.333 -70 36c102.667 34.667 154 66.334 154 95.001v3c-48 -24 -99.333 -36 -154 -36h-28c-73.333 0 -127.333 23.333 -162 70v8h42c50.667 0 95 5.66699 133 17
s57 24.333 57 39l-140 -8c-126.667 22.667 -190 50.667 -190 84l14 8l50 -8c31.333 -1.33301 58.333 -2 81 -2c44.667 0 71.667 2.66699 81 8l-156 11c-46.667 3.33301 -72 14.333 -76 33l6 20l-20 8v28c149.333 41.333 247.333 90 294 146

<glyph glyph-name=".notdef" horiz-adv-x="2620" 
d="M1041 1359l546 -0.00195312l308 -392l-64 -302c84 28 126 72.667 126 134c-13.333 16 -20 32 -20 48c0 52 46.667 78 140 78c69.333 0 139.333 -46.667 210 -140c45.333 -37.333 131.333 -74.666 258 -111.999c0 -18.667 -6.66699 -28 -20 -28
c0 -9.33301 2 -16.666 6 -21.999c-4 -22.667 -22.667 -37 -56 -43c-12 -2 -26 -3 -42 -3c-29.333 0 -65.333 3.33301 -108 10c16 -13.333 61.333 -20 136 -20c14 2.66699 26.333 4 37 4s19.667 -1.33301 27 -4c0 -36 -68 -64 -204 -84l-126 8
c76 -37.333 139.333 -56 190 -56h42v-8c-34.667 -46.667 -98 -70 -190 -70c-46.667 0 -100 12 -160 36c0 -29.333 53.333 -62 160 -98c0 -18.667 -25.333 -30.667 -76 -36c-29.333 0 -92.666 21.333 -190 64c0 -22.667 23.333 -53.334 70 -92.001c-3.33301 -2 -9 -3 -17 -3
c-24 0 -69.667 10.333 -137 31l22 -62l-28 -8c-25.333 0 -70 35.333 -134 106l-62 -294h-742l-84 294c-49.333 -62.667 -89.333 -98 -120 -106l-28 8l14 62c-57.333 -28 -101.333 -42 -132 -42l-14 22c42 25.333 63 50.666 63 75.999
c0 2.66699 -0.333008 5.33398 -1 8.00098c-85.333 -42.667 -148 -64 -188 -64c-46.667 5.33301 -70 17.333 -70 36c102.667 34.667 154 66.334 154 95.001v3c-48 -24 -99.333 -36 -154 -36h-28c-73.333 0 -127.333 23.333 -162 70v8h42c50.667 0 95 5.66699 133 17
s57 24.333 57 39l-140 -8c-126.667 22.667 -190 50.667 -190 84l14 8l50 -8c31.333 -1.33301 58.333 -2 81 -2c44.667 0 71.667 2.66699 81 8l-156 11c-46.667 3.33301 -72 14.333 -76 33l6 20l-20 8v28c149.333 41.333 247.333 90 294 146
c49.333 70.667 107.333 106 174 106c93.333 0 140 -26 140 -78c0 -16 -6.66699 -32 -20 -48c14.667 -89.333 52 -134 112 -134l-70 302zM1288 777.998c0 26 16.666 51.335 49.999 76.002c11.333 -24.667 25.666 -84 42.999 -178c3.33301 -20 5 -40.667 5 -62
c0 -77.333 -24.333 -160.666 -73 -249.999c76.667 67.333 136 133.666 178 198.999c34 53.333 51 105 51 155c0 11.333 -0.666992 22.666 -2 33.999c-9.33301 60.667 -18.666 106.667 -27.999 138c-9.33301 32 -17.666 67.667 -24.999 107l-163 -59
c-10.667 -6 -22.667 -11.667 -36 -17v3c-4 46.667 -14.333 71 -31 73c-35.333 -24.667 -94 -56.667 -176 -96c31.333 -9.33301 47 -24 47 -44v-252c0 -4 -3.66699 -8.33301 -11 -13s-20.333 -11.667 -39 -21c32 -48 65 -72 99 -72c15.333 0 31 5 47 15
c50 30.667 90 50.667 120 60c-30 7.33301 -46.833 15.166 -50.5 23.499s-5.5 14.5 -5.5 18.5v162z" />
    <glyph glyph-name="space" unicode=" " horiz-adv-x="708" 
 />
    <glyph glyph-name="space" unicode="&#xa0;" horiz-adv-x="708" 
 />
    <glyph glyph-name="exclam" unicode="!" horiz-adv-x="460" 
d="M304 165.5c20.667 -20.333 31 -44.833 31 -73.5c0 -29.333 -10.333 -54.166 -31 -74.499s-45.334 -30.5 -74.001 -30.5s-53.334 10.167 -74.001 30.5s-31 45.166 -31 74.499c0 28.667 10.333 53.167 31 73.5s45.334 30.5 74.001 30.5s53.334 -10.167 74.001 -30.5z
M291 1516v-1262h-126v1262h126z" />
    <glyph glyph-name="quotedbl" unicode="&#x22;" horiz-adv-x="593" 
d="M125 917v596h127v-596h-127zM341 917v596h127v-596h-127z" />
    <glyph glyph-name="numbersign" unicode="#" horiz-adv-x="1598" 
d="M768 950h167l102 410h128l-102 -410h409l-32 -127h-409l-42 -167h410l-33 -127h-409l-102 -409h-128l102 409h-166l-102 -409h-129l103 409h-410l32 127h410l41 167h-409l32 127h409l102 410h129zM903 823h-167l-41 -167h166z" />
    <glyph glyph-name="dollar" unicode="$" horiz-adv-x="992" 
d="M566 775l-0.000976562 -554c40 6 81.333 30.667 124 74c53.333 53.333 80 118 80 194s-26.667 140.667 -80 194c-43.333 43.333 -84.666 74 -123.999 92zM438.999 1296c-16 -2.66699 -36.667 -16.665 -62 -41.998c-32.667 -32.667 -49 -72.334 -49 -119.001
s16 -86.334 48 -119.001c24.667 -24 45.667 -41 63 -51v331zM438.999 827.002c-57.333 25.333 -107.332 59.3301 -149.999 101.997c-56.667 56.667 -85 125.334 -85 206.001c0 79.333 28.333 147.333 85 204c48 48.667 98 76 150 82v152h127v-155c46 -8 91.333 -34 136 -78
c31.333 -30.667 56 -73 74 -127l-112 -45c-14.667 39.333 -31.334 68.333 -50.001 87c-22 21.333 -38 33.333 -48 36v-384c77.333 -30 147.666 -76 210.999 -138c77.333 -77.333 116 -170.666 116 -279.999c0 -110 -38.667 -203.667 -116 -281
c-66 -65.333 -136.333 -102.666 -211 -111.999v-131h-127v130c-80 6 -154.667 43.667 -224 113c-62 62 -100.333 141.333 -115 238l119 43c8.66699 -84 36.334 -149 83.001 -195c46 -46 91.667 -71.333 137 -76v609z" />
    <glyph glyph-name="percent" unicode="%" horiz-adv-x="1180" 
d="M1078 1236l-870 -1242l-105 72l870 1242zM480.5 1093.5c45.667 -45.667 68.5 -101.167 68.5 -166.5c0 -64.667 -22.833 -119.834 -68.5 -165.501s-100.834 -68.5 -165.501 -68.5c-65.333 0 -120.833 22.833 -166.5 68.5s-68.5 100.834 -68.5 165.501
c0 65.333 22.833 120.833 68.5 166.5s101.167 68.5 166.5 68.5c64.667 0 119.834 -22.833 165.501 -68.5zM315 1038c-31.333 0 -57.666 -10.833 -78.999 -32.5s-32 -47.834 -32 -78.501s10.667 -56.667 32 -78s47.666 -32 78.999 -32c30 0 55.833 10.667 77.5 32
s32.5 47.333 32.5 78s-10.833 56.834 -32.5 78.501s-47.5 32.5 -77.5 32.5zM1032.5 541.5c45.667 -45.667 68.5 -101.167 68.5 -166.5c0 -64.667 -22.833 -119.834 -68.5 -165.501s-100.834 -68.5 -165.501 -68.5c-65.333 0 -120.833 22.833 -166.5 68.5
s-68.5 100.834 -68.5 165.501c0 65.333 22.833 120.833 68.5 166.5s101.167 68.5 166.5 68.5c64.667 0 119.834 -22.833 165.501 -68.5zM867 486c-31.333 0 -57.666 -10.833 -78.999 -32.5s-32 -47.834 -32 -78.501s10.667 -56.667 32 -78s47.666 -32 78.999 -32
c30 0 55.833 10.667 77.5 32s32.5 47.333 32.5 78s-10.833 56.834 -32.5 78.501s-47.5 32.5 -77.5 32.5z" />
    <glyph glyph-name="ampersand" unicode="&#x26;" horiz-adv-x="1257" 
d="M842 314l-5.99805 4.00195c-31.333 18 -69.666 50.667 -114.999 98c-28 25.333 -47.333 41 -58 47c-10 5.33301 -20 8 -30 8c-6 0 -11.667 -0.666992 -17 -2c-16 -4.66699 -28 -14 -36 -28c-6 -10.667 -9 -20.667 -9 -30c0 -5.33301 1 -11 3 -17
c4 -16 12.333 -27.333 25 -34c8 -4.66699 20.333 -7 37 -7c10 0 31 2 63 6l-13 -118c-26.667 -7.33301 -48.667 -11 -66 -11c-28.667 0 -56.334 7.33301 -83.001 22c-42 23.333 -69.667 59.666 -83 108.999c-4.66699 17.333 -7 34 -7 50c0 30.667 8.33301 60.667 25 90
c25.333 44.667 62.333 73.667 111 87c17.333 4.66699 34.333 7 51 7c31.333 0 61 -8.33301 89 -25c26.667 -14.667 60.334 -43 101.001 -85c33.333 -31.333 57.666 -51 72.999 -59c15.333 -8.66699 30.666 -13 45.999 -13c9.33301 0 18.666 1.33301 27.999 4
c26 6.66699 45.667 21.667 59 45c8.66699 16 13 32 13 48c0 8 -1.33301 16.667 -4 26c-6.66699 25.333 -21.667 45 -45 59c-14 7.33301 -29.667 11 -47 11c-13.333 0 -37 -4.66699 -71 -14l-2 127c30 8.66699 54.667 13 74 13c36.667 0 72.334 -9.66699 107.001 -29
c52.667 -30 87.334 -74.667 104.001 -134c5.33301 -20.667 8 -40.334 8 -59.001c0 -38 -10 -74 -30 -108c-30 -53.333 -74.667 -88 -134 -104c-18 -4.66699 -30 -7.33398 -36 -8.00098c-18 -59.333 -54.667 -116.666 -110 -171.999c-89.333 -90 -197.333 -135 -324 -135
c-126 0 -233.833 44.667 -323.5 134s-134.5 197.666 -134.5 324.999c0 126 44 235.667 132 329c60 64.667 119.667 107 179 127c-12 4.66699 -42.667 33.334 -92 86.001s-74 125 -74 217c0 90.667 32.5 168.667 97.5 234s143.833 98 236.5 98c92 0 170.667 -32.333 236 -97
c36.667 -34.667 64 -80.667 82 -138l-114 -45c-15.333 40.667 -34.333 72.667 -57 96c-40.667 40 -89.667 60 -147 60c-56.667 0 -105.334 -20.167 -146.001 -60.5s-61 -89.5 -61 -147.5c0 -57.333 20 -107.333 60 -150s77 -70.5 111 -83.5s84.667 -19.833 152 -20.5v-120
l-86 -3c-128 -24 -224 -70.833 -288 -140.5s-96 -150.167 -96 -241.5c0 -92.667 32.5 -171.5 97.5 -236.5s143.5 -97.5 235.5 -97.5c91.333 0 169.666 32.667 234.999 98c38 38 62.667 74 74 108z" />
    <glyph glyph-name="quotesingle" unicode="'" horiz-adv-x="377" 
d="M125 917v596h127v-596h-127z" />
    <glyph glyph-name="parenleft" unicode="(" horiz-adv-x="707" 
d="M607 1506c-88 -40.667 -164.333 -101.666 -229 -182.999c-108 -136 -162 -324.333 -162 -565c0 -241.333 54 -430 162 -566c64.667 -81.333 141 -143.333 229 -186v-123c-126.667 44 -231.667 118.333 -315 223c-128 159.333 -192 376.666 -192 651.999
c0 274.667 64 492 192 652c83.333 104.667 188.333 179 315 223v-127z" />
    <glyph glyph-name="parenright" unicode=")" horiz-adv-x="707" 
d="M100 1633c126.667 -44 231.334 -118.334 314.001 -223.001c128.667 -160 193 -377.333 193 -652c0 -275.333 -64.333 -492.666 -193 -651.999c-82.667 -104.667 -187.334 -179 -314.001 -223v123c88 42.667 164.333 104.667 229 186c108 136 162 324.667 162 566
c0 240.667 -54 429 -162 565c-64.667 81.333 -141 142.333 -229 183v127z" />
    <glyph glyph-name="asterisk" unicode="*" horiz-adv-x="818" 
d="M472 1338l144 100l73 -104l-170 -119l170 -119l-73 -104l-144 101v-176h-126v177l-145 -102l-73 104l170 119l-170 119l73 104l145 -101v176h126v-175z" />
    <glyph glyph-name="plus" unicode="+" horiz-adv-x="1030" 
d="M452 503h-327v127h327v327h126v-327h327v-127h-327v-326h-126v326z" />
    <glyph glyph-name="comma" unicode="," horiz-adv-x="421" 
d="M321 197l-191 -398h-120l107 398h204z" />
    <glyph glyph-name="hyphen" unicode="-" horiz-adv-x="837" 
d="M125 630h587v-127h-587v127z" />
    <glyph glyph-name="hyphen" unicode="&#xad;" horiz-adv-x="837" 
d="M125 630h587v-127h-587v127z" />
    <glyph glyph-name="period" unicode="." horiz-adv-x="410" 
d="M279 165.5c20.667 -20.333 31 -44.833 31 -73.5c0 -29.333 -10.333 -54.166 -31 -74.499s-45.334 -30.5 -74.001 -30.5s-53.334 10.167 -74.001 30.5s-31 45.166 -31 74.499c0 28.667 10.333 53.167 31 73.5s45.334 30.5 74.001 30.5s53.334 -10.167 74.001 -30.5z" />
    <glyph glyph-name="slash" unicode="/" horiz-adv-x="729" 
d="M636 1516h143l-687 -1516h-142z" />
    <glyph glyph-name="zero" unicode="0" horiz-adv-x="1206" 
d="M999 989c0 109.333 -38.667 202.5 -116 279.5s-170.666 115.5 -279.999 115.5s-202.666 -38.5 -279.999 -115.5s-116 -170.167 -116 -279.5v-488c0 -109.333 38.667 -202.333 116 -279s170.666 -115 279.999 -115s202.666 38.333 279.999 115s116 169.667 116 279v488z
M1130 501c0 -145.333 -51.333 -269.5 -154 -372.5s-227 -154.5 -373 -154.5c-145.333 0 -269.5 51.5 -372.5 154.5s-154.5 227.167 -154.5 372.5v488c0 145.333 51.5 269.5 154.5 372.5s227.167 154.5 372.5 154.5c146 0 270.333 -51.5 373 -154.5s154 -227.167 154 -372.5
v-488z" />
    <glyph glyph-name="one" unicode="1" horiz-adv-x="1302" 
d="M769 1516v-1516h-127v1327h-110l147 189h90z" />
    <glyph glyph-name="two" unicode="2" horiz-adv-x="1220" 
d="M358 435.5l272.001 204.001c77.333 58.333 148.166 122.666 212.499 192.999s96.5 150.833 96.5 241.5c0 92 -32.167 170.167 -96.5 234.5s-142.166 96.5 -233.499 96.5c-90.667 0 -168.334 -32.333 -233.001 -97c-55.333 -55.333 -88 -130.333 -98 -225l-127 46
c16.667 108.667 60.667 199 132 271c90 90.667 198.667 136 326 136s236 -45 326 -135s135 -199 135 -327c0 -126 -44 -236.333 -132 -331c-58 -62.667 -126.167 -123.334 -204.5 -182.001l-264.5 -198c-92.667 -69.333 -148.667 -148 -168 -236h769v-127h-915
c31.333 212.667 99 357.834 203 435.501z" />
    <glyph glyph-name="three" unicode="3" horiz-adv-x="1220" 
d="M558 822l-89.002 2.00195v126c68.667 0.666992 119.834 7.5 153.501 20.5s70.334 40.5 110.001 82.5s59.5 91.333 59.5 148c0 57.333 -20 105.833 -60 145.5s-88 59.5 -144 59.5s-104.333 -19.667 -145 -59c-22 -22.667 -41 -55.334 -57 -98.001l-119 47
c18.667 59.333 46.334 106.666 83.001 141.999c66 65.333 145.333 98 238 98c93.333 0 172.666 -33 237.999 -99s98 -144.667 98 -236c0 -92.667 -24.833 -165.667 -74.5 -219s-77.834 -81.333 -84.501 -84c54 -18 111.667 -59.667 173 -125c88 -94.667 132 -205 132 -331
c0 -128 -45 -237 -135 -327s-198.667 -135 -326 -135s-236 45.333 -326 136c-71.333 72 -115.333 162.333 -132 271l127 46c10 -94.667 42.667 -169.667 98 -225c64.667 -64.667 142.334 -97 233.001 -97c91.333 0 169.166 32.167 233.499 96.5s96.5 142.5 96.5 234.5
c0 90.667 -31.667 170.667 -95 240s-158.666 116 -285.999 140z" />
    <glyph glyph-name="four" unicode="4" horiz-adv-x="1238" 
d="M806 1516h117v-959h141v-126h-141v-431h-127v431h-623zM796 1236l-403 -679h403v679z" />
    <glyph glyph-name="five" unicode="5" horiz-adv-x="1219" 
d="M333 1071c2.66699 1.33301 23.6699 6.33105 63.0029 14.998c40.667 6.66699 80 10 118 10c70 0 137.333 -11 202 -33c144 -49.333 251 -140 321 -272c44 -82 66 -166.333 66 -253c0 -53.333 -8.33301 -107.333 -25 -162c-44 -143.333 -132.333 -250.666 -265 -321.999
c-80 -42.667 -163 -64 -249 -64c-54.667 0 -110 8.66699 -166 26c-114.667 34.667 -208.334 101.667 -281.001 201l90 99c59.333 -88.667 136 -147 230 -175c42 -13.333 83.333 -20 124 -20c65.333 0 128.666 16.333 189.999 49c101.333 54 168.666 135.667 201.999 245
c12.667 42 19 83.333 19 124c0 65.333 -16.333 129 -49 191c-54 100.667 -136 170.334 -246 209.001c-47.333 16 -99.333 24 -156 24c-76 0 -164.333 -16 -265 -48l-87 76l173 477v48h504v-127h-397z" />
    <glyph glyph-name="six" unicode="6" horiz-adv-x="1207" 
d="M211 501c0 -109.333 38.5 -202.333 115.5 -279s170.167 -115 279.5 -115s202.666 38.333 279.999 115s116 169.667 116 279s-38.667 202.666 -116 279.999s-170.666 116 -279.999 116s-202.5 -38.667 -279.5 -116s-115.5 -170.666 -115.5 -279.999zM606 1029
c146 0 270.331 -51.5 372.998 -154.5s154 -227.5 154 -373.5c0 -145.333 -51.333 -269.5 -154 -372.5s-227 -154.5 -373 -154.5c-145.333 0 -269.333 51.667 -372 155c-99.333 99.333 -150.666 211 -153.999 335h-7c6.66699 236 59.834 423.667 159.501 563
s222.167 290.333 367.5 453l31 36h170c-31.333 -39.333 -54 -67 -68 -83c-160.667 -179.333 -288 -336 -382 -470c38.667 44 123.667 66 255 66z" />
    <glyph glyph-name="seven" unicode="7" horiz-adv-x="1220" 
d="M815.5 973c-162.333 -182 -290.002 -339.001 -383.002 -471.001s-142.833 -299.333 -149.5 -502h-130c6.66699 236 59.834 423.833 159.501 563.5s221.334 289.834 365.001 450.501s225.167 285.667 244.5 375h-768v127h912c-4.66699 -180 -88.167 -361 -250.5 -543z" />
    <glyph glyph-name="eight" unicode="8" horiz-adv-x="1211" 
d="M604 113h4c12 -1.33301 23.667 -2 35 -2c91.333 0 169.333 32.167 234 96.5s97 142.5 97 234.5c0 90.667 -31.667 170.667 -95 240c-62 67.333 -153 113 -273 137c-120.667 -24 -212 -69.667 -274 -137c-63.333 -69.333 -95 -149.333 -95 -240
c0 -92 32.333 -170.167 97 -234.5s142.667 -96.5 234 -96.5c11.333 0 23.333 0.666992 36 2zM606 -19c-12 -0.666992 -24.6689 -1 -38.002 -1c-127.333 0 -236 45 -326 135s-135 199 -135 327c0 126 44 236.333 132 331c60.667 65.333 118.334 107 173.001 125
c-7.33301 2.66699 -35.833 30.667 -85.5 84s-74.5 126.333 -74.5 219c0 91.333 32.667 170 98 236s145 99 239 99h33c94 0 173.667 -33 239 -99s98 -144.667 98 -236c0 -92.667 -24.833 -165.667 -74.5 -219s-78.167 -81.333 -85.5 -84
c54.667 -18 112.334 -59.667 173.001 -125c88 -94.667 132 -205 132 -331c0 -128 -44.833 -237 -134.5 -327s-198.5 -135 -326.5 -135c-12.667 0 -25 0.333008 -37 1zM602.998 1405c-4.66699 0.666992 -9.3291 1 -13.9961 1c-56.667 0 -104.834 -19.833 -144.501 -59.5
s-59.5 -88.167 -59.5 -145.5c0 -56.667 19.667 -106 59 -148s75.666 -69.333 108.999 -82c16.667 -6 34.334 -10.667 53.001 -14c18 3.33301 35.333 8 52 14c33.333 12.667 69.666 40 108.999 82s59 91.333 59 148c0 57.333 -19.833 105.833 -59.5 145.5
s-87.834 59.5 -144.501 59.5c-4.66699 0 -9.33398 -0.333008 -14.001 -1h-5z" />
    <glyph glyph-name="nine" unicode="9" horiz-adv-x="1207" 
d="M996 989c0 109.333 -38.667 202.5 -116 279.5s-170.666 115.5 -279.999 115.5s-202.666 -38.5 -279.999 -115.5s-116 -170.167 -116 -279.5s38.667 -202.666 116 -279.999s170.666 -116 279.999 -116s202.666 38.667 279.999 116s116 170.666 116 279.999zM600 461
c-146 0 -270.331 51.5 -372.998 154.5s-154 227.5 -154 373.5c0 145.333 51.333 269.5 154 372.5s227 154.5 373 154.5c145.333 0 269.666 -51.667 372.999 -155c98.667 -98.667 150 -210 154 -334h6c-6.66699 -236.667 -59.834 -424.667 -159.501 -564
s-222.167 -290.333 -367.5 -453l-31 -36h-170l68 83c160.667 179.333 288 336 382 470c-38.667 -44 -123.667 -66 -255 -66z" />
    <glyph glyph-name="colon" unicode=":" horiz-adv-x="460" 
d="M304 165.5c20.667 -20.333 31 -44.833 31 -73.5c0 -29.333 -10.333 -54.166 -31 -74.499s-45.334 -30.5 -74.001 -30.5s-53.334 10.167 -74.001 30.5s-31 45.166 -31 74.499c0 28.667 10.333 53.167 31 73.5s45.334 30.5 74.001 30.5s53.334 -10.167 74.001 -30.5z
M304 733c20.667 -20 31 -44.333 31 -73c0 -30 -10.333 -55 -31 -75s-45.334 -30 -74.001 -30s-53.334 10 -74.001 30s-31 45 -31 75c0 28.667 10.333 53 31 73s45.334 30 74.001 30s53.334 -10 74.001 -30z" />
    <glyph glyph-name="semicolon" unicode=";" horiz-adv-x="519" 
d="M394 197l-191 -398h-120l107 398h204zM307 733c20.667 -20 31 -44.333 31 -73c0 -30 -10.333 -55 -31 -75s-45.334 -30 -74.001 -30s-53.334 10 -74.001 30s-31 45 -31 75c0 28.667 10.333 53 31 73s45.334 30 74.001 30s53.334 -10 74.001 -30z" />
    <glyph glyph-name="semicolon" unicode="&#x37e;" horiz-adv-x="519" 
d="M394 197l-191 -398h-120l107 398h204zM307 733c20.667 -20 31 -44.333 31 -73c0 -30 -10.333 -55 -31 -75s-45.334 -30 -74.001 -30s-53.334 10 -74.001 30s-31 45 -31 75c0 28.667 10.333 53 31 73s45.334 30 74.001 30s53.334 -10 74.001 -30z" />
    <glyph glyph-name="less" unicode="&#x3c;" horiz-adv-x="1343" 
d="M1243 124l-1143 416l1143 416v-135l-772 -281l772 -281v-135z" />
    <glyph glyph-name="equal" unicode="=" horiz-adv-x="1030" 
d="M125 777h780v-127h-780v127zM125 483h780v-127h-780v127z" />
    <glyph glyph-name="greater" unicode="&#x3e;" horiz-adv-x="1343" 
d="M100 259l773 281l-773 281v135l1143 -416l-1143 -416v135z" />
    <glyph glyph-name="question" unicode="?" horiz-adv-x="946" 
d="M411 554c-23.333 -47.333 -35.0029 -95.001 -35.0029 -143.001c0 -36.667 9 -80.667 27 -132l-118 -41c-22.667 65.333 -34 123 -34 173c0 67.333 15.667 133 47 197c50.667 106 126.667 197 228 273c55.333 54 95 106.333 119 157c14.667 29.333 22 59.333 22 90
c0 22.667 -4 45.334 -12 68.001c-19.333 54.667 -54.666 94.334 -105.999 119.001c-29.333 14 -59 21 -89 21c-22.667 0 -45.667 -4.33301 -69 -13c-54 -18.667 -93.333 -53.334 -118 -104.001c-14 -29.333 -21 -66.333 -21 -111l-125 6v29c0 43.333 10.667 86 32 128
c40.667 83.333 104.334 140 191.001 170c38 13.333 75.333 20 112 20c48.667 0 96.667 -11.333 144 -34c82.667 -40 139 -103 169 -189c13.333 -37.333 20 -74.333 20 -111c0 -48.667 -11.667 -96.667 -35 -144c-38.667 -80.667 -102.667 -155.667 -192 -225
c-69.333 -61.333 -121.666 -129.333 -156.999 -204zM405.997 165.499c20.667 -20.333 31 -44.833 31 -73.5c0 -29.333 -10.333 -54.166 -31 -74.499s-45.334 -30.5 -74.001 -30.5s-53.334 10.167 -74.001 30.5s-31 45.166 -31 74.499c0 28.667 10.333 53.167 31 73.5
s45.334 30.5 74.001 30.5s53.334 -10.167 74.001 -30.5z" />
    <glyph glyph-name="at" unicode="@" horiz-adv-x="1560" 
d="M1011 469v116c-9.33301 40.667 -30 77 -62 109c-46 46.667 -101.333 70 -166 70c-65.333 0 -120.833 -23.167 -166.5 -69.5s-68.5 -102.5 -68.5 -168.5c0 -64.667 22.833 -120 68.5 -166s101.167 -69 166.5 -69c64.667 0 120 23 166 69c32 32 52.667 68.333 62 109z
M1009 255c-53.333 -56 -129.333 -83.999 -228 -83.999c-98 0 -182 35 -252 105s-105 153.333 -105 250c0 98.667 35 183 105 253s154 105 252 105c98.667 0 174.667 -28 228 -84v72h119v-614c6 -14.667 15.333 -22 28 -22c19.333 0 51.166 31.5 95.499 94.5
s66.5 127.833 66.5 194.5c0 148 -52.5 274.667 -157.5 380s-231.5 158 -379.5 158s-274.333 -52.667 -379 -158s-157 -232 -157 -380s52.333 -274.167 157 -378.5s231 -156.5 379 -156.5c101.333 0 179.333 17 234 51l84 -88c-92.667 -54.667 -198.667 -82 -318 -82
c-180 0 -334.333 64.167 -463 192.5s-193 282.166 -193 461.499c0 180.667 64.167 335.167 192.5 463.5s282.833 192.5 463.5 192.5s334.834 -64.167 462.501 -192.5s191.5 -282.833 191.5 -463.5c0 -82 -30 -170 -90 -264s-128.333 -141 -205 -141
c-9.33301 0 -18.333 0.666992 -27 2c-64 13.333 -98.667 51 -104 113v20z" />
    <glyph glyph-name="A" unicode="A" horiz-adv-x="1259" 
d="M823 691l-193 531l-193 -531h386zM869 564h-479l-205 -564h-135l580 1592l579 -1592h-135z" />
    <glyph glyph-name="B" unicode="B" horiz-adv-x="1044" 
d="M436 1516c80.667 0 149.667 -28.667 207 -86c57.333 -58 86 -127.667 86 -209c0 -83.333 -30 -150 -90 -200c44 -9.33301 98 -49 162 -119c102 -102.667 153 -227 153 -373c0 -145.333 -51 -271 -153 -377c-96 -98.667 -203.333 -149 -322 -151v-1h-329v1516h286z
M277 925l-0.000976562 -797.998h202c81.333 5.33301 157 44.666 227 117.999c78 80 117 174.667 117 284s-38.667 202.666 -116 279.999s-170.666 116 -279.999 116h-150zM276.999 1389l-0.000976562 -332.001h176c40.667 4 75.334 19.333 104.001 46
c32.667 30 49 69.333 49 118s-16.5 88.834 -49.5 120.501s-74.167 47.5 -123.5 47.5h-156z" />
    <glyph glyph-name="C" unicode="C" horiz-adv-x="1540" 
d="M1345 286l95 -85.001c-159.333 -145.333 -339.333 -218 -540 -218c-214 0 -396.667 75.5 -548 226.5s-227 333.833 -227 548.5c0 214 75.667 396.667 227 548s334 227 548 227c200.667 0 380.667 -72.333 540 -217l-95 -87c-132 117.333 -280.333 176 -445 176
c-178 0 -330.167 -63.167 -456.5 -189.5s-189.5 -278.833 -189.5 -457.5c0 -179.333 63.167 -332.166 189.5 -458.499s278.5 -189.5 456.5 -189.5c164.667 0 313 58.667 445 176z" />
    <glyph glyph-name="D" unicode="D" horiz-adv-x="1167" 
d="M277 1386v-1256c202 0 359.333 56.667 472 170c126 126 189 278.667 189 458c0 178.667 -63 331.334 -189 458.001c-112.667 113.333 -270 170 -472 170zM277 1514h-16c248.667 0 441.667 -69 579 -207c151.333 -152 227 -335 227 -549
c0 -214.667 -75.667 -397.667 -227 -549c-137.333 -138 -330.333 -207 -579 -207h16v-2h-127v1516h127v-2z" />
    <glyph glyph-name="E" unicode="E" horiz-adv-x="1055" 
d="M930 1516v-127h-653v-568h653v-126h-653v-568h653v-127h-780v1516h780z" />
    <glyph glyph-name="F" unicode="F" horiz-adv-x="963" 
d="M838 1516v-127h-561v-568h561v-126h-561v-695h-127v1516h688z" />
    <glyph glyph-name="G" unicode="G" horiz-adv-x="1565" 
d="M1424 196c-148.667 -142 -323.332 -213.001 -523.999 -213.001c-214 0 -396.667 75.5 -548 226.5s-227 333.833 -227 548.5c0 214 75.667 396.667 227 548s334 227 548 227c200.667 0 380.667 -72.333 540 -217l-95 -87c-132 117.333 -280.333 176 -445 176
c-178 0 -330.167 -63.167 -456.5 -189.5s-189.5 -278.833 -189.5 -457.5c0 -179.333 63.167 -332.166 189.5 -458.499s278.5 -189.5 456.5 -189.5c153.333 0 285.666 45 396.999 135v460h127v-509z" />
    <glyph glyph-name="H" unicode="H" horiz-adv-x="1126" 
d="M277 660v-660h-127v1516h127v-730h572v730h127v-1516h-127v660h-572z" />
    <glyph glyph-name="I" unicode="I" horiz-adv-x="467" 
d="M297 1516v-1516h-127v1516h127z" />
    <glyph glyph-name="J" unicode="J" horiz-adv-x="855" 
d="M700 274c0 -80.667 -26.668 -147.668 -80.001 -201.001c-56.667 -57.333 -125 -86 -205 -86c-80.667 0 -149.167 28.333 -205.5 85s-84.5 125 -84.5 205l126 33c0 -66.667 16 -116 48 -148s70.667 -48 116 -48c44.667 0 83.334 16 116.001 48
c28.667 28.667 43 65.334 43 110.001c0 4 -0.333008 9 -1 15v1229h127v-1242z" />
    <glyph glyph-name="K" unicode="K" horiz-adv-x="1090" 
d="M277 727v-727h-127v1516h127v-583l437 583h161l-458 -615l584 -901h-155l-512 798z" />
    <glyph glyph-name="L" unicode="L" horiz-adv-x="937" 
d="M150 0v1516h127v-1389h570v-127h-697z" />
    <glyph glyph-name="M" unicode="M" horiz-adv-x="1670" 
d="M295 1516l541 -935l539 935h145l-19 -34v-1482h-127v1262l-538 -932l-540 932v-1262h-126v1482l-20 34h145z" />
    <glyph glyph-name="N" unicode="N" horiz-adv-x="1274" 
d="M150 1516h126l721 -1249v1249h127v-1516h-117l-730 1262v-1262h-127v1516z" />
    <glyph glyph-name="O" unicode="O" horiz-adv-x="1805" 
d="M1452 1309.5c152 -151.667 228 -334.834 228 -549.501s-76 -397.834 -228 -549.501s-335.333 -227.5 -550 -227.5s-397.834 75.833 -549.501 227.5s-227.5 334.834 -227.5 549.501s75.833 397.834 227.5 549.501s334.834 227.5 549.501 227.5s398 -75.833 550 -227.5z
M902 1409c-178.667 0 -331.334 -63.333 -458.001 -190s-190 -279.667 -190 -459s63.333 -332.5 190 -459.5s279.334 -190.5 458.001 -190.5c179.333 0 332.333 63.5 459 190.5s190 280.167 190 459.5s-63.333 332.333 -190 459s-279.667 190 -459 190z" />
    <glyph glyph-name="P" unicode="P" horiz-adv-x="1062" 
d="M277 511v-511h-127v1516h410c118 -16 218 -65 300 -147c98 -98 147 -216.333 147 -355c0 -139.333 -49 -258 -147 -356s-216.333 -147 -355 -147h-228zM277 1388v-750h228c103.333 0 191.666 36.667 264.999 110s110 162 110 266c0 103.333 -36.667 191.5 -110 264.5
s-161.666 109.5 -264.999 109.5h-228z" />
    <glyph glyph-name="Q" unicode="Q" horiz-adv-x="1805" 
d="M902 1409c-178.667 0 -331.334 -63.333 -458.001 -190s-190 -279.667 -190 -459s63.333 -332.5 190 -459.5s279.334 -190.5 458.001 -190.5c179.333 0 332.333 63.5 459 190.5s190 280.167 190 459.5s-63.333 332.333 -190 459s-279.667 190 -459 190zM802 -17
c-149.333 1.33301 -299.001 77.332 -449.001 227.999c-152 151.333 -228 334.333 -228 549s75.833 397.834 227.5 549.501s334.834 227.5 549.501 227.5s398 -75.833 550 -227.5s228 -334.834 228 -549.501s-76 -397.667 -228 -549
c-109.333 -110 -211.666 -175 -306.999 -195l126 -68c50 -26.667 84.667 -42.667 104 -48c10.667 -3.33301 21 -5 31 -5c18.667 0 36.667 5 54 15c27.333 15.333 45 38 53 68c2.66699 8 4.66699 23 6 45h128c-2 -34 -5.66699 -60.333 -11 -79
c-18.667 -63.333 -56.667 -111.333 -114 -144c-36 -20.667 -74 -31 -114 -31c-22 0 -44.333 3.33301 -67 10c-38.667 10.667 -92.667 37.667 -162 81c-60.667 32.667 -103.334 52.334 -128.001 59.001c-16 4 -31.667 6 -47 6c-26.667 0 -52.334 -7 -77.001 -21
c-40 -22.667 -66 -56 -78 -100c-2 -6 -4 -18.667 -6 -38h-127c2.66699 32 6.33398 56.333 11.001 73c21.333 77.333 67.333 136 138 176z" />
    <glyph glyph-name="R" unicode="R" horiz-adv-x="1062" 
d="M277 1388v-750h228c103.333 0 191.666 36.667 264.999 110s110 162 110 266c0 103.333 -36.667 191.5 -110 264.5s-161.666 109.5 -264.999 109.5h-228zM505 511h-228v-511h-127v1516h410c118 -16 218 -65 300 -147c98 -98 147 -216.333 147 -355
c0 -139.333 -49 -258 -147 -356c-68 -68 -136 -110.333 -204 -127l345 -531h-155z" />
    <glyph glyph-name="S" unicode="S" horiz-adv-x="1013" 
d="M525 816c-108 36 -194 86.166 -258 150.499s-96 142.5 -96 234.5c0 90.667 32.5 168.667 97.5 234s143.833 98 236.5 98c92 0 170.667 -32.333 236 -97c36.667 -34.667 64 -80.667 82 -138l-115 -45c-14.667 40.667 -33.667 72.667 -57 96c-40 40 -88.667 60 -146 60
s-106.166 -20.167 -146.499 -60.5s-60.5 -89.5 -60.5 -147.5c0 -56.667 20.333 -105.334 61 -146.001c39.333 -39.333 94.333 -75.333 165 -108c120 -38.667 221.667 -99.667 305 -183c89.333 -88.667 134 -196 134 -322c0 -127.333 -44.833 -235.666 -134.5 -324.999
s-197.5 -134 -323.5 -134c-126.667 0 -234.667 45 -324 135c-71.333 71.333 -115 160.333 -131 267l121 44c10.667 -92.667 43.667 -167 99 -223c65.333 -65.333 143.666 -98 234.999 -98c92 0 170.5 32.5 235.5 97.5s97.5 143.833 97.5 236.5
c0 91.333 -32.333 169.333 -97 234c-58.667 58.667 -130.667 105.334 -216 140.001z" />
    <glyph glyph-name="T" unicode="T" horiz-adv-x="972" 
d="M549 1389v-1389h-126v1389h-373v127h872v-127h-373z" />
    <glyph glyph-name="U" unicode="U" horiz-adv-x="1305" 
d="M1028 1516h127.001v-1081c-16 -118.667 -65 -219 -147 -301c-98 -98 -216.333 -147 -355 -147c-139.333 0 -258 49.167 -356 147.5s-147 216.5 -147 354.5v1027h128v-1027c0 -102.667 36.667 -190.667 110 -264s161.666 -110 264.999 -110c104 0 192.5 36.667 265.5 110
s109.5 161.333 109.5 264v1027z" />
    <glyph glyph-name="V" unicode="V" horiz-adv-x="1259" 
d="M184 1516l445 -1222l444 1222h136l-580 -1592l-579 1592h134z" />
    <glyph glyph-name="W" unicode="W" horiz-adv-x="1602" 
d="M738 248l0.000976562 1268h127v-1268c11.333 -21.333 26.333 -41.333 45 -60c51.333 -49.333 112 -74 182 -74s130.5 25 181.5 75s76.5 110.333 76.5 181v1146h127v-1154c-2 -101.333 -39.333 -188.666 -112 -261.999c-75.333 -75.333 -166.333 -113 -273 -113
c-106 0 -196.667 37.333 -272 112l-19 17l-19 -17c-75.333 -74.667 -166 -112 -272 -112c-106.667 0 -197.334 37.667 -272.001 113c-73.333 73.333 -111 160.666 -113 261.999v1154h127v-1146c0 -70.667 25.5 -131 76.5 -181s111.5 -75 181.5 -75
c70.667 0 131.334 24.667 182.001 74c19.333 18.667 34.666 38.667 45.999 60z" />
    <glyph glyph-name="X" unicode="X" horiz-adv-x="1205" 
d="M50 0l479 831l-395 685h145l322 -559l324 559h146l-397 -685l481 -831h-146l-408 705l-406 -705h-145z" />
    <glyph glyph-name="Y" unicode="Y" horiz-adv-x="1272" 
d="M572 611l-522 905h146l440 -763l440 763h146l-523 -905v-611h-127v611z" />
    <glyph glyph-name="Z" unicode="Z" horiz-adv-x="1321" 
d="M952 1389h-786v127h1005l-803 -1389h787v-127h-1005z" />
    <glyph glyph-name="bracketleft" unicode="[" horiz-adv-x="579" 
d="M252 -218h202v-127h-329v1861h329v-127h-202v-1607z" />
    <glyph glyph-name="backslash" unicode="\" horiz-adv-x="729" 
d="M779 0h-142l-687 1516h143z" />
    <glyph glyph-name="bracketright" unicode="]" horiz-adv-x="579" 
d="M327 1389h-202v127h329v-1861h-329v127h202v1607z" />
    <glyph glyph-name="asciicircum" unicode="^" horiz-adv-x="939" 
d="M531 1516l309 -535h-147l-223 385l-223 -385h-147l310 535h121z" />
    <glyph glyph-name="underscore" unicode="_" horiz-adv-x="1014" 
d="M25 16h964v-126h-964v126z" />
    <glyph glyph-name="grave" unicode="`" horiz-adv-x="716" 
d="M378 1228l188 -216h-133l-283 216h228z" />
    <glyph glyph-name="a" unicode="a" horiz-adv-x="1317" 
d="M1167 0h-127v139c-112.667 -110 -242 -165 -388 -165c-145.333 0 -269.5 51.5 -372.5 154.5s-154.5 227.167 -154.5 372.5c0 146 51.5 270.5 154.5 373.5s227.167 154.5 372.5 154.5c146 0 275.333 -55 388 -165v83h127v-947zM1040 422v158.998
c-14 75.333 -50 142 -108 200c-77.333 77.333 -170.666 116 -279.999 116s-202.666 -38.667 -279.999 -116s-116 -170.666 -116 -279.999s38.667 -202.333 116 -279s170.666 -115 279.999 -115s202.666 38.333 279.999 115c58 58.667 94 125.334 108 200.001z" />
    <glyph glyph-name="b" unicode="b" horiz-adv-x="1316" 
d="M150 1516h127v-650c112.667 108.667 241.667 163 387 163c146 0 270.333 -51.5 373 -154.5s154 -227.5 154 -373.5c0 -145.333 -51.333 -269.5 -154 -372.5s-227 -154.5 -373 -154.5c-145.333 0 -274.333 54.667 -387 164v-138h-127v1516zM277 586v-168.999
c14.667 -72.667 50.334 -137.667 107.001 -195c77.333 -76.667 170.666 -115 279.999 -115s202.666 38.333 279.999 115s116 169.667 116 279s-38.667 202.666 -116 279.999s-170.666 116 -279.999 116s-202.666 -38.667 -279.999 -116
c-56.667 -56.667 -92.334 -121.667 -107.001 -195z" />
    <glyph glyph-name="c" unicode="c" 
d="M935 265l129 -46.001c-28 -39.333 -52.333 -69.333 -73 -90c-103.333 -103.333 -228 -155 -374 -155c-145.333 0 -269.5 51.5 -372.5 154.5s-154.5 227.5 -154.5 373.5c0 145.333 51.5 269.5 154.5 372.5s227.167 154.5 372.5 154.5c146 0 270.667 -51.333 374 -154
c20.667 -21.333 45 -51 73 -89l-129 -48c-15.333 18.667 -28 33.334 -38 44.001c-77.333 76.667 -170.666 115 -279.999 115c-108.667 0 -201.667 -38.5 -279 -115.5s-116 -170.167 -116 -279.5s38.667 -202.5 116 -279.5s170.333 -115.5 279 -115.5
c109.333 0 202.666 38.333 279.999 115c10 10 22.667 24.333 38 43z" />
    <glyph glyph-name="d" unicode="d" horiz-adv-x="1317" 
d="M1167 0h-127v139c-112.667 -110 -242 -165 -388 -165c-145.333 0 -269.5 51.5 -372.5 154.5s-154.5 227.167 -154.5 372.5c0 146 51.5 270.5 154.5 373.5s227.167 154.5 372.5 154.5c146 0 275.333 -55 388 -165v652h127v-1516zM1040 422v158.998
c-14 75.333 -50 142 -108 200c-77.333 77.333 -170.666 116 -279.999 116s-202.666 -38.667 -279.999 -116s-116 -170.666 -116 -279.999s38.667 -202.333 116 -279s170.666 -115 279.999 -115s202.666 38.333 279.999 115c58 58.667 94 125.334 108 200.001z" />
    <glyph glyph-name="e" unicode="e" 
d="M371 192c62.667 -56.667 144.669 -85 246.002 -85c109.333 0 202.666 38.333 279.999 115c10 10 22.667 24.333 38 43l129 -46c-28 -39.333 -52.333 -69.333 -73 -90c-103.333 -103.333 -228 -155 -374 -155c-145.333 0 -269.5 51.5 -372.5 154.5
s-154.5 227.5 -154.5 373.5c0 145.333 51.5 269.5 154.5 372.5s227.167 154.5 372.5 154.5c124.667 0 234 -37.333 328 -112c15.333 -12.667 30.666 -26.667 45.999 -42l30 -33l-77 -77zM834.002 834c-54.667 42 -127 63 -217 63c-108.667 0 -201.667 -38.5 -279 -115.5
s-116 -170.167 -116 -279.5c0 -90 21 -162.333 63 -217z" />
    <glyph glyph-name="f" unicode="f" horiz-adv-x="534" 
d="M309 821l-0.00195312 -821h-127v821h-92v126h92v224c4 74 32.333 137.667 85 191c54.667 50.667 117.667 76 189 76c36.667 0 82.334 -9.33301 137.001 -28l-41 -117c-37.333 16 -66.666 24 -87.999 24c-37.333 0 -73.333 -15.333 -108 -46
c-30 -29.333 -45.667 -65 -47 -107v-217h184v-126h-184z" />
    <glyph glyph-name="g" unicode="g" horiz-adv-x="1321" 
d="M1039 586c-14.667 73.333 -50.333 138.332 -107 194.999c-77.333 77.333 -170.666 116 -279.999 116s-202.666 -38.667 -279.999 -116s-116 -170.666 -116 -279.999s38.667 -202.5 116 -279.5s170.666 -115.5 279.999 -115.5s202.666 38.667 279.999 116
c56 56 91.667 120.333 107 193v171zM1033 130.999l-6.99902 -2c-103.333 -103.333 -228 -155 -374 -155c-145.333 0 -269.5 51.5 -372.5 154.5s-154.5 227.167 -154.5 372.5c0 146 51.5 270.333 154.5 373s227.167 154 372.5 154c146 0 275.333 -54.667 388 -164v83h127
v-724c0 -141.333 -50.333 -262.333 -151 -363c-102.667 -102.667 -226.667 -154 -372 -154c-146 0 -270.667 51.333 -374 154c-20.667 21.333 -45 51.333 -73 90l129 46c15.333 -18 28 -32 38 -42c77.333 -77.333 170.666 -116 279.999 -116
c108.667 0 201.667 38.667 279 116c70 70 106.667 129 110 177z" />
    <glyph glyph-name="h" unicode="h" horiz-adv-x="1042" 
d="M150 1516h127v-586c49.333 48 126 72 230 72c112.667 0 204.5 -35.667 275.5 -107s107.5 -160.666 109.5 -267.999v-627h-127v619c0 70.667 -25.5 131 -76.5 181s-111.5 75 -181.5 75s-130.667 -24.667 -182 -74c-22 -22.667 -38 -44.334 -48 -65.001v-736h-127v1516z
" />
    <glyph glyph-name="i" unicode="i" horiz-adv-x="460" 
d="M293 947v-947h-127v947h127zM304 1237.5c20.667 -20.333 31 -44.833 31 -73.5c0 -29.333 -10.333 -54.166 -31 -74.499s-45.334 -30.5 -74.001 -30.5s-53.334 10.167 -74.001 30.5s-31 45.166 -31 74.499c0 28.667 10.333 53.167 31 73.5s45.334 30.5 74.001 30.5
s53.334 -10.167 74.001 -30.5z" />
    <glyph glyph-name="j" unicode="j" horiz-adv-x="479" 
d="M49 -85c74 8.66699 111 43.667 111 105v927h127v-925c0 -142.667 -79.333 -220.667 -238 -234v127zM298 1237.5c20.667 -20.333 31 -44.833 31 -73.5c0 -29.333 -10.333 -54.166 -31 -74.499s-45.334 -30.5 -74.001 -30.5s-53.334 10.167 -74.001 30.5
s-31 45.166 -31 74.499c0 28.667 10.333 53.167 31 73.5s45.334 30.5 74.001 30.5s53.334 -10.167 74.001 -30.5z" />
    <glyph glyph-name="k" unicode="k" horiz-adv-x="833" 
d="M659 947l-242 -300l366 -647h-154l-297 544l-55 -69v-475h-127v1332h127v-654l218 269h164z" />
    <glyph glyph-name="l" unicode="l" horiz-adv-x="427" 
d="M277 1516v-1516h-127v1516h127z" />
    <glyph glyph-name="m" unicode="m" horiz-adv-x="1333" 
d="M150 947l126.999 0.000976562v9c30.667 30 85 45 163 45c80 0 148.333 -28.333 205 -85l21 -21l22 21c56.667 56.667 125 85 205 85c80.667 0 149 -28.333 205 -85c54 -54 82.333 -119.333 85 -196v-720h-127v741c-1.33301 27.333 -17 55.666 -47 84.999
c-32 32 -70.667 48 -116 48c-44.667 0 -83.167 -16 -115.5 -48s-48.5 -72 -48.5 -120v-706h-126v741h-1c-1.33301 27.333 -16.666 55.666 -45.999 84.999c-32.667 32 -71.334 48 -116.001 48c-45.333 0 -83.666 -16 -114.999 -48
c-28.667 -27.333 -44.667 -60.666 -48 -99.999v-726h-127v947z" />
    <glyph glyph-name="n" unicode="n" horiz-adv-x="1053" 
d="M277 719v-719.001h-127v947h127v-27c54.667 54.667 135 82 241 82c112.667 0 204.5 -35.667 275.5 -107s107.5 -160.666 109.5 -267.999v-627h-126v619c0 70.667 -25.667 131 -77 181s-112 75 -182 75s-130.667 -24.667 -182 -74c-28 -28 -47.667 -55.333 -59 -82z" />
    <glyph glyph-name="o" unicode="o" horiz-adv-x="1234" 
d="M617 1029c146 0 270.333 -51.5 373 -154.5s154 -227.5 154 -373.5c0 -145.333 -51.333 -269.5 -154 -372.5s-227 -154.5 -373 -154.5c-145.333 0 -269.5 51.5 -372.5 154.5s-154.5 227.167 -154.5 372.5c0 146 51.5 270.5 154.5 373.5s227.167 154.5 372.5 154.5z
M337 781c-77.333 -77.333 -116 -170.666 -116 -279.999s38.667 -202.333 116 -279s170.666 -115 279.999 -115s202.666 38.333 279.999 115s116 169.667 116 279s-38.667 202.666 -116 279.999s-170.666 116 -279.999 116s-202.666 -38.667 -279.999 -116z" />
    <glyph glyph-name="p" unicode="p" horiz-adv-x="1291" 
d="M150 947h127v-81c112.667 108 241.667 162 387 162c146 0 270.333 -51.333 373 -154s154 -227 154 -373c0 -145.333 -51.333 -269.5 -154 -372.5s-227 -154.5 -373 -154.5c-145.333 0 -274.333 54.667 -387 164v-483h-127v1292zM277 586v-168.999
c14.667 -73.333 50.334 -138.333 107.001 -195c77.333 -77.333 170.666 -116 279.999 -116s202.666 38.5 279.999 115.5s116 170.167 116 279.5s-38.667 202.666 -116 279.999s-170.666 116 -279.999 116s-202.666 -38.667 -279.999 -116
c-56.667 -56.667 -92.334 -121.667 -107.001 -195z" />
    <glyph glyph-name="q" unicode="q" horiz-adv-x="1292" 
d="M1142 -345h-127v484c-112.667 -110 -242 -165 -388 -165c-145.333 0 -269.5 51.5 -372.5 154.5s-154.5 227.167 -154.5 372.5c0 146 51.5 270.333 154.5 373s227.167 154 372.5 154c146 0 275.333 -54.667 388 -164v83h127v-1292zM1015 422v158.999
c-14 75.333 -50 142 -108 200c-77.333 77.333 -170.666 116 -279.999 116s-202.666 -38.667 -279.999 -116s-116 -170.666 -116 -279.999s38.667 -202.5 116 -279.5s170.666 -115.5 279.999 -115.5s202.666 38.667 279.999 116c58 58 94 124.667 108 200z" />
    <glyph glyph-name="r" unicode="r" horiz-adv-x="611" 
d="M150 947l127.001 -0.000976562v-116c92 88 186.667 134.333 284 139v-135c-60.667 -2.66699 -116.667 -30 -168 -82c-74.667 -73.333 -113.334 -161.666 -116.001 -264.999v-488h-127v947z" />
    <glyph glyph-name="s" unicode="s" horiz-adv-x="799" 
d="M406 468c-71.333 38.667 -121.333 72.333 -150 101c-46.667 46 -70 102 -70 168s23.333 122.5 70 169.5s102.667 70.5 168 70.5c66 0 121 -22 165 -66c42 -42.667 63 -91.667 63 -147v-19l-112 -45c-8 60.667 -21.5 100.667 -40.5 120s-44.167 29 -75.5 29
c-30.667 0 -57 -10.833 -79 -32.5s-33 -48.167 -33 -79.5c0 -30.667 11 -57 33 -79c14 -14.667 45 -37 93 -67c80 -43.333 137.333 -82.333 172 -117c56 -57.333 84 -125.666 84 -204.999c0 -80.667 -28.167 -149.334 -84.5 -206.001s-124.5 -85 -204.5 -85
c-80.667 0 -149.167 28.333 -205.5 85s-84.5 125 -84.5 205l126 33c0 -67.333 16 -116.833 48 -148.5s70.667 -47.5 116 -47.5c44.667 0 83.167 15.833 115.5 47.5s48.5 70.5 48.5 116.5c0 45.333 -16 84 -48 116c-18.667 18 -57 45.667 -115 83z" />
    <glyph glyph-name="t" unicode="t" horiz-adv-x="675" 
d="M274 947v385h127v-385h184v-126h-184v-821h-127v821h-184v126h184z" />
    <glyph glyph-name="u" unicode="u" horiz-adv-x="1079" 
d="M545 -13c-119.333 0 -214.5 35.5 -285.5 106.5s-107.5 160.5 -109.5 268.5v587h127v-579c0 -70.667 25.667 -130.667 77 -180c50.667 -50.667 114 -76 190 -76c70 0 130.5 25 181.5 75s76.5 110.333 76.5 181v579h127v-587c-2 -108 -38.333 -197.333 -109 -268
c-71.333 -71.333 -163 -107 -275 -107z" />
    <glyph glyph-name="v" unicode="v" horiz-adv-x="1057" 
d="M528 225l334 722h145l-479 -1001l-478 1001h145z" />
    <glyph glyph-name="w" unicode="w" horiz-adv-x="1333" 
d="M603 262v685.001h126v-666c0 -47.333 16.167 -87 48.5 -119s70.833 -48 115.5 -48c45.333 0 84 16 116 48c30 29.333 45.667 57.666 47 84.999v700h127v-679c-2.66699 -76.667 -31 -141.667 -85 -195c-56 -57.333 -124.333 -86 -205 -86c-80 0 -155.333 35.333 -226 106
c-71.333 -70.667 -147 -106 -227 -106c-80.667 0 -149 28.667 -205 86c-54 53.333 -82.333 118.333 -85 195v679h127v-700c1.33301 -27.333 17.333 -55.666 48 -84.999c31.333 -32 69.666 -48 114.999 -48c44.667 0 83.334 16 116.001 48c27.333 27.333 43 60.666 47 99.999
z" />
    <glyph glyph-name="x" unicode="x" horiz-adv-x="889" 
d="M764 947l-248 -429l299 -518h-147l-223 386l-223 -386h-147l300 518l-248 429h146l172 -297l172 297h147z" />
    <glyph glyph-name="y" unicode="y" horiz-adv-x="1007" 
d="M313 -345h-129l254 534l-363 758h143l286 -617l286 617h141z" />
    <glyph glyph-name="z" unicode="z" horiz-adv-x="1004" 
d="M616 808h-450v127h669l-467 -808h486v-127h-704z" />
    <glyph glyph-name="braceleft" unicode="{" horiz-adv-x="861" 
d="M165 642c24 0 58 12.668 102 38.001c65.333 37.333 108.333 92.666 129 165.999c11.333 42 17 86.667 17 134c0 26 -2 52.333 -6 79c-8.66699 45.333 -13 88 -13 128c0 42.667 5.33301 83 16 121c20 74.667 64 131.334 132 170.001c43.333 25.333 88.666 38 135.999 38
c13.333 0 32.333 -2 57 -6v-114c-26.667 4.66699 -45 7 -55 7c-28 0 -55.333 -7.33301 -82 -22c-40.667 -23.333 -67 -57.333 -79 -102c-8.66699 -32 -13 -68.667 -13 -110c0 -17.333 1 -35.666 3 -54.999c10 -47.333 15 -94.333 15 -141c0 -54 -6.66699 -106.333 -20 -157
c-28.667 -102.667 -86 -179.667 -172 -231c86 -50.667 143.333 -127.334 172 -230.001c13.333 -50.667 20 -103 20 -157c0 -46.667 -5 -93.667 -15 -141c-2 -19.333 -3 -37.666 -3 -54.999c0 -41.333 4.33301 -78 13 -110c12 -44.667 38.333 -78.334 79 -101.001
c28 -15.333 56.333 -23 85 -23c8.66699 0 26 1.66699 52 5v-112c-24.667 -4 -43.667 -6 -57 -6c-47.333 0 -92.666 12.667 -135.999 38c-68 38.667 -112 95.667 -132 171c-10.667 38 -16 78.333 -16 121c0 40 4.33301 82.333 13 127c4 26.667 6 53 6 79
c0 47.333 -5.66699 92 -17 134c-20.667 73.333 -63.667 128.666 -129 165.999c-44 25.333 -78 38 -102 38v113z" />
    <glyph glyph-name="bar" unicode="|" horiz-adv-x="427" 
d="M277 1516v-1861h-127v1861h127z" />
    <glyph glyph-name="braceright" unicode="}" horiz-adv-x="861" 
d="M735 529c-24 0 -58 -12.668 -102 -38.001c-65.333 -37.333 -108.333 -92.666 -129 -165.999c-10.667 -42 -16 -86.667 -16 -134c0 -26 1.66699 -52.333 5 -79c8.66699 -44.667 13 -87 13 -127c0 -42.667 -5 -83 -15 -121c-20 -75.333 -64.333 -132.333 -133 -171
c-43.333 -25.333 -88.666 -38 -135.999 -38c-12.667 0 -31.667 2 -57 6v112c26 -3.33301 43.333 -5 52 -5c28.667 0 57 7.66699 85 23c40.667 22.667 67 56.334 79 101.001c8.66699 32 13 68.667 13 110c0 17.333 -0.666992 35.666 -2 54.999c-10 47.333 -15 94.333 -15 141
c0 54 6.66699 106.333 20 157c28.667 102.667 86 179.334 172 230.001c-86 51.333 -143.333 128.333 -172 231c-13.333 50.667 -20 103 -20 157c0 46.667 5 93.667 15 141c1.33301 19.333 2 37.666 2 54.999c0 41.333 -4.33301 78 -13 110
c-12 44.667 -38.333 78.667 -79 102c-26.667 14.667 -54 22 -82 22c-10 0 -28.333 -2.33301 -55 -7v114c25.333 4 44.333 6 57 6c47.333 0 92.666 -12.667 135.999 -38c68.667 -38.667 113 -95.334 133 -170.001c10 -38 15 -78.333 15 -121c0 -40 -4.33301 -82.667 -13 -128
c-3.33301 -26.667 -5 -53 -5 -79c0 -47.333 5.33301 -92 16 -134c20.667 -73.333 63.667 -128.666 129 -165.999c44 -25.333 78 -38 102 -38v-113z" />
    <glyph glyph-name="asciitilde" unicode="~" horiz-adv-x="1241" 
d="M631 833c112 -64.667 191.999 -97.002 239.999 -97.002c7.33301 0 13.666 0.666992 18.999 2c40 12 68.333 38.333 85 79c8 20.667 12 50 12 88l129 -20c-3.33301 -45.333 -11.333 -84 -24 -116c-30.667 -74 -83 -123.667 -157 -149c-18 -5.33301 -37.667 -8 -59 -8
c-68 0 -156.667 31.333 -266 94c-113.333 64.667 -193.666 97 -240.999 97c-7.33301 0 -13.666 -0.666992 -18.999 -2c-40 -12 -68 -38.333 -84 -79c-8.66699 -21.333 -13.334 -50.666 -14.001 -87.999l-127 20c2 44.667 9.66699 83.334 23 116.001
c30.667 74 83.334 123.667 158.001 149c17.333 5.33301 36.333 8 57 8c68.667 0 158 -31.333 268 -94z" />
    <glyph glyph-name="exclamdown" unicode="&#xa1;" horiz-adv-x="460" 
d="M156 1354c-20.667 20 -31 44.667 -31 74s10.333 54.166 31 74.499s45.334 30.5 74.001 30.5s53.334 -10.167 74.001 -30.5s31 -45.166 31 -74.499s-10.333 -54 -31 -74s-45.334 -30 -74.001 -30s-53.334 10 -74.001 30zM168 4v1262h127v-1262h-127z" />
    <glyph glyph-name="cent" unicode="&#xa2;" horiz-adv-x="1005" 
d="M559 693c66.667 0.666992 129.669 30.6631 189.002 89.9961c7.33301 7.33301 18.666 20.333 33.999 39l122 -45c-28 -38 -50.333 -65.667 -67 -83c-83.333 -83.333 -176 -125.666 -278 -126.999v-142h-127v152c-72.667 12.667 -141.334 51.667 -206.001 117
c-84.667 84 -127 185.667 -127 305c0 118.667 42.333 220.334 127 305.001c64.667 64.667 133.334 103.667 206.001 117v152h127v-142c102 -1.33301 194.667 -43.666 278 -126.999c16.667 -17.333 39 -44.333 67 -81l-122 -47c-15.333 18.667 -27 32 -35 40
c-58.667 58.667 -121.334 88.334 -188.001 89.001v-612zM432.002 1292c-36 -8.66699 -75 -34 -117 -76c-60 -60 -90 -132.333 -90 -217s30 -156.667 90 -216c42 -42.667 81 -68 117 -76v585z" />
    <glyph glyph-name="sterling" unicode="&#xa3;" horiz-adv-x="1112" 
d="M476 511c2 -24.667 3.00098 -43.9961 3.00098 -57.9961c0 -130.667 -36 -239 -108 -325c27.333 10 79.333 15 156 15c46 0 91.667 -5 137 -15c58.667 -14 114.667 -21 168 -21c47.333 0 99.333 7.33301 156 22l24 -125c-65.333 -16 -125.333 -24 -180 -24
c-56.667 0 -114.334 7 -173.001 21c-58.667 12 -110.334 18 -155.001 18c-39.333 0 -72.666 -4.66699 -99.999 -14c-62.667 -23.333 -129 -52.333 -199 -87l-105 125c86 76 138.333 125.667 157 149c63.333 74 95 158.667 95 254c0 12.667 -0.666992 25.667 -2 39
c-1.33301 14.667 -2.33301 23.334 -3 26.001h-213v126h186c-10.667 38.667 -30.334 85.667 -59.001 141c-70 113.333 -109.333 221.666 -118 324.999c-1.33301 12 -2 24.333 -2 37c0 90.667 30 171.667 90 243c66.667 80 153.334 125 260.001 135c12 0.666992 24 1 36 1
c90.667 0 172 -30 244 -90c80.667 -68.667 126 -155.334 136 -260.001c2 -14.667 3 -29 3 -43c0 -42 -10 -86 -30 -132l-120 40c13.333 38 20 71.667 20 101c0 8 -0.333008 16 -1 24c-6.66699 69.333 -36.667 126.666 -90 171.999c-47.333 39.333 -101 59 -161 59
c-8 0 -16 -0.333008 -24 -1c-70 -6 -127.333 -35.667 -172 -89c-40 -48 -60 -101.333 -60 -160c0 -8.66699 0.333008 -17.334 1 -26.001c6 -66.667 29 -142.334 69 -227.001c54 -86 90.667 -169.333 110 -250h186v-126h-162z" />
    <glyph glyph-name="currency" unicode="&#xa4;" horiz-adv-x="1101" 
d="M319 1397c60 49.333 137.333 74 232 74c94 0 171 -24.667 231 -74l129 129l90 -90l-129 -129c49.333 -60 74 -137.333 74 -232c0 -94 -24.667 -171 -74 -231l129 -129l-90 -90l-129 129c-60 -49.333 -137 -74 -231 -74c-94.667 0 -172 24.667 -232 74l-129 -129l-90 90
l129 129c-49.333 60 -74 137 -74 231c0 94.667 24.667 172 74 232l-129 129l90 90zM711 1291c-46 35.333 -99.332 52.999 -159.999 52.999c-61.333 0 -115 -17.667 -161 -53c-10 -8 -19.667 -16.333 -29 -25c-9.33301 -9.33301 -18 -19.333 -26 -30
c-35.333 -46 -53 -99.667 -53 -161c0 -60.667 17.667 -114 53 -160c7.33301 -10 16 -19.667 26 -29c9.33301 -10 19 -18.667 29 -26c46 -35.333 99.667 -53 161 -53c60.667 0 114 17.667 160 53c10.667 7.33301 20.667 16 30 26
c9.33301 8.66699 17.666 18.334 24.999 29.001c35.333 46 53 99.333 53 160c0 61.333 -17.667 115 -53 161c-8 10.667 -16.333 20.667 -25 30c-9.33301 8.66699 -19.333 17 -30 25z" />
    <glyph glyph-name="yen" unicode="&#xa5;" horiz-adv-x="1272" 
d="M635 754l441 762h146l-450 -777h254v-127h-327v-67h327v-126h-327v-419h-127v419h-326v126h326v67h-326v127h253l-449 777h146z" />
    <glyph glyph-name="brokenbar" unicode="&#xa6;" horiz-adv-x="427" 
d="M277 1516v-825h-127v825h127zM277 480v-825h-127v825h127z" />
    <glyph glyph-name="section" unicode="&#xa7;" horiz-adv-x="1125" 
d="M845 381l3.99902 1c34 34 51 97 51 189c0 91.333 -32.333 169.666 -97 234.999c-58.667 58.667 -130.667 105.334 -216 140.001c-107.333 36 -192.666 85.667 -255.999 149c-28 28 -45 48 -51 60h-4c-34 -34.667 -51 -98 -51 -190c0 -91.333 32.333 -169.666 97 -234.999
c58.667 -58.667 130.667 -105.334 216 -140.001c108 -36 193.333 -85.667 256 -149c28.667 -28 45.667 -48 51 -60zM235.999 1286c-2 9.33301 -2.99902 24.3369 -2.99902 45.0039c0 90.667 32.5 168.667 97.5 234s143.833 98 236.5 98c92 0 170.667 -32.333 236 -97
c36.667 -35.333 64 -81.333 82 -138l-114 -46c-15.333 41.333 -34.333 73.333 -57 96c-40.667 40 -89.667 60 -147 60c-56.667 0 -105.334 -20 -146.001 -60s-61 -89 -61 -147c0 -56.667 20.333 -105.334 61 -146.001c40 -39.333 95 -75.333 165 -108
c120.667 -39.333 222.334 -100.333 305.001 -183c89.333 -88.667 134 -196.334 134 -323.001s-29.333 -219.334 -88 -278.001c-23.333 -23.333 -39 -37.666 -47 -42.999c1.33301 -9.33301 2 -24.333 2 -45c0 -90.667 -32.5 -168.667 -97.5 -234s-143.833 -98 -236.5 -98
c-92 0 -170.667 32.333 -236 97c-36.667 35.333 -64 81.666 -82 138.999l115 45c14.667 -41.333 33.667 -73.333 57 -96c40 -40 88.667 -60 146 -60s106.166 20.167 146.499 60.5s60.5 89.166 60.5 146.499s-20 106 -60 146c-40 39.333 -95.333 75.666 -166 108.999
c-120 38.667 -221.667 99.334 -305 182.001c-89.333 89.333 -134 197 -134 323c0 126.667 29.333 219.667 88 279c23.333 23.333 39.333 37.333 48 42z" />
    <glyph glyph-name="dieresis" unicode="&#xa8;" horiz-adv-x="736" 
d="M304 1237.5c20.667 -20.333 31 -44.833 31 -73.5c0 -29.333 -10.333 -54.166 -31 -74.499s-45.334 -30.5 -74.001 -30.5s-53.334 10.167 -74.001 30.5s-31 45.166 -31 74.499c0 28.667 10.333 53.167 31 73.5s45.334 30.5 74.001 30.5s53.334 -10.167 74.001 -30.5z
M580 1237.5c20.667 -20.333 31 -44.833 31 -73.5c0 -29.333 -10.333 -54.166 -31 -74.499s-45.334 -30.5 -74.001 -30.5s-53.334 10.167 -74.001 30.5s-31 45.166 -31 74.499c0 28.667 10.333 53.167 31 73.5s45.334 30.5 74.001 30.5s53.334 -10.167 74.001 -30.5z" />
    <glyph glyph-name="copyright" unicode="&#xa9;" horiz-adv-x="1353" 
d="M866 455l105 -39c-24 -33.333 -42.667 -56.666 -56 -69.999c-64 -64 -141 -96 -231 -96s-166.833 32 -230.5 96s-95.5 141 -95.5 231s31.833 166.833 95.5 230.5s140.5 95.5 230.5 95.5s167 -31.667 231 -95c13.333 -13.333 32 -37 56 -71l-105 -38
c-12.667 16.667 -22 28 -28 34c-42.667 42 -94 63 -154 63s-111.5 -21.333 -154.5 -64s-64.5 -94.334 -64.5 -155.001c0 -60 21.5 -111.5 64.5 -154.5s94.5 -64.5 154.5 -64.5s111.667 21.333 155 64c5.33301 5.33301 14.333 16.333 27 33zM1079.5 983.5
c112.333 -112.333 168.5 -247.833 168.5 -406.5s-56.167 -294.167 -168.5 -406.5s-247.5 -168.5 -405.5 -168.5c-158.667 0 -294.167 56.167 -406.5 168.5s-168.5 247.833 -168.5 406.5s56.167 294.167 168.5 406.5s247.833 168.5 406.5 168.5
c158 0 293.167 -56.167 405.5 -168.5zM674 1042c-128.667 0 -238.5 -45.333 -329.5 -136s-136.5 -200.334 -136.5 -329.001s45.5 -238.5 136.5 -329.5s200.833 -136.5 329.5 -136.5c128 0 237.5 45.5 328.5 136.5s136.5 200.833 136.5 329.5s-45.5 238.334 -136.5 329.001
s-200.5 136 -328.5 136z" />
    <glyph glyph-name="ordfeminine" unicode="&#xaa;" horiz-adv-x="868" 
d="M173 912h529v-72h-602v622h73v-550zM768 985h-95v28c-38.667 -26.667 -95.334 -40 -170.001 -40c-75.333 0 -139.333 26.667 -192 80s-79 117.333 -79 192s26.333 138.5 79 191.5s116.667 79.5 192 79.5c74.667 0 131.334 -20.667 170.001 -62v22h95v-491zM673 1207
v74.001c-5.33301 32.667 -21.333 61.667 -48 87c-33.333 34 -74 51 -122 51c-48.667 0 -90 -17 -124 -51s-51 -75 -51 -123c0 -48.667 17 -89.834 51 -123.501s75.333 -50.5 124 -50.5c48 0 88.667 16.667 122 50c26.667 26 42.667 54.667 48 86z" />
    <glyph glyph-name="guillemotleft" unicode="&#xab;" horiz-adv-x="970" 
d="M416 447l454 478v-159l-297 -319l297 -319v-160zM100 447l447 479v-160l-297 -319l297 -319v-161z" />
    <glyph glyph-name="registered" unicode="&#xae;" horiz-adv-x="1128" 
d="M482 1261v-303h84c42 0 77.833 14.833 107.5 44.5s44.5 65.167 44.5 106.5c0 42 -14.833 77.833 -44.5 107.5s-65.5 44.5 -107.5 44.5h-84zM668 697l-105.001 164.001h-81v-102h-95v596h206c58.667 -8 108 -32.333 148 -73c48 -47.333 72 -105 72 -173
c0 -68.667 -24 -127.334 -72 -176.001c-33.333 -33.333 -58.666 -52 -75.999 -56l92 -140c18.667 10.667 41 28.667 67 54c72 72.667 108 159.334 108 260.001c0 102 -36 189 -108 261s-158.333 108 -259 108c-102 0 -189 -36 -261 -108s-108 -159 -108 -261
c0 -100.667 36 -187.334 108 -260.001c34 -33.333 71.333 -59 112 -77c16 -8 32.667 -14 50 -18c30.667 -8.66699 63.667 -13 99 -13c44.667 0 79 4.66699 103 14zM564.999 587.001c-129.333 0 -239.165 45.333 -329.498 136s-135.5 200 -135.5 328
c0 128.667 45.167 238.334 135.5 329.001s200.166 136 329.499 136c127.333 0 236.333 -45.333 327 -136s136 -200.334 136 -329.001c0 -128 -45.333 -237.333 -136 -328c-32 -31.333 -76.333 -61.833 -133 -91.5s-121.334 -44.5 -194.001 -44.5z" />
    <glyph glyph-name="macron" unicode="&#xaf;" horiz-adv-x="837" 
d="M125 1265h587v-127h-587v127z" />
    <glyph glyph-name="degree" unicode="&#xb0;" horiz-adv-x="769" 
d="M550.5 1447.5c45.667 -45.667 68.5 -101.167 68.5 -166.5c0 -64.667 -22.833 -119.834 -68.5 -165.501s-100.834 -68.5 -165.501 -68.5c-65.333 0 -120.833 22.833 -166.5 68.5s-68.5 100.834 -68.5 165.501c0 65.333 22.833 120.833 68.5 166.5s101.167 68.5 166.5 68.5
c64.667 0 119.834 -22.833 165.501 -68.5zM385 1407c-34.667 0 -64.334 -12.333 -89.001 -37s-37 -54.334 -37 -89.001c0 -34 12.333 -63.333 37 -88s54.334 -37 89.001 -37c34 0 63.333 12.333 88 37s37 54 37 88c0 34.667 -12.333 64.334 -37 89.001s-54 37 -88 37z" />
    <glyph glyph-name="plusminus" unicode="&#xb1;" horiz-adv-x="1030" 
d="M452 503h-327v127h327v327h126v-327h327v-127h-327v-326h-126v326zM125 127h780v-127h-780v127z" />
    <glyph glyph-name="acute" unicode="&#xb4;" horiz-adv-x="716" 
d="M566 1228l-283 -216h-133l188 216h228z" />
    <glyph glyph-name="mu" unicode="&#xb5;" horiz-adv-x="1030" 
d="M755 71c-52.667 -52.667 -135.333 -79 -248 -79c-104 0 -180.667 23.667 -230 71v-408h-127v1292h127v-689c10 -21.333 26 -43.333 48 -66c51.333 -48.667 112 -73 182 -73s130.667 25 182 75c32.667 32 54.667 67.667 66 107v646h125v-947h-125v71z" />
    <glyph glyph-name="paragraph" unicode="&#xb6;" horiz-adv-x="1096" 
d="M798 1474v-1819h-127v939h-118c-138.667 0 -257 49.167 -355 147.5s-147 216.833 -147 355.5s49 257.334 147 356.001c82 82 182 131 300 147h53v1h496v-127h-81v-1819h-127v1819h-41z" />
    <glyph glyph-name="periodcentered" unicode="&#xb7;" horiz-adv-x="435" 
d="M282.5 823.5c18.333 -17.667 27.5 -39.5 27.5 -65.5s-9.16699 -47.833 -27.5 -65.5s-39.833 -26.5 -64.5 -26.5c-26 0 -48 8.83301 -66 26.5s-27 39.5 -27 65.5s9 47.833 27 65.5s40 26.5 66 26.5c24.667 0 46.167 -8.83301 64.5 -26.5z" />
    <glyph glyph-name="periodcentered" unicode="&#x2219;" horiz-adv-x="435" 
d="M282.5 823.5c18.333 -17.667 27.5 -39.5 27.5 -65.5s-9.16699 -47.833 -27.5 -65.5s-39.833 -26.5 -64.5 -26.5c-26 0 -48 8.83301 -66 26.5s-27 39.5 -27 65.5s9 47.833 27 65.5s40 26.5 66 26.5c24.667 0 46.167 -8.83301 64.5 -26.5z" />
    <glyph glyph-name="cedilla" unicode="&#xb8;" horiz-adv-x="619" 
d="M355 44l-11.001 -32c54 0 90.667 -16.667 110 -50c8.66699 -16 13 -32.333 13 -49c0 -18.667 -5 -38 -15 -58c-20 -38 -47 -63 -81 -75c-26 -8.66699 -53.333 -13 -82 -13h-15c-36.667 2 -73.667 15.667 -111 41l69 62c12.667 -5.33301 25 -8.33301 37 -9h7
c10 0 21 1.66699 33 5c11.333 2.66699 19.333 8.33398 24 17.001c0.666992 1.33301 1 2.66602 1 3.99902c0 4 -2 9 -6 15c-5.33301 8 -15 12.667 -29 14c-6 0.666992 -14 1 -24 1c-17.333 0 -53.666 -2.33301 -108.999 -7l81 134h108z" />
    <glyph glyph-name="ordmasculine" unicode="&#xba;" horiz-adv-x="901" 
d="M517 1071c60 2.66699 105.668 19.334 137.001 50.001c33.333 34 50 75.333 50 124c0 48 -16.667 89 -50 123c-31.333 30.667 -77 47.667 -137 51c-60.667 -3.33301 -106.334 -20.333 -137.001 -51c-34.667 -34 -52 -75 -52 -123c0 -48.667 17 -90 51 -124
c31.333 -30.667 77.333 -47.334 138 -50.001zM503.001 973c-75.333 0 -139.333 26.667 -192 80s-79 117.333 -79 192s26.333 138.5 79 191.5s116.667 79.5 192 79.5h27c75.333 0 139.333 -26.5 192 -79.5s79 -116.833 79 -191.5s-26.333 -138.667 -79 -192
s-116.667 -80 -192 -80h-27zM173.001 912h529v-72h-602v622h73v-550z" />
    <glyph glyph-name="guillemotright" unicode="&#xbb;" horiz-adv-x="970" 
d="M100 -32v160l296 319l-296 319v159l453 -478zM423 -33v161l296 319l-296 319v160l447 -479z" />
    <glyph glyph-name="questiondown" unicode="&#xbf;" horiz-adv-x="946" 
d="M535 965c23.333 47.333 35.0039 95.333 35.0039 144c0 36.667 -9.33301 80.667 -28 132l118 41c23.333 -65.333 35 -123 35 -173c0 -67.333 -16 -133.333 -48 -198c-50.667 -105.333 -126.334 -196.333 -227.001 -273c-55.333 -54 -95.333 -106 -120 -156
c-14 -30 -21 -60 -21 -90c0 -22.667 3.66699 -45.334 11 -68.001c19.333 -54.667 55 -94.334 107 -119.001c29.333 -14 59 -21 89 -21c22.667 0 45.667 4 69 12c54 19.333 93.333 54.333 118 105c14 28.667 21 65.334 21 110.001l125 -5v-29c0 -43.333 -10.667 -86 -32 -128
c-40.667 -83.333 -104.334 -140.333 -191.001 -171c-38 -12.667 -75.333 -19 -112 -19c-48.667 0 -96.667 11 -144 33c-82.667 40 -139 103.333 -169 190c-13.333 36.667 -20 73.667 -20 111c0 48.667 11.333 96.667 34 144c39.333 80.667 103.666 155.667 192.999 225
c69.333 60.667 121.666 128.334 156.999 203.001zM540.004 1354c-20.667 20 -31 44.667 -31 74s10.333 54.166 31 74.499s45.334 30.5 74.001 30.5s53.167 -10.167 73.5 -30.5s30.5 -45.166 30.5 -74.499s-10.167 -54 -30.5 -74s-44.833 -30 -73.5 -30
s-53.334 10 -74.001 30z" />
    <glyph glyph-name="Agrave" unicode="&#xc0;" horiz-adv-x="1259" 
d="M823 691l-193 531l-193 -531h386zM869 564h-479l-205 -564h-135l580 1592l579 -1592h-135zM526 1879l188 -216h-133l-283 216h228z" />
    <glyph glyph-name="Aacute" unicode="&#xc1;" horiz-adv-x="1259" 
d="M823 691l-193 531l-193 -531h386zM869 564h-479l-205 -564h-135l580 1592l579 -1592h-135zM961 1879l-283 -216h-133l188 216h228z" />
    <glyph glyph-name="Acircumflex" unicode="&#xc2;" horiz-adv-x="1259" 
d="M823 691l-193 531l-193 -531h386zM869 564h-479l-205 -564h-135l580 1592l579 -1592h-135zM683 1839l264 -260h-157l-164 126l-154 -126h-157l254 260h114z" />
    <glyph glyph-name="Atilde" unicode="&#xc3;" horiz-adv-x="1259" 
d="M823 691l-193 531l-193 -531h386zM869 564h-479l-205 -564h-135l580 1592l579 -1592h-135zM638 1770c42 -33.333 75.332 -49.999 99.999 -49.999h4c19.333 1.33301 35.333 27 48 77h107c-17.333 -105.333 -54.333 -166.333 -111 -183c-15.333 -4 -30.333 -6 -45 -6
c-40 0 -79.667 15.667 -119 47c-42 32.667 -75.667 49 -101 49h-4c-19.333 -0.666992 -35.333 -26.334 -48 -77.001h-107c18 105.333 55.333 166.333 112 183c14.667 4.66699 29.334 7 44.001 7c40 0 80 -15.667 120 -47z" />
    <glyph glyph-name="Adieresis" unicode="&#xc4;" horiz-adv-x="1259" 
d="M823 691l-193 531l-193 -531h386zM869 564h-479l-205 -564h-135l580 1592l579 -1592h-135zM566 1804.5c20.667 -20.333 31 -44.833 31 -73.5c0 -29.333 -10.333 -54.166 -31 -74.499s-45.334 -30.5 -74.001 -30.5s-53.334 10.167 -74.001 30.5s-31 45.166 -31 74.499
c0 28.667 10.333 53.167 31 73.5s45.334 30.5 74.001 30.5s53.334 -10.167 74.001 -30.5zM842 1804.5c20.667 -20.333 31 -44.833 31 -73.5c0 -29.333 -10.333 -54.166 -31 -74.499s-45.334 -30.5 -74.001 -30.5s-53.334 10.167 -74.001 30.5s-31 45.166 -31 74.499
c0 28.667 10.333 53.167 31 73.5s45.334 30.5 74.001 30.5s53.334 -10.167 74.001 -30.5z" />
    <glyph glyph-name="Aring" unicode="&#xc5;" horiz-adv-x="1259" 
d="M823 691l-193 531l-193 -531h386zM622 1526h14.998c4.66699 0.666992 9.33398 3.33398 14.001 8.00098c6 6.66699 9 14 9 22c0 8.66699 -3 16 -9 22s-13 9 -21 9c-8.66699 0 -16.167 -3 -22.5 -9s-9.5 -13.333 -9.5 -22c0 -8 3.33301 -15.333 10 -22
c4.66699 -4.66699 9.33398 -7.33398 14.001 -8.00098zM687.998 1432l521 -1432h-135l-205 564h-479l-205 -564h-135l521 1432c-7.33301 2 -19.666 11.667 -36.999 29c-26 26.667 -39 58.334 -39 95.001c0 37.333 13.167 69.166 39.5 95.499s58.166 39.5 95.499 39.5
c36.667 0 68.167 -13.167 94.5 -39.5s39.5 -58.166 39.5 -95.499c0 -36.667 -13.333 -68.334 -40 -95.001c-17.333 -17.333 -29.333 -27 -36 -29z" />
    <glyph glyph-name="AE" unicode="&#xc6;" horiz-adv-x="1693" 
d="M1568 821v-126h-653v-568h653v-127h-780v564h-276l-251 -564h-136l659 1516h784v-127h-653v-568h653zM788 691v526l-226 -526h226z" />
    <glyph glyph-name="Ccedilla" unicode="&#xc7;" horiz-adv-x="1540" 
d="M837 -16c-178.667 5.33301 -340.331 80.666 -484.998 225.999c-151.333 150.667 -227 333.334 -227 548.001c0 214 75.667 396.667 227 548s334 227 548 227c200.667 0 380.667 -72.333 540 -217l-95 -87c-132 117.333 -280.333 176 -445 176
c-178 0 -330.167 -63.167 -456.5 -189.5s-189.5 -278.833 -189.5 -457.5c0 -179.333 63.167 -332.166 189.5 -458.499s278.5 -189.5 456.5 -189.5c164.667 0 313 58.667 445 176l95 -85c-148.667 -136 -309.334 -208.333 -482.001 -217l6 19c54 0 91 -16.667 111 -50
c8.66699 -16 13 -32.333 13 -49c0 -18.667 -5 -38.334 -15 -59.001c-20 -37.333 -47 -62 -81 -74c-26 -8.66699 -53.333 -13 -82 -13h-16c-36 2 -72.667 15.667 -110 41l68 61c13.333 -4.66699 25.666 -7.33398 36.999 -8.00098h8c10 0 21 1.33301 33 4
c10.667 3.33301 18.667 9.33301 24 18c2 4.66699 3 8.33398 3 11.001v2c-10.667 12 -23 18.667 -37 20c-6 0.666992 -14 1 -24 1c-17.333 0 -54 -2.33301 -110 -7z" />
    <glyph glyph-name="Egrave" unicode="&#xc8;" horiz-adv-x="1055" 
d="M930 1516v-127h-653v-568h653v-126h-653v-568h653v-127h-780v1516h780zM501 1851l189 -216h-134l-283 216h228z" />
    <glyph glyph-name="Eacute" unicode="&#xc9;" horiz-adv-x="1055" 
d="M930 1516v-127h-653v-568h653v-126h-653v-568h653v-127h-780v1516h780zM807 1851l-283 -216h-134l189 216h228z" />
    <glyph glyph-name="Ecircumflex" unicode="&#xca;" horiz-adv-x="1055" 
d="M930 1516v-127h-653v-568h653v-126h-653v-568h653v-127h-780v1516h780zM594 1835l264 -260h-157l-163 126l-155 -126h-157l254 260h114z" />
    <glyph glyph-name="Edieresis" unicode="&#xcb;" horiz-adv-x="1055" 
d="M930 1516v-127h-653v-568h653v-126h-653v-568h653v-127h-780v1516h780zM476 1814c20.667 -20 31 -44.667 31 -74s-10.333 -54.166 -31 -74.499s-45.334 -30.5 -74.001 -30.5s-53.334 10.167 -74.001 30.5s-31 45.166 -31 74.499s10.333 54 31 74s45.334 30 74.001 30
s53.334 -10 74.001 -30zM752 1814c20.667 -20 31 -44.667 31 -74s-10.333 -54.166 -31 -74.499s-45.334 -30.5 -74.001 -30.5s-53.334 10.167 -74.001 30.5s-31 45.166 -31 74.499s10.333 54 31 74s45.334 30 74.001 30s53.334 -10 74.001 -30z" />
    <glyph glyph-name="Igrave" unicode="&#xcc;" horiz-adv-x="512" 
d="M320 1516v-1516h-126v1516h126zM154 1851l188 -216h-133l-283 216h228z" />
    <glyph glyph-name="Iacute" unicode="&#xcd;" horiz-adv-x="512" 
d="M319 1516v-1516h-127v1516h127zM586 1851l-283 -216h-133l188 216h228z" />
    <glyph glyph-name="Icircumflex" unicode="&#xce;" horiz-adv-x="490" 
d="M308 1516v-1516h-127v1516h127zM298 1839l263 -260h-157l-163 126l-154 -126h-157l254 260h114z" />
    <glyph glyph-name="Idieresis" unicode="&#xcf;" horiz-adv-x="436" 
d="M281 1516v-1516h-127v1516h127zM154 1814c20.667 -20 31 -44.667 31 -74s-10.333 -54.166 -31 -74.499s-45.334 -30.5 -74.001 -30.5s-53.334 10.167 -74.001 30.5s-31 45.166 -31 74.499s10.333 54 31 74s45.334 30 74.001 30s53.334 -10 74.001 -30zM430 1814
c20.667 -20 31 -44.667 31 -74s-10.333 -54.166 -31 -74.499s-45.334 -30.5 -74.001 -30.5s-53.334 10.167 -74.001 30.5s-31 45.166 -31 74.499s10.333 54 31 74s45.334 30 74.001 30s53.334 -10 74.001 -30z" />
    <glyph glyph-name="Eth" unicode="&#xd0;" horiz-adv-x="1239" 
d="M197 821v695h127v-2h-16c248.667 0 441.667 -69 579 -207c151.333 -152 227 -335 227 -549c0 -214.667 -75.667 -397.667 -227 -549c-137.333 -138 -330.333 -207 -579 -207h16v-2h-127v695h-147v126h147zM324 821l340 -0.000976562v-126h-340v-565
c202 0 359.333 56.667 472 170c126.667 126 190 278.667 190 458c0 178.667 -63.333 331.334 -190 458.001c-112.667 113.333 -270 170 -472 170v-565z" />
    <glyph glyph-name="Ntilde" unicode="&#xd1;" horiz-adv-x="1274" 
d="M150 1516h126l721 -1249v1249h127v-1516h-117l-730 1262v-1262h-127v1516zM646 1770c42 -33.333 75.334 -49.999 100.001 -49.999h4c19.333 1.33301 35.333 27 48 77h106c-16.667 -105.333 -53.334 -166.333 -110.001 -183c-15.333 -4 -30.333 -6 -45 -6
c-40 0 -80 15.667 -120 47c-42 32.667 -75.333 49 -100 49h-4c-19.333 -0.666992 -35.333 -26.334 -48 -77.001h-108c18 105.333 55.333 166.333 112 183c15.333 4.66699 30.333 7 45 7c40 0 80 -15.667 120 -47z" />
    <glyph glyph-name="Ograve" unicode="&#xd2;" horiz-adv-x="1805" 
d="M1452 1309.5c152 -151.667 228 -334.834 228 -549.501s-76 -397.834 -228 -549.501s-335.333 -227.5 -550 -227.5s-397.834 75.833 -549.501 227.5s-227.5 334.834 -227.5 549.501s75.833 397.834 227.5 549.501s334.834 227.5 549.501 227.5s398 -75.833 550 -227.5z
M902 1409c-178.667 0 -331.334 -63.333 -458.001 -190s-190 -279.667 -190 -459s63.333 -332.5 190 -459.5s279.334 -190.5 458.001 -190.5c179.333 0 332.333 63.5 459 190.5s190 280.167 190 459.5s-63.333 332.333 -190 459s-279.667 190 -459 190zM864 1851l188 -216
h-133l-283 216h228z" />
    <glyph glyph-name="Oacute" unicode="&#xd3;" horiz-adv-x="1805" 
d="M1452 1309.5c152 -151.667 228 -334.834 228 -549.501s-76 -397.834 -228 -549.501s-335.333 -227.5 -550 -227.5s-397.834 75.833 -549.501 227.5s-227.5 334.834 -227.5 549.501s75.833 397.834 227.5 549.501s334.834 227.5 549.501 227.5s398 -75.833 550 -227.5z
M902 1409c-178.667 0 -331.334 -63.333 -458.001 -190s-190 -279.667 -190 -459s63.333 -332.5 190 -459.5s279.334 -190.5 458.001 -190.5c179.333 0 332.333 63.5 459 190.5s190 280.167 190 459.5s-63.333 332.333 -190 459s-279.667 190 -459 190zM1169 1851l-283 -216
h-133l188 216h228z" />
    <glyph glyph-name="Ocircumflex" unicode="&#xd4;" horiz-adv-x="1805" 
d="M1452 1309.5c152 -151.667 228 -334.834 228 -549.501s-76 -397.834 -228 -549.501s-335.333 -227.5 -550 -227.5s-397.834 75.833 -549.501 227.5s-227.5 334.834 -227.5 549.501s75.833 397.834 227.5 549.501s334.834 227.5 549.501 227.5s398 -75.833 550 -227.5z
M902 1409c-178.667 0 -331.334 -63.333 -458.001 -190s-190 -279.667 -190 -459s63.333 -332.5 190 -459.5s279.334 -190.5 458.001 -190.5c179.333 0 332.333 63.5 459 190.5s190 280.167 190 459.5s-63.333 332.333 -190 459s-279.667 190 -459 190zM956 1885l264 -260
h-157l-163 126l-155 -126h-156l253 260h114z" />
    <glyph glyph-name="Otilde" unicode="&#xd5;" horiz-adv-x="1805" 
d="M1452 1309.5c152 -151.667 228 -334.834 228 -549.501s-76 -397.834 -228 -549.501s-335.333 -227.5 -550 -227.5s-397.834 75.833 -549.501 227.5s-227.5 334.834 -227.5 549.501s75.833 397.834 227.5 549.501s334.834 227.5 549.501 227.5s398 -75.833 550 -227.5z
M902 1409c-178.667 0 -331.334 -63.333 -458.001 -190s-190 -279.667 -190 -459s63.333 -332.5 190 -459.5s279.334 -190.5 458.001 -190.5c179.333 0 332.333 63.5 459 190.5s190 280.167 190 459.5s-63.333 332.333 -190 459s-279.667 190 -459 190zM911 1789
c42 -34 75.668 -51 101.001 -51h4c19.333 1.33301 35.333 27.333 48 78h106c-17.333 -105.333 -54.333 -166.333 -111 -183c-14.667 -4.66699 -29.334 -7 -44.001 -7c-40.667 0 -80.667 15.667 -120 47c-42 33.333 -75.333 50 -100 50h-4
c-19.333 -1.33301 -35.333 -27 -48 -77h-108c18 105.333 55.333 166.333 112 183c15.333 4 30.333 6 45 6c40 0 79.667 -15.333 119 -46z" />
    <glyph glyph-name="Odieresis" unicode="&#xd6;" horiz-adv-x="1805" 
d="M1452 1309.5c152 -151.667 228 -334.834 228 -549.501s-76 -397.834 -228 -549.501s-335.333 -227.5 -550 -227.5s-397.834 75.833 -549.501 227.5s-227.5 334.834 -227.5 549.501s75.833 397.834 227.5 549.501s334.834 227.5 549.501 227.5s398 -75.833 550 -227.5z
M902 1409c-178.667 0 -331.334 -63.333 -458.001 -190s-190 -279.667 -190 -459s63.333 -332.5 190 -459.5s279.334 -190.5 458.001 -190.5c179.333 0 332.333 63.5 459 190.5s190 280.167 190 459.5s-63.333 332.333 -190 459s-279.667 190 -459 190zM838 1814
c20.667 -20 31 -44.667 31 -74s-10.333 -54.166 -31 -74.499s-45.334 -30.5 -74.001 -30.5s-53.167 10.167 -73.5 30.5s-30.5 45.166 -30.5 74.499s10.167 54 30.5 74s44.833 30 73.5 30s53.334 -10 74.001 -30zM1114 1814c20.667 -20 31 -44.667 31 -74
s-10.333 -54.166 -31 -74.499s-45.334 -30.5 -74.001 -30.5s-53.167 10.167 -73.5 30.5s-30.5 45.166 -30.5 74.499s10.167 54 30.5 74s44.833 30 73.5 30s53.334 -10 74.001 -30z" />
    <glyph glyph-name="multiply" unicode="&#xd7;" horiz-adv-x="1062" 
d="M531 477l-231 -231l-90 90l231 231l-231 231l90 90l231 -231l231 231l89 -91l-231 -230l231 -231l-89 -90z" />
    <glyph glyph-name="Oslash" unicode="&#xd8;" horiz-adv-x="1805" 
d="M1118 1374c-58 23.333 -129.999 35 -215.999 35c-178.667 0 -331.334 -63.333 -458.001 -190s-190 -279.667 -190 -459s63.333 -332.333 190 -459c46 -46 88.333 -80 127 -102zM686.001 145c58.667 -23.333 130.667 -35 216 -35c179.333 0 332.333 63.5 459 190.5
s190 280.167 190 459.5s-63 332.333 -189 459c-46.667 46 -89.667 79.667 -129 101zM1288 1437c52.667 -28.667 107.332 -71 163.999 -127c152 -152 228 -335.333 228 -550s-76 -397.834 -228 -549.501s-335.333 -227.5 -550 -227.5c-104 0 -194 15.333 -270 46l-80 -171
l-115 54l80 170c-53.333 29.333 -108 72.333 -164 129c-152 151.333 -228 334.333 -228 549s75.833 397.834 227.5 549.501s334.834 227.5 549.501 227.5c104 0 194.333 -15.333 271 -46l79 170l116 -53z" />
    <glyph glyph-name="Ugrave" unicode="&#xd9;" horiz-adv-x="1305" 
d="M1028 1516h127.001v-1081c-16 -118.667 -65 -219 -147 -301c-98 -98 -216.333 -147 -355 -147c-139.333 0 -258 49.167 -356 147.5s-147 216.5 -147 354.5v1027h128v-1027c0 -102.667 36.667 -190.667 110 -264s161.666 -110 264.999 -110c104 0 192.5 36.667 265.5 110
s109.5 161.333 109.5 264v1027zM613.001 1851l189 -216h-133l-283 216h227z" />
    <glyph glyph-name="Uacute" unicode="&#xda;" horiz-adv-x="1305" 
d="M1028 1516h127.001v-1081c-16 -118.667 -65 -219 -147 -301c-98 -98 -216.333 -147 -355 -147c-139.333 0 -258 49.167 -356 147.5s-147 216.5 -147 354.5v1027h128v-1027c0 -102.667 36.667 -190.667 110 -264s161.666 -110 264.999 -110c104 0 192.5 36.667 265.5 110
s109.5 161.333 109.5 264v1027zM920.001 1851l-283 -216h-133l188 216h228z" />
    <glyph glyph-name="Ucircumflex" unicode="&#xdb;" horiz-adv-x="1305" 
d="M1028 1516h127.001v-1081c-16 -118.667 -65 -219 -147 -301c-98 -98 -216.333 -147 -355 -147c-139.333 0 -258 49.167 -356 147.5s-147 216.5 -147 354.5v1027h128v-1027c0 -102.667 36.667 -190.667 110 -264s161.666 -110 264.999 -110c104 0 192.5 36.667 265.5 110
s109.5 161.333 109.5 264v1027zM706.001 1839l264 -260h-157l-163 126l-155 -126h-156l253 260h114z" />
    <glyph glyph-name="Udieresis" unicode="&#xdc;" horiz-adv-x="1305" 
d="M1028 1516h127.001v-1081c-16 -118.667 -65 -219 -147 -301c-98 -98 -216.333 -147 -355 -147c-139.333 0 -258 49.167 -356 147.5s-147 216.5 -147 354.5v1027h128v-1027c0 -102.667 36.667 -190.667 110 -264s161.666 -110 264.999 -110c104 0 192.5 36.667 265.5 110
s109.5 161.333 109.5 264v1027zM589.001 1804.5c20.667 -20.333 31 -44.833 31 -73.5c0 -29.333 -10.333 -54.166 -31 -74.499s-45.334 -30.5 -74.001 -30.5s-53.334 10.167 -74.001 30.5s-31 45.166 -31 74.499c0 28.667 10.333 53.167 31 73.5s45.334 30.5 74.001 30.5
s53.334 -10.167 74.001 -30.5zM865.001 1804.5c20.667 -20.333 31 -44.833 31 -73.5c0 -29.333 -10.333 -54.166 -31 -74.499s-45.334 -30.5 -74.001 -30.5s-53.334 10.167 -74.001 30.5s-31 45.166 -31 74.499c0 28.667 10.333 53.167 31 73.5s45.334 30.5 74.001 30.5
s53.334 -10.167 74.001 -30.5z" />
    <glyph glyph-name="Yacute" unicode="&#xdd;" horiz-adv-x="1272" 
d="M572 611l-522 905h146l440 -763l440 763h146l-523 -905v-611h-127v611zM903 1851l-283 -216h-133l188 216h228z" />
    <glyph glyph-name="Thorn" unicode="&#xde;" horiz-adv-x="1097" 
d="M277 1261h283c118 -16 218 -65 300 -147c98 -98 147 -216.333 147 -355c0 -139.333 -49 -258 -147 -356s-216.333 -147 -355 -147h-228v-256h-127v1516h127v-255zM277 383h228c103.333 0 191.666 36.667 264.999 110s110 162 110 266c0 103.333 -36.667 191.5 -110 264.5
s-161.666 109.5 -264.999 109.5h-228v-750z" />
    <glyph glyph-name="germandbls" unicode="&#xdf;" horiz-adv-x="1071" 
d="M437 1531l15 0.00292969c82.667 0 153 -24 211 -72c61.333 -50 94.666 -125.333 99.999 -226v-16c0 -94 -34 -162.667 -102 -206c211.333 -84 321.333 -248.333 330 -493c0 -146.667 -52 -274 -156 -382c-98 -101.333 -208 -153 -330 -155v-1h-204v122h204v1
c81.333 5.33301 157.666 45.333 228.999 120c80 82.667 120 180.667 120 294c0 114 -39.667 210.667 -119 290s-192.666 119 -339.999 119v127c95.333 4.66699 158.833 21.5 190.5 50.5s47.5 69.167 47.5 120.5s-16 95.666 -48 132.999c-28.667 32 -69.667 48 -123 48h-10
c-58.667 -2 -102.5 -20.333 -131.5 -55s-45.167 -88 -48.5 -160v-1210h-132v1225c6.66699 105.333 35.334 185.166 86.001 239.499s121 83.166 211 86.499z" />
    <glyph glyph-name="agrave" unicode="&#xe0;" horiz-adv-x="1317" 
d="M1167 0h-127v139c-112.667 -110 -242 -165 -388 -165c-145.333 0 -269.5 51.5 -372.5 154.5s-154.5 227.167 -154.5 372.5c0 146 51.5 270.5 154.5 373.5s227.167 154.5 372.5 154.5c146 0 275.333 -55 388 -165v83h127v-947zM1040 422v158.998
c-14 75.333 -50 142 -108 200c-77.333 77.333 -170.666 116 -279.999 116s-202.666 -38.667 -279.999 -116s-116 -170.666 -116 -279.999s38.667 -202.333 116 -279s170.666 -115 279.999 -115s202.666 38.333 279.999 115c58 58.667 94 125.334 108 200.001zM597 1328
l188 -216h-133l-283 216h228z" />
    <glyph glyph-name="aacute" unicode="&#xe1;" horiz-adv-x="1317" 
d="M1167 0h-127v139c-112.667 -110 -242 -165 -388 -165c-145.333 0 -269.5 51.5 -372.5 154.5s-154.5 227.167 -154.5 372.5c0 146 51.5 270.5 154.5 373.5s227.167 154.5 372.5 154.5c146 0 275.333 -55 388 -165v83h127v-947zM1040 422v158.998
c-14 75.333 -50 142 -108 200c-77.333 77.333 -170.666 116 -279.999 116s-202.666 -38.667 -279.999 -116s-116 -170.666 -116 -279.999s38.667 -202.333 116 -279s170.666 -115 279.999 -115s202.666 38.333 279.999 115c58 58.667 94 125.334 108 200.001zM923 1328
l-283 -216h-133l188 216h228z" />
    <glyph glyph-name="acircumflex" unicode="&#xe2;" horiz-adv-x="1317" 
d="M1167 0h-127v139c-112.667 -110 -242 -165 -388 -165c-145.333 0 -269.5 51.5 -372.5 154.5s-154.5 227.167 -154.5 372.5c0 146 51.5 270.5 154.5 373.5s227.167 154.5 372.5 154.5c146 0 275.333 -55 388 -165v83h127v-947zM1040 422v158.998
c-14 75.333 -50 142 -108 200c-77.333 77.333 -170.666 116 -279.999 116s-202.666 -38.667 -279.999 -116s-116 -170.666 -116 -279.999s38.667 -202.333 116 -279s170.666 -115 279.999 -115s202.666 38.333 279.999 115c58 58.667 94 125.334 108 200.001zM698 1362
l263 -259h-157l-163 125l-154 -125h-157l254 259h114z" />
    <glyph glyph-name="atilde" unicode="&#xe3;" horiz-adv-x="1317" 
d="M1167 0h-127v139c-112.667 -110 -242 -165 -388 -165c-145.333 0 -269.5 51.5 -372.5 154.5s-154.5 227.167 -154.5 372.5c0 146 51.5 270.5 154.5 373.5s227.167 154.5 372.5 154.5c146 0 275.333 -55 388 -165v83h127v-947zM1040 422v158.998
c-14 75.333 -50 142 -108 200c-77.333 77.333 -170.666 116 -279.999 116s-202.666 -38.667 -279.999 -116s-116 -170.666 -116 -279.999s38.667 -202.333 116 -279s170.666 -115 279.999 -115s202.666 38.333 279.999 115c58 58.667 94 125.334 108 200.001zM655 1294
c42 -34 75.667 -51 101 -51h4c19.333 1.33301 35 27.333 47 78h107c-17.333 -105.333 -54.333 -166.333 -111 -183c-14.667 -4.66699 -29.667 -7 -45 -7c-40 0 -79.667 15.667 -119 47c-42 33.333 -75.667 50 -101 50h-3c-20 -1.33301 -36 -27 -48 -77h-108
c18 105.333 55.333 166.333 112 183c14.667 4 29.667 6 45 6c40 0 79.667 -15.333 119 -46z" />
    <glyph glyph-name="adieresis" unicode="&#xe4;" horiz-adv-x="1317" 
d="M1167 0h-127v139c-112.667 -110 -242 -165 -388 -165c-145.333 0 -269.5 51.5 -372.5 154.5s-154.5 227.167 -154.5 372.5c0 146 51.5 270.5 154.5 373.5s227.167 154.5 372.5 154.5c146 0 275.333 -55 388 -165v83h127v-947zM1040 422v158.998
c-14 75.333 -50 142 -108 200c-77.333 77.333 -170.666 116 -279.999 116s-202.666 -38.667 -279.999 -116s-116 -170.666 -116 -279.999s38.667 -202.333 116 -279s170.666 -115 279.999 -115s202.666 38.333 279.999 115c58 58.667 94 125.334 108 200.001zM582 1337.5
c20.667 -20.333 31 -44.833 31 -73.5c0 -29.333 -10.333 -54.166 -31 -74.499s-45.334 -30.5 -74.001 -30.5s-53.334 10.167 -74.001 30.5s-31 45.166 -31 74.499c0 28.667 10.333 53.167 31 73.5s45.334 30.5 74.001 30.5s53.334 -10.167 74.001 -30.5zM858 1337.5
c20.667 -20.333 31 -44.833 31 -73.5c0 -29.333 -10.333 -54.166 -31 -74.499s-45.334 -30.5 -74.001 -30.5s-53.334 10.167 -74.001 30.5s-31 45.166 -31 74.499c0 28.667 10.333 53.167 31 73.5s45.334 30.5 74.001 30.5s53.334 -10.167 74.001 -30.5z" />
    <glyph glyph-name="aring" unicode="&#xe5;" horiz-adv-x="1317" 
d="M1040 422v158.998c-14 75.333 -50 142 -108 200c-77.333 77.333 -170.666 116 -279.999 116s-202.666 -38.667 -279.999 -116s-116 -170.666 -116 -279.999s38.667 -202.333 116 -279s170.666 -115 279.999 -115s202.666 38.333 279.999 115
c58 58.667 94 125.334 108 200.001zM647 1138c-8.66699 0 -16.167 -3 -22.5 -9s-9.5 -13.333 -9.5 -22c0 -8 3.16699 -15.167 9.5 -21.5s13.833 -9.5 22.5 -9.5c8 0 15 3.16699 21 9.5s9 13.5 9 21.5c0 8.66699 -3 16 -9 22s-13 9 -21 9zM741 1012l2 -0.000976562
c96.667 0 191 -45.667 283 -137l14 -11v83h127v-947h-127v139c3.33301 4.66699 5 7.33398 5 8.00098c-1.33301 0 -7.66602 -6 -18.999 -18c-103.333 -103.333 -228 -155 -374 -155c-145.333 0 -269.5 51.5 -372.5 154.5s-154.5 227.167 -154.5 372.5
c0 146 51.667 270.667 155 374c89.333 89.333 179.666 135 270.999 137c-26.667 26.667 -40 58.334 -40 95.001c0 37.333 13.333 69.166 40 95.499s58.667 39.5 96 39.5c36.667 0 68.167 -13.167 94.5 -39.5s39.5 -58.166 39.5 -95.499
c0 -36.667 -13.333 -68.334 -40 -95.001z" />
    <glyph glyph-name="ae" unicode="&#xe6;" horiz-adv-x="2057" 
d="M965 691c-17.333 32 -40 61.998 -68 89.998c-77.333 77.333 -170.666 116 -279.999 116s-202.666 -38.667 -279.999 -116s-116 -170.666 -116 -279.999s38.667 -202.333 116 -279s170.666 -115 279.999 -115s202.666 38.333 279.999 115c28 28 50.667 58 68 90
c19.333 34.667 32.666 71 39.999 109v160c-7.33301 38.667 -20.666 75.334 -39.999 110.001zM1814 653.998c-12 40.667 -40.334 83 -85.001 127c-76.667 77.333 -169.667 116 -279 116s-202.666 -38.667 -279.999 -116c-16 -16 -28.667 -30 -38 -42v-85h682zM1132 264.998
c9.33301 -13.333 22.002 -27.333 38.002 -42c77.333 -77.333 170.666 -116 279.999 -116s202.333 38.333 279 115c14 14 30 32.333 48 55l129 -45c-20.667 -34.667 -48.334 -69 -83.001 -103c-102.667 -103.333 -227 -155 -373 -155c-137.333 0 -243.333 34.667 -318 104
v-78h-127v139c-112.667 -110 -242 -165 -388 -165c-145.333 0 -269.5 51.5 -372.5 154.5s-154.5 227.167 -154.5 372.5c0 146 51.5 270.5 154.5 373.5s227.167 154.5 372.5 154.5c146 0 275.333 -55 388 -165v83h127v-21c74.667 68.667 180.667 103 318 103
c146 0 270.333 -51.333 373 -154c91.333 -92 139 -208.333 143 -349l-834 1v-262z" />
    <glyph glyph-name="ccedilla" unicode="&#xe7;" 
d="M551 -23c-108 5.33301 -210 55.9961 -306 151.996c-103.333 102.667 -155 227 -155 373c0 145.333 51.5 269.5 154.5 372.5s227.167 154.5 372.5 154.5c146 0 270.667 -51.333 374 -154c20.667 -21.333 45 -51 73 -89l-129 -48c-15.333 18.667 -28 33.334 -38 44.001
c-77.333 76.667 -170.666 115 -279.999 115c-108.667 0 -201.667 -38.5 -279 -115.5s-116 -170.167 -116 -279.5s38.667 -202.5 116 -279.5s170.333 -115.5 279 -115.5c109.333 0 202.666 38.333 279.999 115c10 10 22.667 24.333 38 43l129 -46
c-28 -39.333 -52.333 -69.333 -73 -90c-84 -83.333 -175.333 -125 -274 -125c-10.667 0 -21.334 0.333008 -32.001 1c49.333 -10 82.166 -24.667 98.499 -44s24.5 -37.666 24.5 -54.999c0 -19.333 -5.33301 -38.666 -16 -57.999c-20 -37.333 -46.667 -62 -80 -74
c-26.667 -8.66699 -54 -13 -82 -13h-15c-36.667 2 -74 15.333 -112 40l70 62c12.667 -4.66699 25 -7.66699 37 -9h7c10.667 0 21.667 1.66699 33 5c10.667 3.33301 18.334 9.33301 23.001 18c0.666992 2.66699 1 5.33398 1 8.00098c0 4.66699 -1.66699 9 -5 13
c-5.33301 6 -15 10 -29 12c-6.66699 0.666992 -14.667 1 -24 1c-17.333 0 -53.666 -2.66699 -108.999 -8z" />
    <glyph glyph-name="egrave" unicode="&#xe8;" horiz-adv-x="1243" 
d="M371 192c62.667 -56.667 144.669 -85 246.002 -85c109.333 0 202.666 38.333 279.999 115c10 10 22.667 24.333 38 43l129 -46c-28 -39.333 -52.333 -69.333 -73 -90c-103.333 -103.333 -228 -155 -374 -155c-145.333 0 -269.5 51.5 -372.5 154.5
s-154.5 227.5 -154.5 373.5c0 145.333 51.5 269.5 154.5 372.5s227.167 154.5 372.5 154.5c124.667 0 234 -37.333 328 -112c15.333 -12.667 30.666 -26.667 45.999 -42l30 -33l-77 -77zM834.002 834c-54.667 42 -127 63 -217 63c-108.667 0 -201.667 -38.5 -279 -115.5
s-116 -170.167 -116 -279.5c0 -90 21 -162.333 63 -217zM573.002 1328l188 -216h-133l-283 216h228z" />
    <glyph glyph-name="eacute" unicode="&#xe9;" horiz-adv-x="1243" 
d="M371 192c62.667 -56.667 144.669 -85 246.002 -85c109.333 0 202.666 38.333 279.999 115c10 10 22.667 24.333 38 43l129 -46c-28 -39.333 -52.333 -69.333 -73 -90c-103.333 -103.333 -228 -155 -374 -155c-145.333 0 -269.5 51.5 -372.5 154.5
s-154.5 227.5 -154.5 373.5c0 145.333 51.5 269.5 154.5 372.5s227.167 154.5 372.5 154.5c124.667 0 234 -37.333 328 -112c15.333 -12.667 30.666 -26.667 45.999 -42l30 -33l-77 -77zM834.002 834c-54.667 42 -127 63 -217 63c-108.667 0 -201.667 -38.5 -279 -115.5
s-116 -170.167 -116 -279.5c0 -90 21 -162.333 63 -217zM878.002 1328l-283 -216h-133l188 216h228z" />
    <glyph glyph-name="ecircumflex" unicode="&#xea;" horiz-adv-x="1243" 
d="M371 192c62.667 -56.667 144.669 -85 246.002 -85c109.333 0 202.666 38.333 279.999 115c10 10 22.667 24.333 38 43l129 -46c-28 -39.333 -52.333 -69.333 -73 -90c-103.333 -103.333 -228 -155 -374 -155c-145.333 0 -269.5 51.5 -372.5 154.5
s-154.5 227.5 -154.5 373.5c0 145.333 51.5 269.5 154.5 372.5s227.167 154.5 372.5 154.5c124.667 0 234 -37.333 328 -112c15.333 -12.667 30.666 -26.667 45.999 -42l30 -33l-77 -77zM834.002 834c-54.667 42 -127 63 -217 63c-108.667 0 -201.667 -38.5 -279 -115.5
s-116 -170.167 -116 -279.5c0 -90 21 -162.333 63 -217zM666.002 1362l263 -259h-157l-163 125l-154 -125h-157l254 259h114z" />
    <glyph glyph-name="edieresis" unicode="&#xeb;" horiz-adv-x="1243" 
d="M371 192c62.667 -56.667 144.669 -85 246.002 -85c109.333 0 202.666 38.333 279.999 115c10 10 22.667 24.333 38 43l129 -46c-28 -39.333 -52.333 -69.333 -73 -90c-103.333 -103.333 -228 -155 -374 -155c-145.333 0 -269.5 51.5 -372.5 154.5
s-154.5 227.5 -154.5 373.5c0 145.333 51.5 269.5 154.5 372.5s227.167 154.5 372.5 154.5c124.667 0 234 -37.333 328 -112c15.333 -12.667 30.666 -26.667 45.999 -42l30 -33l-77 -77zM834.002 834c-54.667 42 -127 63 -217 63c-108.667 0 -201.667 -38.5 -279 -115.5
s-116 -170.167 -116 -279.5c0 -90 21 -162.333 63 -217zM547.502 1337.5c20.333 -20.333 30.5 -44.833 30.5 -73.5c0 -29.333 -10.167 -54.166 -30.5 -74.499s-44.833 -30.5 -73.5 -30.5s-53.334 10.167 -74.001 30.5s-31 45.166 -31 74.499c0 28.667 10.333 53.167 31 73.5
s45.334 30.5 74.001 30.5s53.167 -10.167 73.5 -30.5zM823.502 1337.5c20.333 -20.333 30.5 -44.833 30.5 -73.5c0 -29.333 -10.167 -54.166 -30.5 -74.499s-44.833 -30.5 -73.5 -30.5s-53.334 10.167 -74.001 30.5s-31 45.166 -31 74.499c0 28.667 10.333 53.167 31 73.5
s45.334 30.5 74.001 30.5s53.167 -10.167 73.5 -30.5z" />
    <glyph glyph-name="igrave" unicode="&#xec;" horiz-adv-x="512" 
d="M320 947v-947h-126v947h126zM154 1328l188 -216h-133l-283 216h228z" />
    <glyph glyph-name="iacute" unicode="&#xed;" horiz-adv-x="512" 
d="M319 947v-947h-127v947h127zM586 1328l-283 -216h-133l188 216h228z" />
    <glyph glyph-name="icircumflex" unicode="&#xee;" horiz-adv-x="490" 
d="M308 947v-947h-127v947h127zM298 1362l263 -259h-157l-163 125l-154 -125h-157l254 259h114z" />
    <glyph glyph-name="idieresis" unicode="&#xef;" horiz-adv-x="436" 
d="M281 947v-947h-127v947h127zM154 1337.5c20.667 -20.333 31 -44.833 31 -73.5c0 -29.333 -10.333 -54.166 -31 -74.499s-45.334 -30.5 -74.001 -30.5s-53.334 10.167 -74.001 30.5s-31 45.166 -31 74.499c0 28.667 10.333 53.167 31 73.5s45.334 30.5 74.001 30.5
s53.334 -10.167 74.001 -30.5zM430 1337.5c20.667 -20.333 31 -44.833 31 -73.5c0 -29.333 -10.333 -54.166 -31 -74.499s-45.334 -30.5 -74.001 -30.5s-53.334 10.167 -74.001 30.5s-31 45.166 -31 74.499c0 28.667 10.333 53.167 31 73.5s45.334 30.5 74.001 30.5
s53.334 -10.167 74.001 -30.5z" />
    <glyph glyph-name="eth" unicode="&#xf0;" horiz-adv-x="1234" 
d="M221 501c0 -109.333 38.667 -202.333 116 -279s170.666 -115 279.999 -115s202.666 38.333 279.999 115s116 169.667 116 279s-38.667 202.666 -116 279.999s-170.666 116 -279.999 116s-202.666 -38.667 -279.999 -116s-116 -170.666 -116 -279.999zM924 932
c22.667 -16.667 45 -35.667 67 -57c102 -103.333 153 -228 153 -374c0 -145.333 -51.333 -269.5 -154 -372.5s-227 -154.5 -373 -154.5c-145.333 0 -269.5 51.5 -372.5 154.5s-154.5 227.167 -154.5 372.5c0 146 51.5 270.5 154.5 373.5s229.167 155.5 378.5 157.5l-6 6
h-166v127h52l-96 105h177l106 -105h163v-127h-35z" />
    <glyph glyph-name="ntilde" unicode="&#xf1;" horiz-adv-x="1053" 
d="M277 719v-719.001h-127v947h127v-27c54.667 54.667 135 82 241 82c112.667 0 204.5 -35.667 275.5 -107s107.5 -160.666 109.5 -267.999v-627h-126v619c0 70.667 -25.667 131 -77 181s-112 75 -182 75s-130.667 -24.667 -182 -74c-28 -28 -47.667 -55.333 -59 -82z
M535 1294c42 -34 75.667 -51 101 -51h4c19.333 1.33301 35 27.333 47 78h107c-17.333 -105.333 -54.333 -166.333 -111 -183c-14.667 -4.66699 -29.667 -7 -45 -7c-40 0 -79.667 15.667 -119 47c-42 33.333 -75.333 50 -100 50h-4c-20 -1.33301 -36 -27 -48 -77h-108
c18 105.333 55.333 166.333 112 183c14.667 4 29.667 6 45 6c40 0 79.667 -15.333 119 -46z" />
    <glyph glyph-name="ograve" unicode="&#xf2;" horiz-adv-x="1234" 
d="M617 1029c146 0 270.333 -51.5 373 -154.5s154 -227.5 154 -373.5c0 -145.333 -51.333 -269.5 -154 -372.5s-227 -154.5 -373 -154.5c-145.333 0 -269.5 51.5 -372.5 154.5s-154.5 227.167 -154.5 372.5c0 146 51.5 270.5 154.5 373.5s227.167 154.5 372.5 154.5z
M337 781c-77.333 -77.333 -116 -170.666 -116 -279.999s38.667 -202.333 116 -279s170.666 -115 279.999 -115s202.666 38.333 279.999 115s116 169.667 116 279s-38.667 202.666 -116 279.999s-170.666 116 -279.999 116s-202.666 -38.667 -279.999 -116zM578 1328
l189 -216h-133l-283 216h227z" />
    <glyph glyph-name="oacute" unicode="&#xf3;" horiz-adv-x="1234" 
d="M617 1029c146 0 270.333 -51.5 373 -154.5s154 -227.5 154 -373.5c0 -145.333 -51.333 -269.5 -154 -372.5s-227 -154.5 -373 -154.5c-145.333 0 -269.5 51.5 -372.5 154.5s-154.5 227.167 -154.5 372.5c0 146 51.5 270.5 154.5 373.5s227.167 154.5 372.5 154.5z
M337 781c-77.333 -77.333 -116 -170.666 -116 -279.999s38.667 -202.333 116 -279s170.666 -115 279.999 -115s202.666 38.333 279.999 115s116 169.667 116 279s-38.667 202.666 -116 279.999s-170.666 116 -279.999 116s-202.666 -38.667 -279.999 -116zM884 1328
l-283 -216h-133l188 216h228z" />
    <glyph glyph-name="ocircumflex" unicode="&#xf4;" horiz-adv-x="1234" 
d="M617 1029c146 0 270.333 -51.5 373 -154.5s154 -227.5 154 -373.5c0 -145.333 -51.333 -269.5 -154 -372.5s-227 -154.5 -373 -154.5c-145.333 0 -269.5 51.5 -372.5 154.5s-154.5 227.167 -154.5 372.5c0 146 51.5 270.5 154.5 373.5s227.167 154.5 372.5 154.5z
M337 781c-77.333 -77.333 -116 -170.666 -116 -279.999s38.667 -202.333 116 -279s170.666 -115 279.999 -115s202.666 38.333 279.999 115s116 169.667 116 279s-38.667 202.666 -116 279.999s-170.666 116 -279.999 116s-202.666 -38.667 -279.999 -116zM671 1362
l264 -259h-157l-163 125l-155 -125h-157l254 259h114z" />
    <glyph glyph-name="otilde" unicode="&#xf5;" horiz-adv-x="1234" 
d="M617 1029c146 0 270.333 -51.5 373 -154.5s154 -227.5 154 -373.5c0 -145.333 -51.333 -269.5 -154 -372.5s-227 -154.5 -373 -154.5c-145.333 0 -269.5 51.5 -372.5 154.5s-154.5 227.167 -154.5 372.5c0 146 51.5 270.5 154.5 373.5s227.167 154.5 372.5 154.5z
M337 781c-77.333 -77.333 -116 -170.666 -116 -279.999s38.667 -202.333 116 -279s170.666 -115 279.999 -115s202.666 38.333 279.999 115s116 169.667 116 279s-38.667 202.666 -116 279.999s-170.666 116 -279.999 116s-202.666 -38.667 -279.999 -116zM626 1294
c42 -34 75.667 -51 101 -51h4c19.333 1.33301 35 27.333 47 78h107c-17.333 -105.333 -54.333 -166.333 -111 -183c-14.667 -4.66699 -29.667 -7 -45 -7c-40 0 -79.667 15.667 -119 47c-42 33.333 -75.667 50 -101 50h-4c-19.333 -1.33301 -35 -27 -47 -77h-108
c18 105.333 55.333 166.333 112 183c14.667 4 29.667 6 45 6c40 0 79.667 -15.333 119 -46z" />
    <glyph glyph-name="odieresis" unicode="&#xf6;" horiz-adv-x="1234" 
d="M617 1029c146 0 270.333 -51.5 373 -154.5s154 -227.5 154 -373.5c0 -145.333 -51.333 -269.5 -154 -372.5s-227 -154.5 -373 -154.5c-145.333 0 -269.5 51.5 -372.5 154.5s-154.5 227.167 -154.5 372.5c0 146 51.5 270.5 154.5 373.5s227.167 154.5 372.5 154.5z
M337 781c-77.333 -77.333 -116 -170.666 -116 -279.999s38.667 -202.333 116 -279s170.666 -115 279.999 -115s202.666 38.333 279.999 115s116 169.667 116 279s-38.667 202.666 -116 279.999s-170.666 116 -279.999 116s-202.666 -38.667 -279.999 -116zM553 1337.5
c20.667 -20.333 31 -44.833 31 -73.5c0 -29.333 -10.333 -54.166 -31 -74.499s-45.334 -30.5 -74.001 -30.5s-53.334 10.167 -74.001 30.5s-31 45.166 -31 74.499c0 28.667 10.333 53.167 31 73.5s45.334 30.5 74.001 30.5s53.334 -10.167 74.001 -30.5zM829 1337.5
c20.667 -20.333 31 -44.833 31 -73.5c0 -29.333 -10.333 -54.166 -31 -74.499s-45.334 -30.5 -74.001 -30.5s-53.334 10.167 -74.001 30.5s-31 45.166 -31 74.499c0 28.667 10.333 53.167 31 73.5s45.334 30.5 74.001 30.5s53.334 -10.167 74.001 -30.5z" />
    <glyph glyph-name="divide" unicode="&#xf7;" horiz-adv-x="1030" 
d="M125 650h780v-127h-780v127zM589 894.5c20.667 -20.333 31 -44.833 31 -73.5c0 -29.333 -10.333 -54.166 -31 -74.499s-45.334 -30.5 -74.001 -30.5s-53.334 10.167 -74.001 30.5s-31 45.166 -31 74.499c0 28.667 10.333 53.167 31 73.5s45.334 30.5 74.001 30.5
s53.334 -10.167 74.001 -30.5zM589 426.5c20.667 -20.333 31 -44.833 31 -73.5c0 -29.333 -10.333 -54.166 -31 -74.499s-45.334 -30.5 -74.001 -30.5s-53.334 10.167 -74.001 30.5s-31 45.166 -31 74.499c0 28.667 10.333 53.167 31 73.5s45.334 30.5 74.001 30.5
s53.334 -10.167 74.001 -30.5z" />
    <glyph glyph-name="oslash" unicode="&#xf8;" horiz-adv-x="1234" 
d="M759 874c-35.333 16 -82.668 23.999 -142.001 23.999c-109.333 0 -202.666 -38.667 -279.999 -116s-116 -170.666 -116 -279.999s38.667 -202.333 116 -279c16 -16 26 -25.333 30 -28zM867.998 809.999l-392.998 -678.999c35.333 -16 82.666 -24 141.999 -24
c109.333 0 202.666 38.5 279.999 115.5s116 170.167 116 279.5s-38.667 202.666 -116 279.999c-16 16 -25.667 25.333 -29 28zM301 80c-14.667 10 -33.334 26.667 -56.001 50c-103.333 102.667 -155 226.667 -155 372c0 146 51.5 270.5 154.5 373.5
s227.167 154.5 372.5 154.5c82.667 0 152.334 -13.667 209.001 -41l113 196l112 -58l-117 -202c14.667 -10 33.667 -26.333 57 -49c102 -103.333 153 -228 153 -374c0 -145.333 -51.333 -269.5 -154 -372.5s-227 -154.5 -373 -154.5c-82.667 0 -152 13.667 -208 41
l-113 -196l-113 54z" />
    <glyph glyph-name="ugrave" unicode="&#xf9;" horiz-adv-x="1079" 
d="M545 -13c-119.333 0 -214.5 35.5 -285.5 106.5s-107.5 160.5 -109.5 268.5v587h127v-579c0 -70.667 25.667 -130.667 77 -180c50.667 -50.667 114 -76 190 -76c70 0 130.5 25 181.5 75s76.5 110.333 76.5 181v579h127v-587c-2 -108 -38.333 -197.333 -109 -268
c-71.333 -71.333 -163 -107 -275 -107zM500 1328l189 -216h-133l-283 216h227z" />
    <glyph glyph-name="uacute" unicode="&#xfa;" horiz-adv-x="1079" 
d="M545 -13c-119.333 0 -214.5 35.5 -285.5 106.5s-107.5 160.5 -109.5 268.5v587h127v-579c0 -70.667 25.667 -130.667 77 -180c50.667 -50.667 114 -76 190 -76c70 0 130.5 25 181.5 75s76.5 110.333 76.5 181v579h127v-587c-2 -108 -38.333 -197.333 -109 -268
c-71.333 -71.333 -163 -107 -275 -107zM807 1328l-283 -216h-134l189 216h228z" />
    <glyph glyph-name="ucircumflex" unicode="&#xfb;" horiz-adv-x="1079" 
d="M545 -13c-119.333 0 -214.5 35.5 -285.5 106.5s-107.5 160.5 -109.5 268.5v587h127v-579c0 -70.667 25.667 -130.667 77 -180c50.667 -50.667 114 -76 190 -76c70 0 130.5 25 181.5 75s76.5 110.333 76.5 181v579h127v-587c-2 -108 -38.333 -197.333 -109 -268
c-71.333 -71.333 -163 -107 -275 -107zM593 1362l264 -259h-157l-163 125l-155 -125h-157l254 259h114z" />
    <glyph glyph-name="udieresis" unicode="&#xfc;" horiz-adv-x="1079" 
d="M545 -13c-119.333 0 -214.5 35.5 -285.5 106.5s-107.5 160.5 -109.5 268.5v587h127v-579c0 -70.667 25.667 -130.667 77 -180c50.667 -50.667 114 -76 190 -76c70 0 130.5 25 181.5 75s76.5 110.333 76.5 181v579h127v-587c-2 -108 -38.333 -197.333 -109 -268
c-71.333 -71.333 -163 -107 -275 -107zM476 1337.5c20.667 -20.333 31 -44.833 31 -73.5c0 -29.333 -10.333 -54.166 -31 -74.499s-45.334 -30.5 -74.001 -30.5s-53.334 10.167 -74.001 30.5s-31 45.166 -31 74.499c0 28.667 10.333 53.167 31 73.5s45.334 30.5 74.001 30.5
s53.334 -10.167 74.001 -30.5zM752 1337.5c20.667 -20.333 31 -44.833 31 -73.5c0 -29.333 -10.333 -54.166 -31 -74.499s-45.334 -30.5 -74.001 -30.5s-53.334 10.167 -74.001 30.5s-31 45.166 -31 74.499c0 28.667 10.333 53.167 31 73.5s45.334 30.5 74.001 30.5
s53.334 -10.167 74.001 -30.5z" />
    <glyph glyph-name="yacute" unicode="&#xfd;" horiz-adv-x="1007" 
d="M482 6l-169 -351h-129l254 534l-363 758h143l286 -617l286 617h141l-449 -942v1zM770 1328l-283 -216h-133l188 216h228z" />
    <glyph glyph-name="thorn" unicode="&#xfe;" horiz-adv-x="1292" 
d="M256 602v-200.997c16 -66.667 50.667 -126.334 104 -179.001c77.333 -77.333 170.666 -116 279.999 -116c108.667 0 201.667 38.5 279 115.5s116 170.167 116 279.5s-38.667 202.666 -116 279.999s-170.333 116 -279 116c-109.333 0 -202.666 -38.667 -279.999 -116
c-53.333 -52.667 -88 -112.334 -104 -179.001zM256 869.003c110.667 106 238.667 159 384 159s269.5 -51.333 372.5 -154s154.5 -227 154.5 -373c0 -145.333 -51.5 -269.5 -154.5 -372.5s-227.167 -154.5 -372.5 -154.5s-273.333 53.333 -384 160v-463h-127v1661h127v-463z
" />
    <glyph glyph-name="ydieresis" unicode="&#xff;" horiz-adv-x="1007" 
d="M482 6l-169 -351h-129l254 534l-363 758h143l286 -617l286 617h141l-449 -942v1zM439.5 1337.5c20.333 -20.333 30.5 -44.833 30.5 -73.5c0 -29.333 -10.167 -54.166 -30.5 -74.499s-44.833 -30.5 -73.5 -30.5s-53.334 10.167 -74.001 30.5s-31 45.166 -31 74.499
c0 28.667 10.333 53.167 31 73.5s45.334 30.5 74.001 30.5s53.167 -10.167 73.5 -30.5zM715.5 1337.5c20.333 -20.333 30.5 -44.833 30.5 -73.5c0 -29.333 -10.167 -54.166 -30.5 -74.499s-44.833 -30.5 -73.5 -30.5s-53.334 10.167 -74.001 30.5s-31 45.166 -31 74.499
c0 28.667 10.333 53.167 31 73.5s45.334 30.5 74.001 30.5s53.167 -10.167 73.5 -30.5z" />
    <glyph glyph-name="Amacron" unicode="&#x100;" horiz-adv-x="1259" 
d="M823 691l-193 531l-193 -531h386zM869 564h-479l-205 -564h-135l580 1592l579 -1592h-135zM336 1791h587v-109h-587v109z" />
    <glyph glyph-name="amacron" unicode="&#x101;" horiz-adv-x="1317" 
d="M1167 0h-127v139c-112.667 -110 -242 -165 -388 -165c-145.333 0 -269.5 51.5 -372.5 154.5s-154.5 227.167 -154.5 372.5c0 146 51.5 270.5 154.5 373.5s227.167 154.5 372.5 154.5c146 0 275.333 -55 388 -165v83h127v-947zM1040 422v158.998
c-14 75.333 -50 142 -108 200c-77.333 77.333 -170.666 116 -279.999 116s-202.666 -38.667 -279.999 -116s-116 -170.666 -116 -279.999s38.667 -202.333 116 -279s170.666 -115 279.999 -115s202.666 38.333 279.999 115c58 58.667 94 125.334 108 200.001zM353 1273h587
v-109h-587v109z" />
    <glyph glyph-name="Abreve" unicode="&#x102;" horiz-adv-x="1259" 
d="M823 691l-193 531l-193 -531h386zM869 564h-479l-205 -564h-135l580 1592l579 -1592h-135zM499 1893c6 -40 19.002 -70 39.002 -90c25.333 -25.333 55.666 -38 90.999 -38s65.666 12.667 90.999 38c20 20 32.667 50 38 90h111c-7.33301 -72 -31 -128.333 -71 -169
c-46 -46.667 -102.333 -70 -169 -70s-123 23.333 -169 70c-44 44.667 -67.667 101 -71 169h110z" />
    <glyph glyph-name="abreve" unicode="&#x103;" horiz-adv-x="1317" 
d="M1167 0h-127v139c-112.667 -110 -242 -165 -388 -165c-145.333 0 -269.5 51.5 -372.5 154.5s-154.5 227.167 -154.5 372.5c0 146 51.5 270.5 154.5 373.5s227.167 154.5 372.5 154.5c146 0 275.333 -55 388 -165v83h127v-947zM1040 422v158.998
c-14 75.333 -50 142 -108 200c-77.333 77.333 -170.666 116 -279.999 116s-202.666 -38.667 -279.999 -116s-116 -170.666 -116 -279.999s38.667 -202.333 116 -279s170.666 -115 279.999 -115s202.666 38.333 279.999 115c58 58.667 94 125.334 108 200.001zM516 1375
c6 -40 19.002 -70 39.002 -90c25.333 -25.333 55.666 -38 90.999 -38s65.666 12.667 90.999 38c20 20 32.667 50 38 90h111c-7.33301 -72 -31 -128.333 -71 -169c-46 -46.667 -102.333 -70 -169 -70s-123 23.333 -169 70c-44 44.667 -67.667 101 -71 169h110z" />
    <glyph glyph-name="Aogonek" unicode="&#x104;" horiz-adv-x="1259" 
d="M823 691l-193 531l-193 -531h386zM1045 79l-176.001 484.999h-479l-205 -564h-135l580 1592l579 -1592h-135c-32 -14 -53.667 -26.667 -65 -38c-14 -14 -21 -30.667 -21 -50l1 -1c0 -20 7 -37.333 21 -52c14 -13.333 29.667 -20 47 -20s44.333 14 81 42l39 -88l-13 -14
c-28.667 -28 -64.667 -42 -108 -42h-3c-44 0 -82.667 16.333 -116 49c-34 34 -51 74.667 -51 122c0 0.666992 0.333008 1.33398 1 2.00098c0 48 17 89 51 123c28.667 28.667 64.334 44 107.001 46z" />
    <glyph glyph-name="aogonek" unicode="&#x105;" horiz-adv-x="1317" 
d="M1040 422v158.998c-14 75.333 -50 142 -108 200c-77.333 77.333 -170.666 116 -279.999 116s-202.666 -38.667 -279.999 -116s-116 -170.666 -116 -279.999s38.667 -202.333 116 -279s170.666 -115 279.999 -115s202.666 38.333 279.999 115
c58 58.667 94 125.334 108 200.001zM1040 71.998v67c-112.667 -110 -242 -165 -388 -165c-145.333 0 -269.5 51.5 -372.5 154.5s-154.5 227.167 -154.5 372.5c0 146 51.5 270.5 154.5 373.5s227.167 154.5 372.5 154.5c146 0 275.333 -55 388 -165v83h127v-947h-56
c-32 -14.667 -53.333 -27.334 -64 -38.001c-14 -14 -21 -30.667 -21 -50l1 -1c0 -20 7 -37.333 21 -52c14 -13.333 29.667 -20 47 -20s44.333 14 81 42l39 -88l-13 -14c-28.667 -28 -64.667 -42 -108 -42h-3c-44 0 -82.667 16.333 -116 49c-34 34 -51 74.667 -51 122
c0 0.666992 0.333008 1.33398 1 2.00098c0 48 17 89 51 123c18.667 18.667 40 31.667 64 39z" />
    <glyph glyph-name="Cacute" unicode="&#x106;" horiz-adv-x="1540" 
d="M1345 286l95 -85.001c-159.333 -145.333 -339.333 -218 -540 -218c-214 0 -396.667 75.5 -548 226.5s-227 333.833 -227 548.5c0 214 75.667 396.667 227 548s334 227 548 227c200.667 0 380.667 -72.333 540 -217l-95 -87c-132 117.333 -280.333 176 -445 176
c-178 0 -330.167 -63.167 -456.5 -189.5s-189.5 -278.833 -189.5 -457.5c0 -179.333 63.167 -332.166 189.5 -458.499s278.5 -189.5 456.5 -189.5c164.667 0 313 58.667 445 176zM1060 1846l-283 -216h-133l188 216h228z" />
    <glyph glyph-name="cacute" unicode="&#x107;" 
d="M935 265l129 -46.001c-28 -39.333 -52.333 -69.333 -73 -90c-103.333 -103.333 -228 -155 -374 -155c-145.333 0 -269.5 51.5 -372.5 154.5s-154.5 227.5 -154.5 373.5c0 145.333 51.5 269.5 154.5 372.5s227.167 154.5 372.5 154.5c146 0 270.667 -51.333 374 -154
c20.667 -21.333 45 -51 73 -89l-129 -48c-15.333 18.667 -28 33.334 -38 44.001c-77.333 76.667 -170.666 115 -279.999 115c-108.667 0 -201.667 -38.5 -279 -115.5s-116 -170.167 -116 -279.5s38.667 -202.5 116 -279.5s170.333 -115.5 279 -115.5
c109.333 0 202.666 38.333 279.999 115c10 10 22.667 24.333 38 43zM855 1328l-283 -216h-133l188 216h228z" />
    <glyph glyph-name="Ccircumflex" unicode="&#x108;" horiz-adv-x="1540" 
d="M1345 286l95 -85.001c-159.333 -145.333 -339.333 -218 -540 -218c-214 0 -396.667 75.5 -548 226.5s-227 333.833 -227 548.5c0 214 75.667 396.667 227 548s334 227 548 227c200.667 0 380.667 -72.333 540 -217l-95 -87c-132 117.333 -280.333 176 -445 176
c-178 0 -330.167 -63.167 -456.5 -189.5s-189.5 -278.833 -189.5 -457.5c0 -179.333 63.167 -332.166 189.5 -458.499s278.5 -189.5 456.5 -189.5c164.667 0 313 58.667 445 176zM935 1880l263 -259h-157l-163 125l-154 -125h-157l254 259h114z" />
    <glyph glyph-name="ccircumflex" unicode="&#x109;" 
d="M935 265l129 -46.001c-28 -39.333 -52.333 -69.333 -73 -90c-103.333 -103.333 -228 -155 -374 -155c-145.333 0 -269.5 51.5 -372.5 154.5s-154.5 227.5 -154.5 373.5c0 145.333 51.5 269.5 154.5 372.5s227.167 154.5 372.5 154.5c146 0 270.667 -51.333 374 -154
c20.667 -21.333 45 -51 73 -89l-129 -48c-15.333 18.667 -28 33.334 -38 44.001c-77.333 76.667 -170.666 115 -279.999 115c-108.667 0 -201.667 -38.5 -279 -115.5s-116 -170.167 -116 -279.5s38.667 -202.5 116 -279.5s170.333 -115.5 279 -115.5
c109.333 0 202.666 38.333 279.999 115c10 10 22.667 24.333 38 43zM660 1362l263 -259h-157l-163 125l-154 -125h-157l254 259h114z" />
    <glyph glyph-name="Cdotaccent" unicode="&#x10a;" horiz-adv-x="1540" 
d="M1345 286l95 -85.001c-159.333 -145.333 -339.333 -218 -540 -218c-214 0 -396.667 75.5 -548 226.5s-227 333.833 -227 548.5c0 214 75.667 396.667 227 548s334 227 548 227c200.667 0 380.667 -72.333 540 -217l-95 -87c-132 117.333 -280.333 176 -445 176
c-178 0 -330.167 -63.167 -456.5 -189.5s-189.5 -278.833 -189.5 -457.5c0 -179.333 63.167 -332.166 189.5 -458.499s278.5 -189.5 456.5 -189.5c164.667 0 313 58.667 445 176zM947.5 1784.5c18.333 -17.667 27.5 -39.5 27.5 -65.5s-9.16699 -47.833 -27.5 -65.5
s-39.833 -26.5 -64.5 -26.5c-26 0 -48 8.83301 -66 26.5s-27 39.5 -27 65.5s9 47.833 27 65.5s40 26.5 66 26.5c24.667 0 46.167 -8.83301 64.5 -26.5z" />
    <glyph glyph-name="cdotaccent" unicode="&#x10b;" 
d="M935 265l129 -46.001c-28 -39.333 -52.333 -69.333 -73 -90c-103.333 -103.333 -228 -155 -374 -155c-145.333 0 -269.5 51.5 -372.5 154.5s-154.5 227.5 -154.5 373.5c0 145.333 51.5 269.5 154.5 372.5s227.167 154.5 372.5 154.5c146 0 270.667 -51.333 374 -154
c20.667 -21.333 45 -51 73 -89l-129 -48c-15.333 18.667 -28 33.334 -38 44.001c-77.333 76.667 -170.666 115 -279.999 115c-108.667 0 -201.667 -38.5 -279 -115.5s-116 -170.167 -116 -279.5s38.667 -202.5 116 -279.5s170.333 -115.5 279 -115.5
c109.333 0 202.666 38.333 279.999 115c10 10 22.667 24.333 38 43zM642.5 1316.5c18.333 -17.667 27.5 -39.5 27.5 -65.5s-9.16699 -47.833 -27.5 -65.5s-39.833 -26.5 -64.5 -26.5c-26 0 -48 8.83301 -66 26.5s-27 39.5 -27 65.5s9 47.833 27 65.5s40 26.5 66 26.5
c24.667 0 46.167 -8.83301 64.5 -26.5z" />
    <glyph glyph-name="Ccaron" unicode="&#x10c;" horiz-adv-x="1540" 
d="M1345 286l95 -85.001c-159.333 -145.333 -339.333 -218 -540 -218c-214 0 -396.667 75.5 -548 226.5s-227 333.833 -227 548.5c0 214 75.667 396.667 227 548s334 227 548 227c200.667 0 380.667 -72.333 540 -217l-95 -87c-132 117.333 -280.333 176 -445 176
c-178 0 -330.167 -63.167 -456.5 -189.5s-189.5 -278.833 -189.5 -457.5c0 -179.333 63.167 -332.166 189.5 -458.499s278.5 -189.5 456.5 -189.5c164.667 0 313 58.667 445 176zM821 1621l-254 259h157l154 -125l163 125h157l-263 -259h-114z" />
    <glyph glyph-name="ccaron" unicode="&#x10d;" 
d="M935 265l129 -46.001c-28 -39.333 -52.333 -69.333 -73 -90c-103.333 -103.333 -228 -155 -374 -155c-145.333 0 -269.5 51.5 -372.5 154.5s-154.5 227.5 -154.5 373.5c0 145.333 51.5 269.5 154.5 372.5s227.167 154.5 372.5 154.5c146 0 270.667 -51.333 374 -154
c20.667 -21.333 45 -51 73 -89l-129 -48c-15.333 18.667 -28 33.334 -38 44.001c-77.333 76.667 -170.666 115 -279.999 115c-108.667 0 -201.667 -38.5 -279 -115.5s-116 -170.167 -116 -279.5s38.667 -202.5 116 -279.5s170.333 -115.5 279 -115.5
c109.333 0 202.666 38.333 279.999 115c10 10 22.667 24.333 38 43zM556 1103l-254 259h157l154 -125l163 125h157l-263 -259h-114z" />
    <glyph glyph-name="Dcaron" unicode="&#x10e;" horiz-adv-x="1167" 
d="M277 1386v-1256c202 0 359.333 56.667 472 170c126 126 189 278.667 189 458c0 178.667 -63 331.334 -189 458.001c-112.667 113.333 -270 170 -472 170zM277 1514h-16c248.667 0 441.667 -69 579 -207c151.333 -152 227 -335 227 -549
c0 -214.667 -75.667 -397.667 -227 -549c-137.333 -138 -330.333 -207 -579 -207h16v-2h-127v1516h127v-2zM547 1572l-254 259h157l154 -125l163 125h157l-263 -259h-114z" />
    <glyph glyph-name="dcaron" unicode="&#x10f;" horiz-adv-x="1420" 
d="M1167 0h-127v139c-112.667 -110 -242 -165 -388 -165c-145.333 0 -269.5 51.5 -372.5 154.5s-154.5 227.167 -154.5 372.5c0 146 51.5 270.5 154.5 373.5s227.167 154.5 372.5 154.5c146 0 275.333 -55 388 -165v652h127v-1516zM1040 422v158.998
c-14 75.333 -50 142 -108 200c-77.333 77.333 -170.666 116 -279.999 116s-202.666 -38.667 -279.999 -116s-116 -170.666 -116 -279.999s38.667 -202.333 116 -279s170.666 -115 279.999 -115s202.666 38.333 279.999 115c58 58.667 94 125.334 108 200.001zM1265 1326
c-2 0.666992 -9.66602 8 -22.999 22c-20.667 20 -31 44.667 -31 74s10.167 54 30.5 74s44.833 30 73.5 30c29.333 0 54.166 -10 74.499 -30s30.5 -44.667 30.5 -74c0 -15.333 -2.66699 -30.333 -8 -45l-97 -195h-105z" />
    <glyph glyph-name="Dcroat" unicode="&#x110;" horiz-adv-x="1239" 
d="M197 821v695h127v-2h-16c248.667 0 441.667 -69 579 -207c151.333 -152 227 -335 227 -549c0 -214.667 -75.667 -397.667 -227 -549c-137.333 -138 -330.333 -207 -579 -207h16v-2h-127v695h-147v126h147zM324 821l340 -0.000976562v-126h-340v-565
c202 0 359.333 56.667 472 170c126.667 126 190 278.667 190 458c0 178.667 -63.333 331.334 -190 458.001c-112.667 113.333 -270 170 -472 170v-565z" />
    <glyph glyph-name="dcroat" unicode="&#x111;" horiz-adv-x="1309" 
d="M1040 422v158.998c-14 75.333 -50 142 -108 200c-77.333 77.333 -170.666 116 -279.999 116s-202.666 -38.667 -279.999 -116s-116 -170.666 -116 -279.999s38.667 -202.333 116 -279s170.666 -115 279.999 -115s202.666 38.333 279.999 115
c58 58.667 94 125.334 108 200.001zM1167 1180v-1180h-127v139l-14 -10c-103.333 -103.333 -228 -155 -374 -155c-145.333 0 -269.5 51.5 -372.5 154.5s-154.5 227.167 -154.5 372.5c0 146 51.5 270.5 154.5 373.5s227.167 154.5 372.5 154.5
c146 0 270.667 -51.333 374 -154l14 -11v316h-267v127h267v209h127v-209h91v-127h-91z" />
    <glyph glyph-name="Emacron" unicode="&#x112;" horiz-adv-x="1055" 
d="M930 1516v-127h-653v-568h653v-126h-653v-568h653v-127h-780v1516h780zM247 1691h587v-109h-587v109z" />
    <glyph glyph-name="emacron" unicode="&#x113;" 
d="M371 192c62.667 -56.667 144.669 -85 246.002 -85c109.333 0 202.666 38.333 279.999 115c10 10 22.667 24.333 38 43l129 -46c-28 -39.333 -52.333 -69.333 -73 -90c-103.333 -103.333 -228 -155 -374 -155c-145.333 0 -269.5 51.5 -372.5 154.5
s-154.5 227.5 -154.5 373.5c0 145.333 51.5 269.5 154.5 372.5s227.167 154.5 372.5 154.5c124.667 0 234 -37.333 328 -112c15.333 -12.667 30.666 -26.667 45.999 -42l30 -33l-77 -77zM834.002 834c-54.667 42 -127 63 -217 63c-108.667 0 -201.667 -38.5 -279 -115.5
s-116 -170.167 -116 -279.5c0 -90 21 -162.333 63 -217zM284.002 1273h587v-109h-587v109z" />
    <glyph glyph-name="Ebreve" unicode="&#x114;" horiz-adv-x="1055" 
d="M930 1516v-127h-653v-568h653v-126h-653v-568h653v-127h-780v1516h780zM410 1813c6 -40 19.002 -70 39.002 -90c25.333 -25.333 55.666 -38 90.999 -38s65.666 12.667 90.999 38c20 20 32.667 50 38 90h111c-7.33301 -72 -31 -128.333 -71 -169
c-46 -46.667 -102.333 -70 -169 -70s-123 23.333 -169 70c-44 44.667 -67.667 101 -71 169h110z" />
    <glyph glyph-name="ebreve" unicode="&#x115;" 
d="M371 192c62.667 -56.667 144.669 -85 246.002 -85c109.333 0 202.666 38.333 279.999 115c10 10 22.667 24.333 38 43l129 -46c-28 -39.333 -52.333 -69.333 -73 -90c-103.333 -103.333 -228 -155 -374 -155c-145.333 0 -269.5 51.5 -372.5 154.5
s-154.5 227.5 -154.5 373.5c0 145.333 51.5 269.5 154.5 372.5s227.167 154.5 372.5 154.5c124.667 0 234 -37.333 328 -112c15.333 -12.667 30.666 -26.667 45.999 -42l30 -33l-77 -77zM834.002 834c-54.667 42 -127 63 -217 63c-108.667 0 -201.667 -38.5 -279 -115.5
s-116 -170.167 -116 -279.5c0 -90 21 -162.333 63 -217zM447.002 1375c6 -40 19.002 -70 39.002 -90c25.333 -25.333 55.666 -38 90.999 -38s65.666 12.667 90.999 38c20 20 32.667 50 38 90h111c-7.33301 -72 -31 -128.333 -71 -169c-46 -46.667 -102.333 -70 -169 -70
s-123 23.333 -169 70c-44 44.667 -67.667 101 -71 169h110z" />
    <glyph glyph-name="Edotaccent" unicode="&#x116;" horiz-adv-x="1055" 
d="M930 1516v-127h-653v-568h653v-126h-653v-568h653v-127h-780v1516h780zM605.5 1764.5c18.333 -17.667 27.5 -39.5 27.5 -65.5s-9.16699 -47.833 -27.5 -65.5s-39.833 -26.5 -64.5 -26.5c-26 0 -48 8.83301 -66 26.5s-27 39.5 -27 65.5s9 47.833 27 65.5s40 26.5 66 26.5
c24.667 0 46.167 -8.83301 64.5 -26.5z" />
    <glyph glyph-name="edotaccent" unicode="&#x117;" 
d="M371 192c62.667 -56.667 144.669 -85 246.002 -85c109.333 0 202.666 38.333 279.999 115c10 10 22.667 24.333 38 43l129 -46c-28 -39.333 -52.333 -69.333 -73 -90c-103.333 -103.333 -228 -155 -374 -155c-145.333 0 -269.5 51.5 -372.5 154.5
s-154.5 227.5 -154.5 373.5c0 145.333 51.5 269.5 154.5 372.5s227.167 154.5 372.5 154.5c124.667 0 234 -37.333 328 -112c15.333 -12.667 30.666 -26.667 45.999 -42l30 -33l-77 -77zM834.002 834c-54.667 42 -127 63 -217 63c-108.667 0 -201.667 -38.5 -279 -115.5
s-116 -170.167 -116 -279.5c0 -90 21 -162.333 63 -217zM642.502 1316.5c18.333 -17.667 27.5 -39.5 27.5 -65.5s-9.16699 -47.833 -27.5 -65.5s-39.833 -26.5 -64.5 -26.5c-26 0 -48 8.83301 -66 26.5s-27 39.5 -27 65.5s9 47.833 27 65.5s40 26.5 66 26.5
c24.667 0 46.167 -8.83301 64.5 -26.5z" />
    <glyph glyph-name="Eogonek" unicode="&#x118;" horiz-adv-x="1055" 
d="M633 0h-483v1516h780v-127h-653v-568h653v-126h-653v-568h653v-127h-136c-32 -14.667 -53.333 -27.334 -64 -38.001c-14 -14 -21 -30.667 -21 -50l1 -1c0 -20 7 -37.333 21 -52c14 -13.333 29.667 -20 47 -20s44.333 14 81 42l39 -88l-13 -14
c-28.667 -28 -64.667 -42 -108 -42h-3c-44 0 -82.667 16.333 -116 49c-34 34 -51 74.667 -51 122c0 0.666992 0.333008 1.33398 1 2.00098c0 33.333 8.33301 63.333 25 90z" />
    <glyph glyph-name="eogonek" unicode="&#x119;" 
d="M834 834c-54.667 42 -127 63 -217 63c-108.667 0 -201.667 -38.5 -279 -115.5s-116 -170.167 -116 -279.5c0 -90 21 -162.333 63 -217zM673 -23c-18.667 -2 -37.3311 -3.00098 -55.998 -3.00098c-145.333 0 -269.5 51.5 -372.5 154.5s-154.5 227.5 -154.5 373.5
c0 145.333 51.5 269.5 154.5 372.5s227.167 154.5 372.5 154.5c124.667 0 234 -37.333 328 -112c15.333 -12.667 30.666 -26.667 45.999 -42l30 -33l-77 -77l-573 -573c62.667 -56.667 144.667 -85 246 -85c109.333 0 202.666 38.333 279.999 115c10 10 22.667 24.333 38 43
l129 -46c-28 -39.333 -52.333 -69.333 -73 -90c-61.333 -61.333 -130 -104.333 -206 -129c-8 -11.333 -12 -24.333 -12 -39l1 -1c0 -20 7 -37.333 21 -52c14 -13.333 29.667 -20 47 -20s44.333 14 81 42l39 -88l-13 -14c-28.667 -28 -64.667 -42 -108 -42h-3
c-44 0 -82.667 16.333 -116 49c-34 34 -51 74.667 -51 122c0 0.666992 0.333008 1.33398 1 2.00098c0 6 0.333008 12 1 18z" />
    <glyph glyph-name="Ecaron" unicode="&#x11a;" horiz-adv-x="1055" 
d="M930 1516v-127h-653v-568h653v-126h-653v-568h653v-127h-780v1516h780zM478 1611l-254 259h157l154 -125l163 125h157l-263 -259h-114z" />
    <glyph glyph-name="ecaron" unicode="&#x11b;" 
d="M371 192c62.667 -56.667 144.669 -85 246.002 -85c109.333 0 202.666 38.333 279.999 115c10 10 22.667 24.333 38 43l129 -46c-28 -39.333 -52.333 -69.333 -73 -90c-103.333 -103.333 -228 -155 -374 -155c-145.333 0 -269.5 51.5 -372.5 154.5
s-154.5 227.5 -154.5 373.5c0 145.333 51.5 269.5 154.5 372.5s227.167 154.5 372.5 154.5c124.667 0 234 -37.333 328 -112c15.333 -12.667 30.666 -26.667 45.999 -42l30 -33l-77 -77zM834.002 834c-54.667 42 -127 63 -217 63c-108.667 0 -201.667 -38.5 -279 -115.5
s-116 -170.167 -116 -279.5c0 -90 21 -162.333 63 -217zM515.002 1103l-254 259h157l154 -125l163 125h157l-263 -259h-114z" />
    <glyph glyph-name="Gcircumflex" unicode="&#x11c;" horiz-adv-x="1565" 
d="M1424 196c-148.667 -142 -323.332 -213.001 -523.999 -213.001c-214 0 -396.667 75.5 -548 226.5s-227 333.833 -227 548.5c0 214 75.667 396.667 227 548s334 227 548 227c200.667 0 380.667 -72.333 540 -217l-95 -87c-132 117.333 -280.333 176 -445 176
c-178 0 -330.167 -63.167 -456.5 -189.5s-189.5 -278.833 -189.5 -457.5c0 -179.333 63.167 -332.166 189.5 -458.499s278.5 -189.5 456.5 -189.5c153.333 0 285.666 45 396.999 135v460h127v-509zM935.002 1880l263 -259h-157l-163 125l-154 -125h-157l254 259h114z" />
    <glyph glyph-name="gcircumflex" unicode="&#x11d;" horiz-adv-x="1321" 
d="M1039 586c-14.667 73.333 -50.333 138.332 -107 194.999c-77.333 77.333 -170.666 116 -279.999 116s-202.666 -38.667 -279.999 -116s-116 -170.666 -116 -279.999s38.667 -202.5 116 -279.5s170.666 -115.5 279.999 -115.5s202.666 38.667 279.999 116
c56 56 91.667 120.333 107 193v171zM1033 130.999l-6.99902 -2c-103.333 -103.333 -228 -155 -374 -155c-145.333 0 -269.5 51.5 -372.5 154.5s-154.5 227.167 -154.5 372.5c0 146 51.5 270.333 154.5 373s227.167 154 372.5 154c146 0 275.333 -54.667 388 -164v83h127
v-724c0 -141.333 -50.333 -262.333 -151 -363c-102.667 -102.667 -226.667 -154 -372 -154c-146 0 -270.667 51.333 -374 154c-20.667 21.333 -45 51.333 -73 90l129 46c15.333 -18 28 -32 38 -42c77.333 -77.333 170.666 -116 279.999 -116
c108.667 0 201.667 38.667 279 116c70 70 106.667 129 110 177zM698.002 1362l263 -259h-157l-163 125l-154 -125h-157l254 259h114z" />
    <glyph glyph-name="Gbreve" unicode="&#x11e;" horiz-adv-x="1565" 
d="M1424 196c-148.667 -142 -323.332 -213.001 -523.999 -213.001c-214 0 -396.667 75.5 -548 226.5s-227 333.833 -227 548.5c0 214 75.667 396.667 227 548s334 227 548 227c200.667 0 380.667 -72.333 540 -217l-95 -87c-132 117.333 -280.333 176 -445 176
c-178 0 -330.167 -63.167 -456.5 -189.5s-189.5 -278.833 -189.5 -457.5c0 -179.333 63.167 -332.166 189.5 -458.499s278.5 -189.5 456.5 -189.5c153.333 0 285.666 45 396.999 135v460h127v-509zM753.002 1893c6 -40 19.002 -70 39.002 -90
c25.333 -25.333 55.666 -38 90.999 -38s65.666 12.667 90.999 38c20 20 32.667 50 38 90h111c-7.33301 -72 -31 -128.333 -71 -169c-46 -46.667 -102.333 -70 -169 -70s-123 23.333 -169 70c-44 44.667 -67.667 101 -71 169h110z" />
    <glyph glyph-name="gbreve" unicode="&#x11f;" horiz-adv-x="1321" 
d="M1039 586c-14.667 73.333 -50.333 138.332 -107 194.999c-77.333 77.333 -170.666 116 -279.999 116s-202.666 -38.667 -279.999 -116s-116 -170.666 -116 -279.999s38.667 -202.5 116 -279.5s170.666 -115.5 279.999 -115.5s202.666 38.667 279.999 116
c56 56 91.667 120.333 107 193v171zM1033 130.999l-6.99902 -2c-103.333 -103.333 -228 -155 -374 -155c-145.333 0 -269.5 51.5 -372.5 154.5s-154.5 227.167 -154.5 372.5c0 146 51.5 270.333 154.5 373s227.167 154 372.5 154c146 0 275.333 -54.667 388 -164v83h127
v-724c0 -141.333 -50.333 -262.333 -151 -363c-102.667 -102.667 -226.667 -154 -372 -154c-146 0 -270.667 51.333 -374 154c-20.667 21.333 -45 51.333 -73 90l129 46c15.333 -18 28 -32 38 -42c77.333 -77.333 170.666 -116 279.999 -116
c108.667 0 201.667 38.667 279 116c70 70 106.667 129 110 177zM506.002 1375c6 -40 19.002 -70 39.002 -90c25.333 -25.333 55.666 -38 90.999 -38s65.666 12.667 90.999 38c20 20 32.667 50 38 90h111c-7.33301 -72 -31 -128.333 -71 -169
c-46 -46.667 -102.333 -70 -169 -70s-123 23.333 -169 70c-44 44.667 -67.667 101 -71 169h110z" />
    <glyph glyph-name="Gdotaccent" unicode="&#x120;" horiz-adv-x="1565" 
d="M1424 196c-148.667 -142 -323.332 -213.001 -523.999 -213.001c-214 0 -396.667 75.5 -548 226.5s-227 333.833 -227 548.5c0 214 75.667 396.667 227 548s334 227 548 227c200.667 0 380.667 -72.333 540 -217l-95 -87c-132 117.333 -280.333 176 -445 176
c-178 0 -330.167 -63.167 -456.5 -189.5s-189.5 -278.833 -189.5 -457.5c0 -179.333 63.167 -332.166 189.5 -458.499s278.5 -189.5 456.5 -189.5c153.333 0 285.666 45 396.999 135v460h127v-509zM947.502 1824.5c18.333 -17.667 27.5 -39.5 27.5 -65.5
s-9.16699 -47.833 -27.5 -65.5s-39.833 -26.5 -64.5 -26.5c-26 0 -48 8.83301 -66 26.5s-27 39.5 -27 65.5s9 47.833 27 65.5s40 26.5 66 26.5c24.667 0 46.167 -8.83301 64.5 -26.5z" />
    <glyph glyph-name="gdotaccent" unicode="&#x121;" horiz-adv-x="1321" 
d="M1039 586c-14.667 73.333 -50.333 138.332 -107 194.999c-77.333 77.333 -170.666 116 -279.999 116s-202.666 -38.667 -279.999 -116s-116 -170.666 -116 -279.999s38.667 -202.5 116 -279.5s170.666 -115.5 279.999 -115.5s202.666 38.667 279.999 116
c56 56 91.667 120.333 107 193v171zM1033 130.999l-6.99902 -2c-103.333 -103.333 -228 -155 -374 -155c-145.333 0 -269.5 51.5 -372.5 154.5s-154.5 227.167 -154.5 372.5c0 146 51.5 270.333 154.5 373s227.167 154 372.5 154c146 0 275.333 -54.667 388 -164v83h127
v-724c0 -141.333 -50.333 -262.333 -151 -363c-102.667 -102.667 -226.667 -154 -372 -154c-146 0 -270.667 51.333 -374 154c-20.667 21.333 -45 51.333 -73 90l129 46c15.333 -18 28 -32 38 -42c77.333 -77.333 170.666 -116 279.999 -116
c108.667 0 201.667 38.667 279 116c70 70 106.667 129 110 177zM711.502 1316.5c18.333 -17.667 27.5 -39.5 27.5 -65.5s-9.16699 -47.833 -27.5 -65.5s-39.833 -26.5 -64.5 -26.5c-26 0 -48 8.83301 -66 26.5s-27 39.5 -27 65.5s9 47.833 27 65.5s40 26.5 66 26.5
c24.667 0 46.167 -8.83301 64.5 -26.5z" />
    <glyph glyph-name="Gcommaaccent" unicode="&#x122;" horiz-adv-x="1565" 
d="M836 -15c-186.667 14 -347.999 88.999 -483.999 224.999c-151.333 150.667 -227 333.334 -227 548.001c0 214 75.667 396.667 227 548s334 227 548 227c200.667 0 380.667 -72.333 540 -217l-95 -87c-132 117.333 -280.333 176 -445 176
c-178 0 -330.167 -63.167 -456.5 -189.5s-189.5 -278.833 -189.5 -457.5c0 -179.333 63.167 -332.166 189.5 -458.499s278.5 -189.5 456.5 -189.5c153.333 0 285.666 45 396.999 135v460h127v-509c-136.667 -130.667 -295.334 -201.334 -476.001 -212.001l-4 -12
c54 0 90.667 -16.667 110 -50c8.66699 -16 13 -32.333 13 -49c0 -18.667 -5 -38 -15 -58c-20 -38 -47 -63 -81 -75c-26 -8.66699 -53.333 -13 -82 -13h-15c-36.667 2 -73.667 15.667 -111 41l69 62c12.667 -5.33301 25 -8.33301 37 -9h7c10 0 21 1.66699 33 5
c11.333 2.66699 19.333 8.33398 24 17.001c0.666992 1.33301 1 2.66602 1 3.99902c0 4 -2 9 -6 15c-5.33301 8 -15 12.667 -29 14c-6 0.666992 -14 1 -24 1c-17.333 0 -53.666 -2.33301 -108.999 -7z" />
    <glyph glyph-name="gcommaaccent" unicode="&#x123;" horiz-adv-x="1321" 
d="M1039 586c-14.667 73.333 -50.333 138.332 -107 194.999c-77.333 77.333 -170.666 116 -279.999 116s-202.666 -38.667 -279.999 -116s-116 -170.666 -116 -279.999s38.667 -202.5 116 -279.5s170.666 -115.5 279.999 -115.5s202.666 38.667 279.999 116
c56 56 91.667 120.333 107 193v171zM1033 130.999l-6.99902 -2c-103.333 -103.333 -228 -155 -374 -155c-145.333 0 -269.5 51.5 -372.5 154.5s-154.5 227.167 -154.5 372.5c0 146 51.5 270.333 154.5 373s227.167 154 372.5 154c146 0 275.333 -54.667 388 -164v83h127
v-724c0 -141.333 -50.333 -262.333 -151 -363c-102.667 -102.667 -226.667 -154 -372 -154c-146 0 -270.667 51.333 -374 154c-20.667 21.333 -45 51.333 -73 90l129 46c15.333 -18 28 -32 38 -42c77.333 -77.333 170.666 -116 279.999 -116
c108.667 0 201.667 38.667 279 116c70 70 106.667 129 110 177zM695.002 1322c2 -0.666992 9.66602 -8 22.999 -22c20.667 -20 31 -44.667 31 -74s-10.167 -54 -30.5 -74s-44.833 -30 -73.5 -30c-29.333 0 -54.166 10 -74.499 30s-30.5 44.667 -30.5 74
c0 15.333 2.66699 30.333 8 45l97 195h105z" />
    <glyph glyph-name="Hcircumflex" unicode="&#x124;" horiz-adv-x="1126" 
d="M277 660v-660h-127v1516h127v-730h572v730h127v-1516h-127v660h-572zM616 1831l263 -259h-157l-163 125l-154 -125h-157l254 259h114z" />
    <glyph glyph-name="hcircumflex" unicode="&#x125;" horiz-adv-x="1042" 
d="M150 1516h127v-586c49.333 48 126 72 230 72c112.667 0 204.5 -35.667 275.5 -107s107.5 -160.666 109.5 -267.999v-627h-127v619c0 70.667 -25.5 131 -76.5 181s-111.5 75 -181.5 75s-130.667 -24.667 -182 -74c-22 -22.667 -38 -44.334 -48 -65.001v-736h-127v1516z
M574 1785l263 -259h-157l-163 125l-154 -125h-157l254 259h114z" />
    <glyph glyph-name="Itilde" unicode="&#x128;" horiz-adv-x="467" 
d="M297 1516v-1516h-127v1516h127zM242 1763c42 -34 75.667 -51 101 -51h4c19.333 1.33301 35 27.333 47 78h107c-17.333 -105.333 -54.333 -166.333 -111 -183c-14.667 -4.66699 -29.667 -7 -45 -7c-40 0 -79.667 15.667 -119 47c-42 33.333 -75.667 50 -101 50h-3
c-20 -1.33301 -36 -27 -48 -77h-108c18 105.333 55.333 166.333 112 183c14.667 4 29.667 6 45 6c40 0 79.667 -15.333 119 -46z" />
    <glyph glyph-name="itilde" unicode="&#x129;" horiz-adv-x="467" 
d="M297 947v-947h-127v947h127zM242 1194c42 -34 75.667 -51 101 -51h4c19.333 1.33301 35 27.333 47 78h107c-17.333 -105.333 -54.333 -166.333 -111 -183c-14.667 -4.66699 -29.667 -7 -45 -7c-40 0 -79.667 15.667 -119 47c-42 33.333 -75.667 50 -101 50h-3
c-20 -1.33301 -36 -27 -48 -77h-108c18 105.333 55.333 166.333 112 183c14.667 4 29.667 6 45 6c40 0 79.667 -15.333 119 -46z" />
    <glyph glyph-name="Imacron" unicode="&#x12a;" horiz-adv-x="467" 
d="M297 1516v-1516h-127v1516h127zM-60 1742h587v-109h-587v109z" />
    <glyph glyph-name="imacron" unicode="&#x12b;" horiz-adv-x="467" 
d="M297 947v-947h-127v947h127zM-60 1173h587v-109h-587v109z" />
    <glyph glyph-name="Ibreve" unicode="&#x12c;" horiz-adv-x="467" 
d="M297 1516v-1516h-127v1516h127zM104 1893c6 -40 19.002 -70 39.002 -90c25.333 -25.333 55.666 -38 90.999 -38s65.666 12.667 90.999 38c20 20 32.667 50 38 90h111c-7.33301 -72 -31 -128.333 -71 -169c-46 -46.667 -102.333 -70 -169 -70s-123 23.333 -169 70
c-44 44.667 -67.667 101 -71 169h110z" />
    <glyph glyph-name="ibreve" unicode="&#x12d;" horiz-adv-x="467" 
d="M297 947v-947h-127v947h127zM104 1375c6 -40 19.002 -70 39.002 -90c25.333 -25.333 55.666 -38 90.999 -38s65.666 12.667 90.999 38c20 20 32.667 50 38 90h111c-7.33301 -72 -31 -128.333 -71 -169c-46 -46.667 -102.333 -70 -169 -70s-123 23.333 -169 70
c-44 44.667 -67.667 101 -71 169h110z" />
    <glyph glyph-name="Iogonek" unicode="&#x12e;" horiz-adv-x="467" 
d="M281 1516v-1516h-127v1516h127zM196 21c-60.667 -23.333 -99 -43.001 -115 -59.001c-14 -14 -21 -30.667 -21 -50l1 -1c0 -20 7 -37.333 21 -52c14 -13.333 29.667 -20 47 -20s44.333 14 81 42l39 -88l-13 -14c-28.667 -28 -64.667 -42 -108 -42h-3
c-44 0 -82.667 16.333 -116 49c-34 34 -51 74.667 -51 122c0 0.666992 0.333008 1.33398 1 2.00098c0 48 17 89 51 123c30.667 30.667 69 46 115 46h13z" />
    <glyph glyph-name="iogonek" unicode="&#x12f;" horiz-adv-x="460" 
d="M277 947v-947h-127v947h127zM288 1237.5c20.667 -20.333 31 -44.833 31 -73.5c0 -29.333 -10.333 -54.166 -31 -74.499s-45.334 -30.5 -74.001 -30.5s-53.334 10.167 -74.001 30.5s-31 45.166 -31 74.499c0 28.667 10.333 53.167 31 73.5s45.334 30.5 74.001 30.5
s53.334 -10.167 74.001 -30.5zM234 21c-60.667 -23.333 -99 -43.001 -115 -59.001c-14 -14 -21 -30.667 -21 -50l1 -1c0 -20 7 -37.333 21 -52c14 -13.333 29.667 -20 47 -20s44.333 14 81 42l39 -88l-13 -14c-28.667 -28 -64.667 -42 -108 -42h-3
c-44 0 -82.667 16.333 -116 49c-34 34 -51 74.667 -51 122c0 0.666992 0.333008 1.33398 1 2.00098c0 48 17 89 51 123c30.667 30.667 69 46 115 46h13z" />
    <glyph glyph-name="Idotaccent" unicode="&#x130;" horiz-adv-x="467" 
d="M297 1516v-1516h-127v1516h127zM298.5 1785.5c18.333 -17.667 27.5 -39.5 27.5 -65.5s-9.16699 -47.833 -27.5 -65.5s-39.833 -26.5 -64.5 -26.5c-26 0 -48 8.83301 -66 26.5s-27 39.5 -27 65.5s9 47.833 27 65.5s40 26.5 66 26.5c24.667 0 46.167 -8.83301 64.5 -26.5z
" />
    <glyph glyph-name="dotlessi" unicode="&#x131;" horiz-adv-x="467" 
d="M297 947v-947h-127v947h127z" />
    <glyph glyph-name="Lacute" unicode="&#x139;" horiz-adv-x="937" 
d="M150 0v1516h127v-1389h570v-127h-697zM776 1797l-283 -216h-133l188 216h228z" />
    <glyph glyph-name="lacute" unicode="&#x13a;" horiz-adv-x="427" 
d="M278 1516v-1516h-127v1516h127zM422 1885l-283 -216h-133l188 216h228z" />
    <glyph glyph-name="Ldot" unicode="&#x13f;" horiz-adv-x="937" 
d="M150 0v1516h127v-1389h570v-127h-697zM764.5 823.5c18.333 -17.667 27.5 -39.5 27.5 -65.5s-9.16699 -47.833 -27.5 -65.5s-39.833 -26.5 -64.5 -26.5c-26 0 -48 8.83301 -66 26.5s-27 39.5 -27 65.5s9 47.833 27 65.5s40 26.5 66 26.5
c24.667 0 46.167 -8.83301 64.5 -26.5z" />
    <glyph glyph-name="ldot" unicode="&#x140;" horiz-adv-x="612" 
d="M277 1516v-1516h-127v1516h127zM534.5 823.5c18.333 -17.667 27.5 -39.5 27.5 -65.5s-9.16699 -47.833 -27.5 -65.5s-39.833 -26.5 -64.5 -26.5c-26 0 -48 8.83301 -66 26.5s-27 39.5 -27 65.5s9 47.833 27 65.5s40 26.5 66 26.5c24.667 0 46.167 -8.83301 64.5 -26.5z
" />
    <glyph glyph-name="Nacute" unicode="&#x143;" horiz-adv-x="1274" 
d="M150 1516h126l721 -1249v1249h127v-1516h-117l-730 1262v-1262h-127v1516zM914 1846l-283 -216h-133l188 216h228z" />
    <glyph glyph-name="nacute" unicode="&#x144;" horiz-adv-x="1053" 
d="M277 719v-719.001h-127v947h127v-27c54.667 54.667 135 82 241 82c112.667 0 204.5 -35.667 275.5 -107s107.5 -160.666 109.5 -267.999v-627h-126v619c0 70.667 -25.667 131 -77 181s-112 75 -182 75s-130.667 -24.667 -182 -74c-28 -28 -47.667 -55.333 -59 -82z
M804 1328l-283 -216h-133l188 216h228z" />
    <glyph glyph-name="Ncaron" unicode="&#x147;" horiz-adv-x="1274" 
d="M150 1516h126l721 -1249v1249h127v-1516h-117l-730 1262v-1262h-127v1516zM575 1621l-254 259h157l154 -125l163 125h157l-263 -259h-114z" />
    <glyph glyph-name="ncaron" unicode="&#x148;" horiz-adv-x="1053" 
d="M277 719v-719.001h-127v947h127v-27c54.667 54.667 135 82 241 82c112.667 0 204.5 -35.667 275.5 -107s107.5 -160.666 109.5 -267.999v-627h-126v619c0 70.667 -25.667 131 -77 181s-112 75 -182 75s-130.667 -24.667 -182 -74c-28 -28 -47.667 -55.333 -59 -82z
M465 1103l-254 259h157l154 -125l163 125h157l-263 -259h-114z" />
    <glyph glyph-name="Omacron" unicode="&#x14c;" horiz-adv-x="1805" 
d="M1452 1309.5c152 -151.667 228 -334.834 228 -549.501s-76 -397.834 -228 -549.501s-335.333 -227.5 -550 -227.5s-397.834 75.833 -549.501 227.5s-227.5 334.834 -227.5 549.501s75.833 397.834 227.5 549.501s334.834 227.5 549.501 227.5s398 -75.833 550 -227.5z
M902 1409c-178.667 0 -331.334 -63.333 -458.001 -190s-190 -279.667 -190 -459s63.333 -332.5 190 -459.5s279.334 -190.5 458.001 -190.5c179.333 0 332.333 63.5 459 190.5s190 280.167 190 459.5s-63.333 332.333 -190 459s-279.667 190 -459 190zM609 1791h587v-109
h-587v109z" />
    <glyph glyph-name="omacron" unicode="&#x14d;" horiz-adv-x="1234" 
d="M617 1029c146 0 270.333 -51.5 373 -154.5s154 -227.5 154 -373.5c0 -145.333 -51.333 -269.5 -154 -372.5s-227 -154.5 -373 -154.5c-145.333 0 -269.5 51.5 -372.5 154.5s-154.5 227.167 -154.5 372.5c0 146 51.5 270.5 154.5 373.5s227.167 154.5 372.5 154.5z
M337 781c-77.333 -77.333 -116 -170.666 -116 -279.999s38.667 -202.333 116 -279s170.666 -115 279.999 -115s202.666 38.333 279.999 115s116 169.667 116 279s-38.667 202.666 -116 279.999s-170.666 116 -279.999 116s-202.666 -38.667 -279.999 -116zM324 1273h587
v-109h-587v109z" />
    <glyph glyph-name="Obreve" unicode="&#x14e;" horiz-adv-x="1805" 
d="M1452 1309.5c152 -151.667 228 -334.834 228 -549.501s-76 -397.834 -228 -549.501s-335.333 -227.5 -550 -227.5s-397.834 75.833 -549.501 227.5s-227.5 334.834 -227.5 549.501s75.833 397.834 227.5 549.501s334.834 227.5 549.501 227.5s398 -75.833 550 -227.5z
M902 1409c-178.667 0 -331.334 -63.333 -458.001 -190s-190 -279.667 -190 -459s63.333 -332.5 190 -459.5s279.334 -190.5 458.001 -190.5c179.333 0 332.333 63.5 459 190.5s190 280.167 190 459.5s-63.333 332.333 -190 459s-279.667 190 -459 190zM772 1893
c6 -40 19.002 -70 39.002 -90c25.333 -25.333 55.666 -38 90.999 -38s65.666 12.667 90.999 38c20 20 32.667 50 38 90h111c-7.33301 -72 -31 -128.333 -71 -169c-46 -46.667 -102.333 -70 -169 -70s-123 23.333 -169 70c-44 44.667 -67.667 101 -71 169h110z" />
    <glyph glyph-name="obreve" unicode="&#x14f;" horiz-adv-x="1234" 
d="M617 1029c146 0 270.333 -51.5 373 -154.5s154 -227.5 154 -373.5c0 -145.333 -51.333 -269.5 -154 -372.5s-227 -154.5 -373 -154.5c-145.333 0 -269.5 51.5 -372.5 154.5s-154.5 227.167 -154.5 372.5c0 146 51.5 270.5 154.5 373.5s227.167 154.5 372.5 154.5z
M337 781c-77.333 -77.333 -116 -170.666 -116 -279.999s38.667 -202.333 116 -279s170.666 -115 279.999 -115s202.666 38.333 279.999 115s116 169.667 116 279s-38.667 202.666 -116 279.999s-170.666 116 -279.999 116s-202.666 -38.667 -279.999 -116zM487 1375
c6 -40 19.002 -70 39.002 -90c25.333 -25.333 55.666 -38 90.999 -38s65.666 12.667 90.999 38c20 20 32.667 50 38 90h111c-7.33301 -72 -31 -128.333 -71 -169c-46 -46.667 -102.333 -70 -169 -70s-123 23.333 -169 70c-44 44.667 -67.667 101 -71 169h110z" />
    <glyph glyph-name="Ohungarumlaut" unicode="&#x150;" horiz-adv-x="1805" 
d="M1452 1309.5c152 -151.667 228 -334.834 228 -549.501s-76 -397.834 -228 -549.501s-335.333 -227.5 -550 -227.5s-397.834 75.833 -549.501 227.5s-227.5 334.834 -227.5 549.501s75.833 397.834 227.5 549.501s334.834 227.5 549.501 227.5s398 -75.833 550 -227.5z
M902 1409c-178.667 0 -331.334 -63.333 -458.001 -190s-190 -279.667 -190 -459s63.333 -332.5 190 -459.5s279.334 -190.5 458.001 -190.5c179.333 0 332.333 63.5 459 190.5s190 280.167 190 459.5s-63.333 332.333 -190 459s-279.667 190 -459 190zM1090 1829l-283 -216
h-133l188 216h228zM1331 1829l-283 -216h-133l188 216h228z" />
    <glyph glyph-name="ohungarumlaut" unicode="&#x151;" horiz-adv-x="1234" 
d="M617 1029c146 0 270.333 -51.5 373 -154.5s154 -227.5 154 -373.5c0 -145.333 -51.333 -269.5 -154 -372.5s-227 -154.5 -373 -154.5c-145.333 0 -269.5 51.5 -372.5 154.5s-154.5 227.167 -154.5 372.5c0 146 51.5 270.5 154.5 373.5s227.167 154.5 372.5 154.5z
M337 781c-77.333 -77.333 -116 -170.666 -116 -279.999s38.667 -202.333 116 -279s170.666 -115 279.999 -115s202.666 38.333 279.999 115s116 169.667 116 279s-38.667 202.666 -116 279.999s-170.666 116 -279.999 116s-202.666 -38.667 -279.999 -116zM805 1311
l-283 -216h-133l188 216h228zM1046 1311l-283 -216h-133l188 216h228z" />
    <glyph glyph-name="OE" unicode="&#x152;" horiz-adv-x="2173" 
d="M1332 1389c9.33301 -5.33301 37.666 -31.6689 84.999 -79.002c142 -142.667 217.333 -305.667 226 -489h405v-126h-405c-9.33301 -182 -84.666 -343.333 -225.999 -484c-49.333 -50 -79.333 -78 -90 -84h721v-127h-941c-74 -11.333 -154 -17 -240 -17
c-214.667 0 -397.834 75.833 -549.501 227.5s-227.5 334.834 -227.5 549.501s75.833 397.834 227.5 549.501s334.834 227.5 549.501 227.5c86 0 166.333 -7 241 -21h940v-127h-716zM1515 797.997c-8 162.667 -70.666 302.997 -187.999 420.997
c-46.667 46 -96.334 83.333 -149.001 112c-26 14.667 -52.667 27.334 -80 38.001c-71.333 26.667 -148.333 40 -231 40c-178.667 0 -331.334 -63.333 -458.001 -190s-190 -279.667 -190 -459s63.333 -332.5 190 -459.5s279.334 -190.5 458.001 -190.5
c82.667 0 159.667 13.333 231 40c27.333 10.667 54 23.334 80 38.001c52.667 28.667 102 66.334 148 113.001c116.667 116.667 179.667 255.667 189 417c0.666992 13.333 1 27.333 1 42c0 13.333 -0.333008 26 -1 38z" />
    <glyph glyph-name="oe" unicode="&#x153;" horiz-adv-x="2016" 
d="M221 501c0 -109.333 38.667 -202.333 116 -279s170.666 -115 279.999 -115s202.666 38.333 279.999 115s116 169.667 116 279s-38.667 202.666 -116 279.999s-170.666 116 -279.999 116s-202.666 -38.667 -279.999 -116s-116 -170.666 -116 -279.999zM1091 737
c14 -27.333 24.665 -55 31.998 -83h651c-12.667 40.667 -41 83 -85 127c-77.333 77.333 -170.666 116 -279.999 116s-202.666 -38.667 -279.999 -116c-17.333 -17.333 -30 -32 -38 -44zM1090 266c8.66699 -11.333 21.668 -26 39.001 -44
c77.333 -76.667 170.666 -115 279.999 -115s202.666 38.333 279.999 115c13.333 14 29.333 32.333 48 55l128 -45c-20.667 -34.667 -48 -69 -82 -103c-103.333 -103.333 -228 -155 -374 -155c-145.333 0 -269.333 51.667 -372 155l-24 24
c-0.666992 -1.33301 -8 -9.33301 -22 -24c-103.333 -103.333 -228 -155 -374 -155c-145.333 0 -269.5 51.5 -372.5 154.5s-154.5 227.167 -154.5 372.5c0 146 51.5 270.5 154.5 373.5s227.167 154.5 372.5 154.5c146 0 270.667 -51.333 374 -154
c14 -14.667 21.333 -22.667 22 -24l24 24c102.667 102.667 226.667 154 372 154c146 0 270.667 -51.333 374 -154c90.667 -92 138.334 -208.333 143.001 -349h-782v-25c0 -90.667 -18 -169 -54 -235z" />
    <glyph glyph-name="Racute" unicode="&#x154;" horiz-adv-x="1062" 
d="M277 1388v-750h228c103.333 0 191.666 36.667 264.999 110s110 162 110 266c0 103.333 -36.667 191.5 -110 264.5s-161.666 109.5 -264.999 109.5h-228zM505 511h-228v-511h-127v1516h410c118 -16 218 -65 300 -147c98 -98 147 -216.333 147 -355
c0 -139.333 -49 -258 -147 -356c-68 -68 -136 -110.333 -204 -127l345 -531h-155zM856 1797l-283 -216h-133l188 216h228z" />
    <glyph glyph-name="racute" unicode="&#x155;" horiz-adv-x="611" 
d="M150 947l127.001 -0.000976562v-116c92 88 186.667 134.333 284 139v-135c-60.667 -2.66699 -116.667 -30 -168 -82c-74.667 -73.333 -113.334 -161.666 -116.001 -264.999v-488h-127v947zM633.001 1228l-283 -216h-133l188 216h228z" />
    <glyph glyph-name="Rcaron" unicode="&#x158;" horiz-adv-x="1062" 
d="M277 1388v-750h228c103.333 0 191.666 36.667 264.999 110s110 162 110 266c0 103.333 -36.667 191.5 -110 264.5s-161.666 109.5 -264.999 109.5h-228zM505 511h-228v-511h-127v1516h410c118 -16 218 -65 300 -147c98 -98 147 -216.333 147 -355
c0 -139.333 -49 -258 -147 -356c-68 -68 -136 -110.333 -204 -127l345 -531h-155zM517 1572l-254 259h157l154 -125l163 125h157l-263 -259h-114z" />
    <glyph glyph-name="rcaron" unicode="&#x159;" horiz-adv-x="611" 
d="M150 947l127.001 -0.000976562v-116c92 88 186.667 134.333 284 139v-135c-60.667 -2.66699 -116.667 -30 -168 -82c-74.667 -73.333 -113.334 -161.666 -116.001 -264.999v-488h-127v947zM294.001 1003l-254 259h157l154 -125l163 125h157l-263 -259h-114z" />
    <glyph glyph-name="Sacute" unicode="&#x15a;" horiz-adv-x="1013" 
d="M525 816c-108 36 -194 86.166 -258 150.499s-96 142.5 -96 234.5c0 90.667 32.5 168.667 97.5 234s143.833 98 236.5 98c92 0 170.667 -32.333 236 -97c36.667 -34.667 64 -80.667 82 -138l-115 -45c-14.667 40.667 -33.667 72.667 -57 96c-40 40 -88.667 60 -146 60
s-106.166 -20.167 -146.499 -60.5s-60.5 -89.5 -60.5 -147.5c0 -56.667 20.333 -105.334 61 -146.001c39.333 -39.333 94.333 -75.333 165 -108c120 -38.667 221.667 -99.667 305 -183c89.333 -88.667 134 -196 134 -322c0 -127.333 -44.833 -235.666 -134.5 -324.999
s-197.5 -134 -323.5 -134c-126.667 0 -234.667 45 -324 135c-71.333 71.333 -115 160.333 -131 267l121 44c10.667 -92.667 43.667 -167 99 -223c65.333 -65.333 143.666 -98 234.999 -98c92 0 170.5 32.5 235.5 97.5s97.5 143.833 97.5 236.5
c0 91.333 -32.333 169.333 -97 234c-58.667 58.667 -130.667 105.334 -216 140.001zM784 1797l-283 -216h-133l188 216h228z" />
    <glyph glyph-name="sacute" unicode="&#x15b;" horiz-adv-x="799" 
d="M406 468c-71.333 38.667 -121.333 72.333 -150 101c-46.667 46 -70 102 -70 168s23.333 122.5 70 169.5s102.667 70.5 168 70.5c66 0 121 -22 165 -66c42 -42.667 63 -91.667 63 -147v-19l-112 -45c-8 60.667 -21.5 100.667 -40.5 120s-44.167 29 -75.5 29
c-30.667 0 -57 -10.833 -79 -32.5s-33 -48.167 -33 -79.5c0 -30.667 11 -57 33 -79c14 -14.667 45 -37 93 -67c80 -43.333 137.333 -82.333 172 -117c56 -57.333 84 -125.666 84 -204.999c0 -80.667 -28.167 -149.334 -84.5 -206.001s-124.5 -85 -204.5 -85
c-80.667 0 -149.167 28.333 -205.5 85s-84.5 125 -84.5 205l126 33c0 -67.333 16 -116.833 48 -148.5s70.667 -47.5 116 -47.5c44.667 0 83.167 15.833 115.5 47.5s48.5 70.5 48.5 116.5c0 45.333 -16 84 -48 116c-18.667 18 -57 45.667 -115 83zM682 1228l-283 -216h-133
l188 216h228z" />
    <glyph glyph-name="Scircumflex" unicode="&#x15c;" horiz-adv-x="1013" 
d="M525 816c-108 36 -194 86.166 -258 150.499s-96 142.5 -96 234.5c0 90.667 32.5 168.667 97.5 234s143.833 98 236.5 98c92 0 170.667 -32.333 236 -97c36.667 -34.667 64 -80.667 82 -138l-115 -45c-14.667 40.667 -33.667 72.667 -57 96c-40 40 -88.667 60 -146 60
s-106.166 -20.167 -146.499 -60.5s-60.5 -89.5 -60.5 -147.5c0 -56.667 20.333 -105.334 61 -146.001c39.333 -39.333 94.333 -75.333 165 -108c120 -38.667 221.667 -99.667 305 -183c89.333 -88.667 134 -196 134 -322c0 -127.333 -44.833 -235.666 -134.5 -324.999
s-197.5 -134 -323.5 -134c-126.667 0 -234.667 45 -324 135c-71.333 71.333 -115 160.333 -131 267l121 44c10.667 -92.667 43.667 -167 99 -223c65.333 -65.333 143.666 -98 234.999 -98c92 0 170.5 32.5 235.5 97.5s97.5 143.833 97.5 236.5
c0 91.333 -32.333 169.333 -97 234c-58.667 58.667 -130.667 105.334 -216 140.001zM559 1831l263 -259h-157l-163 125l-154 -125h-157l254 259h114z" />
    <glyph glyph-name="scircumflex" unicode="&#x15d;" horiz-adv-x="799" 
d="M406 468c-71.333 38.667 -121.333 72.333 -150 101c-46.667 46 -70 102 -70 168s23.333 122.5 70 169.5s102.667 70.5 168 70.5c66 0 121 -22 165 -66c42 -42.667 63 -91.667 63 -147v-19l-112 -45c-8 60.667 -21.5 100.667 -40.5 120s-44.167 29 -75.5 29
c-30.667 0 -57 -10.833 -79 -32.5s-33 -48.167 -33 -79.5c0 -30.667 11 -57 33 -79c14 -14.667 45 -37 93 -67c80 -43.333 137.333 -82.333 172 -117c56 -57.333 84 -125.666 84 -204.999c0 -80.667 -28.167 -149.334 -84.5 -206.001s-124.5 -85 -204.5 -85
c-80.667 0 -149.167 28.333 -205.5 85s-84.5 125 -84.5 205l126 33c0 -67.333 16 -116.833 48 -148.5s70.667 -47.5 116 -47.5c44.667 0 83.167 15.833 115.5 47.5s48.5 70.5 48.5 116.5c0 45.333 -16 84 -48 116c-18.667 18 -57 45.667 -115 83zM457 1262l263 -259h-157
l-163 125l-154 -125h-157l254 259h114z" />
    <glyph glyph-name="Scedilla" unicode="&#x15e;" horiz-adv-x="1013" 
d="M430 -11c-94.667 14.667 -177.669 57.666 -249.002 128.999s-115 160.333 -131 267l121 44c10.667 -92.667 43.667 -167 99 -223c65.333 -65.333 143.666 -98 234.999 -98c92 0 170.5 32.5 235.5 97.5s97.5 143.833 97.5 236.5c0 91.333 -32.333 169.333 -97 234
c-58.667 58.667 -130.667 105.334 -216 140.001c-108 36 -194 86.167 -258 150.5s-96 142.5 -96 234.5c0 90.667 32.5 168.667 97.5 234s143.833 98 236.5 98c92 0 170.667 -32.333 236 -97c36.667 -34.667 64 -80.667 82 -138l-115 -45
c-14.667 40.667 -33.667 72.667 -57 96c-40 40 -88.667 60 -146 60s-106.166 -20.167 -146.499 -60.5s-60.5 -89.5 -60.5 -147.5c0 -56.667 20.333 -105.334 61 -146.001c39.333 -39.333 94.333 -75.333 165 -108c120 -38.667 221.667 -99.667 305 -183
c89.333 -88.667 134 -196 134 -322c0 -127.333 -44.667 -235.666 -134 -324.999c-81.333 -80.667 -177.666 -125 -288.999 -133l-4 -12c54 0 90.667 -16.667 110 -50c8.66699 -16 13 -32.333 13 -49c0 -18.667 -5 -38 -15 -58c-20 -38 -47 -63 -81 -75
c-26 -8.66699 -53.333 -13 -82 -13h-15c-36.667 2 -73.667 15.667 -111 41l69 62c12.667 -5.33301 25 -8.33301 37 -9h7c10 0 21 1.66699 33 5c11.333 2.66699 19.333 8.33398 24 17.001c0.666992 1.33301 1 2.66602 1 3.99902c0 4 -2 9 -6 15c-5.33301 8 -15 12.667 -29 14
c-6 0.666992 -14 1 -24 1c-17.333 0 -53.666 -2.33301 -108.999 -7z" />
    <glyph glyph-name="scedilla" unicode="&#x15f;" horiz-adv-x="799" 
d="M332 -14c-50 12.667 -94.001 38.332 -132.001 76.999c-56.667 56.667 -85 125 -85 205l126 33c0 -67.333 16 -116.833 48 -148.5s70.667 -47.5 116 -47.5c44.667 0 83.167 15.833 115.5 47.5s48.5 70.5 48.5 116.5c0 45.333 -16 84 -48 116
c-18.667 18 -57 45.667 -115 83c-71.333 38.667 -121.333 72.334 -150 101.001c-46.667 46 -70 102 -70 168s23.333 122.5 70 169.5s102.667 70.5 168 70.5c66 0 121 -22 165 -66c42 -42.667 63 -91.667 63 -147v-19l-112 -45c-8 60.667 -21.5 100.667 -40.5 120
s-44.167 29 -75.5 29c-30.667 0 -57 -10.833 -79 -32.5s-33 -48.167 -33 -79.5c0 -30.667 11 -57 33 -79c14 -14.667 45 -37 93 -67c80 -43.333 137.333 -82.333 172 -117c56 -57.333 84 -125.666 84 -204.999c0 -80.667 -28 -149.334 -84 -206.001
c-48 -48 -104.667 -75.667 -170 -83l-6 -18c54 0 90.667 -16.667 110 -50c8.66699 -16 13 -32.333 13 -49c0 -18.667 -5 -38 -15 -58c-20 -38 -47 -63 -81 -75c-26 -8.66699 -53.333 -13 -82 -13h-15c-36.667 2 -73.667 15.667 -111 41l69 62
c12.667 -5.33301 25 -8.33301 37 -9h7c10 0 21 1.66699 33 5c11.333 2.66699 19.333 8.33398 24 17.001c0.666992 1.33301 1 2.66602 1 3.99902c0 4 -2 9 -6 15c-5.33301 8 -15 12.667 -29 14c-6 0.666992 -14 1 -24 1c-17.333 0 -53.666 -2.33301 -108.999 -7z" />
    <glyph glyph-name="Scaron" unicode="&#x160;" horiz-adv-x="1013" 
d="M525 816c-108 36 -194 86.166 -258 150.499s-96 142.5 -96 234.5c0 90.667 32.5 168.667 97.5 234s143.833 98 236.5 98c92 0 170.667 -32.333 236 -97c36.667 -34.667 64 -80.667 82 -138l-115 -45c-14.667 40.667 -33.667 72.667 -57 96c-40 40 -88.667 60 -146 60
s-106.166 -20.167 -146.499 -60.5s-60.5 -89.5 -60.5 -147.5c0 -56.667 20.333 -105.334 61 -146.001c39.333 -39.333 94.333 -75.333 165 -108c120 -38.667 221.667 -99.667 305 -183c89.333 -88.667 134 -196 134 -322c0 -127.333 -44.833 -235.666 -134.5 -324.999
s-197.5 -134 -323.5 -134c-126.667 0 -234.667 45 -324 135c-71.333 71.333 -115 160.333 -131 267l121 44c10.667 -92.667 43.667 -167 99 -223c65.333 -65.333 143.666 -98 234.999 -98c92 0 170.5 32.5 235.5 97.5s97.5 143.833 97.5 236.5
c0 91.333 -32.333 169.333 -97 234c-58.667 58.667 -130.667 105.334 -216 140.001zM445 1572l-254 259h157l154 -125l163 125h157l-263 -259h-114z" />
    <glyph glyph-name="scaron" unicode="&#x161;" horiz-adv-x="799" 
d="M406 468c-71.333 38.667 -121.333 72.333 -150 101c-46.667 46 -70 102 -70 168s23.333 122.5 70 169.5s102.667 70.5 168 70.5c66 0 121 -22 165 -66c42 -42.667 63 -91.667 63 -147v-19l-112 -45c-8 60.667 -21.5 100.667 -40.5 120s-44.167 29 -75.5 29
c-30.667 0 -57 -10.833 -79 -32.5s-33 -48.167 -33 -79.5c0 -30.667 11 -57 33 -79c14 -14.667 45 -37 93 -67c80 -43.333 137.333 -82.333 172 -117c56 -57.333 84 -125.666 84 -204.999c0 -80.667 -28.167 -149.334 -84.5 -206.001s-124.5 -85 -204.5 -85
c-80.667 0 -149.167 28.333 -205.5 85s-84.5 125 -84.5 205l126 33c0 -67.333 16 -116.833 48 -148.5s70.667 -47.5 116 -47.5c44.667 0 83.167 15.833 115.5 47.5s48.5 70.5 48.5 116.5c0 45.333 -16 84 -48 116c-18.667 18 -57 45.667 -115 83zM343 1003l-254 259h157
l154 -125l163 125h157l-263 -259h-114z" />
    <glyph glyph-name="Tcommaaccent" unicode="&#x162;" horiz-adv-x="972" 
d="M423 44l-0.000976562 1345h-373v127h872v-127h-373v-1380c36 -5.33301 61.333 -21 76 -47c8.66699 -16 13 -32.333 13 -49c0 -18.667 -5 -38 -15 -58c-20 -38 -47 -63 -81 -75c-26 -8.66699 -53.333 -13 -82 -13h-15c-36.667 2 -73.667 15.667 -111 41l69 62
c12.667 -5.33301 25 -8.33301 37 -9h7c10 0 21 1.66699 33 5c11.333 2.66699 19.333 8.33398 24 17.001c0.666992 1.33301 1 2.66602 1 3.99902c0 4 -2 9 -6 15c-5.33301 8 -15 12.667 -29 14c-6 0.666992 -14 1 -24 1c-17.333 0 -53.666 -2.33301 -108.999 -7l81 134h5z
" />
    <glyph glyph-name="tcommaaccent" unicode="&#x163;" horiz-adv-x="675" 
d="M274 44l-0.000976562 777h-184v126h184v385h127v-385h184v-126h-184v-812c36 -5.33301 61.333 -21 76 -47c8.66699 -16 13 -32.333 13 -49c0 -18.667 -5 -38 -15 -58c-20 -38 -47 -63 -81 -75c-26 -8.66699 -53.333 -13 -82 -13h-15c-36.667 2 -73.667 15.667 -111 41
l69 62c12.667 -5.33301 25 -8.33301 37 -9h7c10 0 21 1.66699 33 5c11.333 2.66699 19.333 8.33398 24 17.001c0.666992 1.33301 1 2.66602 1 3.99902c0 4 -2 9 -6 15c-5.33301 8 -15 12.667 -29 14c-6 0.666992 -14 1 -24 1c-17.333 0 -53.666 -2.33301 -108.999 -7l81 134
h4z" />
    <glyph glyph-name="Utilde" unicode="&#x168;" horiz-adv-x="1305" 
d="M1028 1516h127.001v-1081c-16 -118.667 -65 -219 -147 -301c-98 -98 -216.333 -147 -355 -147c-139.333 0 -258 49.167 -356 147.5s-147 216.5 -147 354.5v1027h128v-1027c0 -102.667 36.667 -190.667 110 -264s161.666 -110 264.999 -110c104 0 192.5 36.667 265.5 110
s109.5 161.333 109.5 264v1027zM661.001 1763c42 -34 75.667 -51 101 -51h4c19.333 1.33301 35 27.333 47 78h107c-17.333 -105.333 -54.333 -166.333 -111 -183c-14.667 -4.66699 -29.667 -7 -45 -7c-40 0 -79.667 15.667 -119 47c-42 33.333 -75.667 50 -101 50h-3
c-20 -1.33301 -36 -27 -48 -77h-108c18 105.333 55.333 166.333 112 183c14.667 4 29.667 6 45 6c40 0 79.667 -15.333 119 -46z" />
    <glyph glyph-name="utilde" unicode="&#x169;" horiz-adv-x="1079" 
d="M545 -13c-119.333 0 -214.5 35.5 -285.5 106.5s-107.5 160.5 -109.5 268.5v587h127v-579c0 -70.667 25.667 -130.667 77 -180c50.667 -50.667 114 -76 190 -76c70 0 130.5 25 181.5 75s76.5 110.333 76.5 181v579h127v-587c-2 -108 -38.333 -197.333 -109 -268
c-71.333 -71.333 -163 -107 -275 -107zM548 1194c42 -34 75.667 -51 101 -51h4c19.333 1.33301 35 27.333 47 78h107c-17.333 -105.333 -54.333 -166.333 -111 -183c-14.667 -4.66699 -29.667 -7 -45 -7c-40 0 -79.667 15.667 -119 47c-42 33.333 -75.667 50 -101 50h-3
c-20 -1.33301 -36 -27 -48 -77h-108c18 105.333 55.333 166.333 112 183c14.667 4 29.667 6 45 6c40 0 79.667 -15.333 119 -46z" />
    <glyph glyph-name="Umacron" unicode="&#x16a;" horiz-adv-x="1305" 
d="M1028 1516h127.001v-1081c-16 -118.667 -65 -219 -147 -301c-98 -98 -216.333 -147 -355 -147c-139.333 0 -258 49.167 -356 147.5s-147 216.5 -147 354.5v1027h128v-1027c0 -102.667 36.667 -190.667 110 -264s161.666 -110 264.999 -110c104 0 192.5 36.667 265.5 110
s109.5 161.333 109.5 264v1027zM359.001 1742h587v-109h-587v109z" />
    <glyph glyph-name="umacron" unicode="&#x16b;" horiz-adv-x="1079" 
d="M545 -13c-119.333 0 -214.5 35.5 -285.5 106.5s-107.5 160.5 -109.5 268.5v587h127v-579c0 -70.667 25.667 -130.667 77 -180c50.667 -50.667 114 -76 190 -76c70 0 130.5 25 181.5 75s76.5 110.333 76.5 181v579h127v-587c-2 -108 -38.333 -197.333 -109 -268
c-71.333 -71.333 -163 -107 -275 -107zM246 1173h587v-109h-587v109z" />
    <glyph glyph-name="Ubreve" unicode="&#x16c;" horiz-adv-x="1305" 
d="M1028 1516h127.001v-1081c-16 -118.667 -65 -219 -147 -301c-98 -98 -216.333 -147 -355 -147c-139.333 0 -258 49.167 -356 147.5s-147 216.5 -147 354.5v1027h128v-1027c0 -102.667 36.667 -190.667 110 -264s161.666 -110 264.999 -110c104 0 192.5 36.667 265.5 110
s109.5 161.333 109.5 264v1027zM523.001 1844c6 -40 19.002 -70 39.002 -90c25.333 -25.333 55.666 -38 90.999 -38s65.666 12.667 90.999 38c20 20 32.667 50 38 90h111c-7.33301 -72 -31 -128.333 -71 -169c-46 -46.667 -102.333 -70 -169 -70s-123 23.333 -169 70
c-44 44.667 -67.667 101 -71 169h110z" />
    <glyph glyph-name="ubreve" unicode="&#x16d;" horiz-adv-x="1079" 
d="M545 -13c-119.333 0 -214.5 35.5 -285.5 106.5s-107.5 160.5 -109.5 268.5v587h127v-579c0 -70.667 25.667 -130.667 77 -180c50.667 -50.667 114 -76 190 -76c70 0 130.5 25 181.5 75s76.5 110.333 76.5 181v579h127v-587c-2 -108 -38.333 -197.333 -109 -268
c-71.333 -71.333 -163 -107 -275 -107zM410 1275c6 -40 19.002 -70 39.002 -90c25.333 -25.333 55.666 -38 90.999 -38s65.666 12.667 90.999 38c20 20 32.667 50 38 90h111c-7.33301 -72 -31 -128.333 -71 -169c-46 -46.667 -102.333 -70 -169 -70s-123 23.333 -169 70
c-44 44.667 -67.667 101 -71 169h110z" />
    <glyph glyph-name="Uring" unicode="&#x16e;" horiz-adv-x="1305" 
d="M1028 1516h127.001v-1081c-16 -118.667 -65 -219 -147 -301c-98 -98 -216.333 -147 -355 -147c-139.333 0 -258 49.167 -356 147.5s-147 216.5 -147 354.5v1027h128v-1027c0 -102.667 36.667 -190.667 110 -264s161.666 -110 264.999 -110c104 0 192.5 36.667 265.5 110
s109.5 161.333 109.5 264v1027zM748.501 1834.5c26.333 -26.333 39.5 -58.166 39.5 -95.499c0 -36.667 -13.167 -68.167 -39.5 -94.5s-58.166 -39.5 -95.499 -39.5s-69.166 13.167 -95.499 39.5s-39.5 57.833 -39.5 94.5c0 37.333 13.167 69.166 39.5 95.499
s58.166 39.5 95.499 39.5s69.166 -13.167 95.499 -39.5zM653.001 1770c-8.66699 0 -16 -3 -22 -9s-9 -13.333 -9 -22c0 -8 3 -15.167 9 -21.5s13.333 -9.5 22 -9.5c8 0 15.167 3.16699 21.5 9.5s9.5 13.5 9.5 21.5c0 8.66699 -3.16699 16 -9.5 22s-13.5 9 -21.5 9z" />
    <glyph glyph-name="uring" unicode="&#x16f;" horiz-adv-x="1079" 
d="M545 -13c-119.333 0 -214.5 35.5 -285.5 106.5s-107.5 160.5 -109.5 268.5v587h127v-579c0 -70.667 25.667 -130.667 77 -180c50.667 -50.667 114 -76 190 -76c70 0 130.5 25 181.5 75s76.5 110.333 76.5 181v579h127v-587c-2 -108 -38.333 -197.333 -109 -268
c-71.333 -71.333 -163 -107 -275 -107zM635.5 1265.5c26.333 -26.333 39.5 -58.166 39.5 -95.499c0 -36.667 -13.167 -68.167 -39.5 -94.5s-58.166 -39.5 -95.499 -39.5s-69.166 13.167 -95.499 39.5s-39.5 57.833 -39.5 94.5c0 37.333 13.167 69.166 39.5 95.499
s58.166 39.5 95.499 39.5s69.166 -13.167 95.499 -39.5zM540 1201c-8.66699 0 -16 -3 -22 -9s-9 -13.333 -9 -22c0 -8 3 -15.167 9 -21.5s13.333 -9.5 22 -9.5c8 0 15.167 3.16699 21.5 9.5s9.5 13.5 9.5 21.5c0 8.66699 -3.16699 16 -9.5 22s-13.5 9 -21.5 9z" />
    <glyph glyph-name="Uhungarumlaut" unicode="&#x170;" horiz-adv-x="1305" 
d="M1028 1516h127.001v-1081c-16 -118.667 -65 -219 -147 -301c-98 -98 -216.333 -147 -355 -147c-139.333 0 -258 49.167 -356 147.5s-147 216.5 -147 354.5v1027h128v-1027c0 -102.667 36.667 -190.667 110 -264s161.666 -110 264.999 -110c104 0 192.5 36.667 265.5 110
s109.5 161.333 109.5 264v1027zM740.001 1780l-283 -216h-133l188 216h228zM981.001 1780l-283 -216h-133l188 216h228z" />
    <glyph glyph-name="uhungarumlaut" unicode="&#x171;" horiz-adv-x="1079" 
d="M545 -13c-119.333 0 -214.5 35.5 -285.5 106.5s-107.5 160.5 -109.5 268.5v587h127v-579c0 -70.667 25.667 -130.667 77 -180c50.667 -50.667 114 -76 190 -76c70 0 130.5 25 181.5 75s76.5 110.333 76.5 181v579h127v-587c-2 -108 -38.333 -197.333 -109 -268
c-71.333 -71.333 -163 -107 -275 -107zM627 1211l-283 -216h-133l188 216h228zM868 1211l-283 -216h-133l188 216h228z" />
    <glyph glyph-name="Uogonek" unicode="&#x172;" horiz-adv-x="1305" 
d="M1028 1516h127.001v-1081c-16 -118.667 -65 -219 -147 -301c-98 -98 -216.333 -147 -355 -147c-139.333 0 -258 49.167 -356 147.5s-147 216.5 -147 354.5v1027h128v-1027c0 -102.667 36.667 -190.667 110 -264s161.666 -110 264.999 -110c104 0 192.5 36.667 265.5 110
s109.5 161.333 109.5 264v1027zM867.001 83c-60.667 -23.333 -99 -43.001 -115 -59.001c-14 -14 -21 -30.667 -21 -50l1 -1c0 -20 7 -37.333 21 -52c14 -13.333 29.667 -20 47 -20s44.333 14 81 42l39 -88l-13 -14c-28.667 -28 -64.667 -42 -108 -42h-3
c-44 0 -82.667 16.333 -116 49c-34 34 -51 74.667 -51 122c0 0.666992 0.333008 1.33398 1 2.00098c0 48 17 89 51 123c30.667 30.667 69 46 115 46h13z" />
    <glyph glyph-name="uogonek" unicode="&#x173;" horiz-adv-x="1079" 
d="M545 -13c-119.333 0 -214.5 35.5 -285.5 106.5s-107.5 160.5 -109.5 268.5v587h127v-579c0 -70.667 25.667 -130.667 77 -180c50.667 -50.667 114 -76 190 -76c70 0 130.5 25 181.5 75s76.5 110.333 76.5 181v579h127v-587c-2 -108 -38.333 -197.333 -109 -268
c-71.333 -71.333 -163 -107 -275 -107zM844 21c-60.667 -23.333 -99 -43.001 -115 -59.001c-14 -14 -21 -30.667 -21 -50l1 -1c0 -20 7 -37.333 21 -52c14 -13.333 29.667 -20 47 -20s44.333 14 81 42l39 -88l-13 -14c-28.667 -28 -64.667 -42 -108 -42h-3
c-44 0 -82.667 16.333 -116 49c-34 34 -51 74.667 -51 122c0 0.666992 0.333008 1.33398 1 2.00098c0 48 17 89 51 123c30.667 30.667 69 46 115 46h13z" />
    <glyph glyph-name="Wcircumflex" unicode="&#x174;" horiz-adv-x="1602" 
d="M738 248l0.000976562 1268h127v-1268c11.333 -21.333 26.333 -41.333 45 -60c51.333 -49.333 112 -74 182 -74s130.5 25 181.5 75s76.5 110.333 76.5 181v1146h127v-1154c-2 -101.333 -39.333 -188.666 -112 -261.999c-75.333 -75.333 -166.333 -113 -273 -113
c-106 0 -196.667 37.333 -272 112l-19 17l-19 -17c-75.333 -74.667 -166 -112 -272 -112c-106.667 0 -197.334 37.667 -272.001 113c-73.333 73.333 -111 160.666 -113 261.999v1154h127v-1146c0 -70.667 25.5 -131 76.5 -181s111.5 -75 181.5 -75
c70.667 0 131.334 24.667 182.001 74c19.333 18.667 34.666 38.667 45.999 60zM854.001 1831l263 -259h-157l-163 125l-154 -125h-157l254 259h114z" />
    <glyph glyph-name="wcircumflex" unicode="&#x175;" horiz-adv-x="1333" 
d="M603 262v685.001h126v-666c0 -47.333 16.167 -87 48.5 -119s70.833 -48 115.5 -48c45.333 0 84 16 116 48c30 29.333 45.667 57.666 47 84.999v700h127v-679c-2.66699 -76.667 -31 -141.667 -85 -195c-56 -57.333 -124.333 -86 -205 -86c-80 0 -155.333 35.333 -226 106
c-71.333 -70.667 -147 -106 -227 -106c-80.667 0 -149 28.667 -205 86c-54 53.333 -82.333 118.333 -85 195v679h127v-700c1.33301 -27.333 17.333 -55.666 48 -84.999c31.333 -32 69.666 -48 114.999 -48c44.667 0 83.334 16 116.001 48c27.333 27.333 43 60.666 47 99.999
zM719 1262l263 -259h-157l-163 125l-154 -125h-157l254 259h114z" />
    <glyph glyph-name="Ycircumflex" unicode="&#x176;" horiz-adv-x="1272" 
d="M572 611l-522 905h146l440 -763l440 763h146l-523 -905v-611h-127v611zM689 1831l263 -259h-157l-163 125l-154 -125h-157l254 259h114z" />
    <glyph glyph-name="ycircumflex" unicode="&#x177;" horiz-adv-x="1007" 
d="M313 -345h-129l254 534l-363 758h143l286 -617l286 617h141zM556 1262l263 -259h-157l-163 125l-154 -125h-157l254 259h114z" />
    <glyph glyph-name="Ydieresis" unicode="&#x178;" horiz-adv-x="1272" 
d="M572 611l-522 905h146l440 -763l440 763h146l-523 -905v-611h-127v611zM572 1855.5c20.667 -20.333 31 -44.833 31 -73.5c0 -29.333 -10.333 -54.166 -31 -74.499s-45.334 -30.5 -74.001 -30.5s-53.334 10.167 -74.001 30.5s-31 45.166 -31 74.499
c0 28.667 10.333 53.167 31 73.5s45.334 30.5 74.001 30.5s53.334 -10.167 74.001 -30.5zM848 1855.5c20.667 -20.333 31 -44.833 31 -73.5c0 -29.333 -10.333 -54.166 -31 -74.499s-45.334 -30.5 -74.001 -30.5s-53.334 10.167 -74.001 30.5s-31 45.166 -31 74.499
c0 28.667 10.333 53.167 31 73.5s45.334 30.5 74.001 30.5s53.334 -10.167 74.001 -30.5z" />
    <glyph glyph-name="Zacute" unicode="&#x179;" horiz-adv-x="1321" 
d="M952 1389h-786v127h1005l-803 -1389h787v-127h-1005zM938 1797l-283 -216h-133l188 216h228z" />
    <glyph glyph-name="zacute" unicode="&#x17a;" horiz-adv-x="1004" 
d="M616 808h-450v127h669l-467 -808h486v-127h-704zM779 1228l-283 -216h-133l188 216h228z" />
    <glyph glyph-name="Zdotaccent" unicode="&#x17b;" horiz-adv-x="1321" 
d="M952 1389h-786v127h1005l-803 -1389h787v-127h-1005zM725.5 1785.5c18.333 -17.667 27.5 -39.5 27.5 -65.5s-9.16699 -47.833 -27.5 -65.5s-39.833 -26.5 -64.5 -26.5c-26 0 -48 8.83301 -66 26.5s-27 39.5 -27 65.5s9 47.833 27 65.5s40 26.5 66 26.5
c24.667 0 46.167 -8.83301 64.5 -26.5z" />
    <glyph glyph-name="zdotaccent" unicode="&#x17c;" horiz-adv-x="1004" 
d="M616 808h-450v127h669l-467 -808h486v-127h-704zM567.5 1216.5c18.333 -17.667 27.5 -39.5 27.5 -65.5s-9.16699 -47.833 -27.5 -65.5s-39.833 -26.5 -64.5 -26.5c-26 0 -48 8.83301 -66 26.5s-27 39.5 -27 65.5s9 47.833 27 65.5s40 26.5 66 26.5
c24.667 0 46.167 -8.83301 64.5 -26.5z" />
    <glyph glyph-name="Zcaron" unicode="&#x17d;" horiz-adv-x="1321" 
d="M952 1389h-786v127h1005l-803 -1389h787v-127h-1005zM599 1572l-254 259h157l154 -125l163 125h157l-263 -259h-114z" />
    <glyph glyph-name="zcaron" unicode="&#x17e;" horiz-adv-x="1004" 
d="M616 808h-450v127h669l-467 -808h486v-127h-704zM441 1003l-254 259h157l154 -125l163 125h157l-263 -259h-114z" />
    <glyph glyph-name="AEacute" unicode="&#x1fc;" horiz-adv-x="1693" 
d="M1568 821v-126h-653v-568h653v-127h-780v564h-276l-251 -564h-136l659 1516h784v-127h-653v-568h653zM788 691v526l-226 -526h226zM1124 1797l-283 -216h-133l188 216h228z" />
    <glyph glyph-name="aeacute" unicode="&#x1fd;" horiz-adv-x="2057" 
d="M965 691c-17.333 32 -40 61.998 -68 89.998c-77.333 77.333 -170.666 116 -279.999 116s-202.666 -38.667 -279.999 -116s-116 -170.666 -116 -279.999s38.667 -202.333 116 -279s170.666 -115 279.999 -115s202.666 38.333 279.999 115c28 28 50.667 58 68 90
c19.333 34.667 32.666 71 39.999 109v160c-7.33301 38.667 -20.666 75.334 -39.999 110.001zM1814 653.998c-12 40.667 -40.334 83 -85.001 127c-76.667 77.333 -169.667 116 -279 116s-202.666 -38.667 -279.999 -116c-16 -16 -28.667 -30 -38 -42v-85h682zM1132 264.998
c9.33301 -13.333 22.002 -27.333 38.002 -42c77.333 -77.333 170.666 -116 279.999 -116s202.333 38.333 279 115c14 14 30 32.333 48 55l129 -45c-20.667 -34.667 -48.334 -69 -83.001 -103c-102.667 -103.333 -227 -155 -373 -155c-137.333 0 -243.333 34.667 -318 104
v-78h-127v139c-112.667 -110 -242 -165 -388 -165c-145.333 0 -269.5 51.5 -372.5 154.5s-154.5 227.167 -154.5 372.5c0 146 51.5 270.5 154.5 373.5s227.167 154.5 372.5 154.5c146 0 275.333 -55 388 -165v83h127v-21c74.667 68.667 180.667 103 318 103
c146 0 270.333 -51.333 373 -154c91.333 -92 139 -208.333 143 -349l-834 1v-262zM1305 1228l-283 -216h-133l188 216h228z" />
    <glyph glyph-name="Oslashacute" unicode="&#x1fe;" horiz-adv-x="1805" 
d="M1118 1374c-58 23.333 -129.999 35 -215.999 35c-178.667 0 -331.334 -63.333 -458.001 -190s-190 -279.667 -190 -459s63.333 -332.333 190 -459c46 -46 88.333 -80 127 -102zM686.001 145c58.667 -23.333 130.667 -35 216 -35c179.333 0 332.333 63.5 459 190.5
s190 280.167 190 459.5s-63 332.333 -189 459c-46.667 46 -89.667 79.667 -129 101zM1288 1437c52.667 -28.667 107.332 -71 163.999 -127c152 -152 228 -335.333 228 -550s-76 -397.834 -228 -549.501s-335.333 -227.5 -550 -227.5c-104 0 -194 15.333 -270 46l-80 -171
l-115 54l80 170c-53.333 29.333 -108 72.333 -164 129c-152 151.333 -228 334.333 -228 549s75.833 397.834 227.5 549.501s334.834 227.5 549.501 227.5c104 0 194.333 -15.333 271 -46l79 170l116 -53zM1180 1797l-283 -216h-133l188 216h228z" />
    <glyph glyph-name="oslashacute" unicode="&#x1ff;" horiz-adv-x="1234" 
d="M759 874c-35.333 16 -82.668 23.999 -142.001 23.999c-109.333 0 -202.666 -38.667 -279.999 -116s-116 -170.666 -116 -279.999s38.667 -202.333 116 -279c16 -16 26 -25.333 30 -28zM867.998 809.999l-392.998 -678.999c35.333 -16 82.666 -24 141.999 -24
c109.333 0 202.666 38.5 279.999 115.5s116 170.167 116 279.5s-38.667 202.666 -116 279.999c-16 16 -25.667 25.333 -29 28zM301 80c-14.667 10 -33.334 26.667 -56.001 50c-103.333 102.667 -155 226.667 -155 372c0 146 51.5 270.5 154.5 373.5
s227.167 154.5 372.5 154.5c82.667 0 152.334 -13.667 209.001 -41l113 196l112 -58l-117 -202c14.667 -10 33.667 -26.333 57 -49c102 -103.333 153 -228 153 -374c0 -145.333 -51.333 -269.5 -154 -372.5s-227 -154.5 -373 -154.5c-82.667 0 -152 13.667 -208 41
l-113 -196l-113 54zM894 1228l-283 -216h-133l188 216h228z" />
    <glyph glyph-name="circumflex" unicode="&#x2c6;" horiz-adv-x="871" 
d="M489 1262l263 -259h-157l-163 125l-154 -125h-157l254 259h114z" />
    <glyph glyph-name="caron" unicode="&#x2c7;" horiz-adv-x="871" 
d="M375 1003l-254 259h157l154 -125l163 125h157l-263 -259h-114z" />
    <glyph glyph-name="uni02C9" unicode="&#x2c9;" horiz-adv-x="887" 
d="M150 1173h587v-109h-587v109z" />
    <glyph glyph-name="breve" unicode="&#x2d8;" horiz-adv-x="889" 
d="M315 1275c6 -40 19.002 -70 39.002 -90c25.333 -25.333 55.666 -38 90.999 -38s65.666 12.667 90.999 38c20 20 32.667 50 38 90h111c-7.33301 -72 -31 -128.333 -71 -169c-46 -46.667 -102.333 -70 -169 -70s-123 23.333 -169 70c-44 44.667 -67.667 101 -71 169h110z
" />
    <glyph glyph-name="dotaccent" unicode="&#x2d9;" horiz-adv-x="435" 
d="M282.5 1216.5c18.333 -17.667 27.5 -39.5 27.5 -65.5s-9.16699 -47.833 -27.5 -65.5s-39.833 -26.5 -64.5 -26.5c-26 0 -48 8.83301 -66 26.5s-27 39.5 -27 65.5s9 47.833 27 65.5s40 26.5 66 26.5c24.667 0 46.167 -8.83301 64.5 -26.5z" />
    <glyph glyph-name="ring" unicode="&#x2da;" horiz-adv-x="786" 
d="M489.5 1265.5c26.333 -26.333 39.5 -58.166 39.5 -95.499c0 -36.667 -13.167 -68.167 -39.5 -94.5s-58.166 -39.5 -95.499 -39.5s-69.166 13.167 -95.499 39.5s-39.5 57.833 -39.5 94.5c0 37.333 13.167 69.166 39.5 95.499s58.166 39.5 95.499 39.5
s69.166 -13.167 95.499 -39.5zM394 1201c-8.66699 0 -16 -3 -22 -9s-9 -13.333 -9 -22c0 -8 3 -15.167 9 -21.5s13.333 -9.5 22 -9.5c8 0 15.167 3.16699 21.5 9.5s9.5 13.5 9.5 21.5c0 8.66699 -3.16699 16 -9.5 22s-13.5 9 -21.5 9z" />
    <glyph glyph-name="ogonek" unicode="&#x2db;" horiz-adv-x="779" 
d="M473 21c-60.667 -23.333 -99 -43.001 -115 -59.001c-14 -14 -21 -30.667 -21 -50l1 -1c0 -20 7 -37.333 21 -52c14 -13.333 29.667 -20 47 -20s44.333 14 81 42l39 -88l-13 -14c-28.667 -28 -64.667 -42 -108 -42h-3c-44 0 -82.667 16.333 -116 49
c-34 34 -51 74.667 -51 122c0 0.666992 0.333008 1.33398 1 2.00098c0 48 17 89 51 123c30.667 30.667 69 46 115 46h13z" />
    <glyph glyph-name="tilde" unicode="&#x2dc;" horiz-adv-x="835" 
d="M426 1194c42 -34 75.667 -51 101 -51h4c19.333 1.33301 35 27.333 47 78h107c-17.333 -105.333 -54.333 -166.333 -111 -183c-14.667 -4.66699 -29.667 -7 -45 -7c-40 0 -79.667 15.667 -119 47c-42 33.333 -75.667 50 -101 50h-3c-20 -1.33301 -36 -27 -48 -77h-108
c18 105.333 55.333 166.333 112 183c14.667 4 29.667 6 45 6c40 0 79.667 -15.333 119 -46z" />
    <glyph glyph-name="hungarumlaut" unicode="&#x2dd;" horiz-adv-x="926" 
d="M566 1211l-283 -216h-133l188 216h228zM807 1211l-283 -216h-133l188 216h228z" />
    <glyph glyph-name="Wgrave" unicode="&#x1e80;" horiz-adv-x="1602" 
d="M738 248l0.000976562 1268h127v-1268c11.333 -21.333 26.333 -41.333 45 -60c51.333 -49.333 112 -74 182 -74s130.5 25 181.5 75s76.5 110.333 76.5 181v1146h127v-1154c-2 -101.333 -39.333 -188.666 -112 -261.999c-75.333 -75.333 -166.333 -113 -273 -113
c-106 0 -196.667 37.333 -272 112l-19 17l-19 -17c-75.333 -74.667 -166 -112 -272 -112c-106.667 0 -197.334 37.667 -272.001 113c-73.333 73.333 -111 160.666 -113 261.999v1154h127v-1146c0 -70.667 25.5 -131 76.5 -181s111.5 -75 181.5 -75
c70.667 0 131.334 24.667 182.001 74c19.333 18.667 34.666 38.667 45.999 60zM752.001 1797l188 -216h-133l-283 216h228z" />
    <glyph glyph-name="wgrave" unicode="&#x1e81;" horiz-adv-x="1333" 
d="M603 262v685.001h126v-666c0 -47.333 16.167 -87 48.5 -119s70.833 -48 115.5 -48c45.333 0 84 16 116 48c30 29.333 45.667 57.666 47 84.999v700h127v-679c-2.66699 -76.667 -31 -141.667 -85 -195c-56 -57.333 -124.333 -86 -205 -86c-80 0 -155.333 35.333 -226 106
c-71.333 -70.667 -147 -106 -227 -106c-80.667 0 -149 28.667 -205 86c-54 53.333 -82.333 118.333 -85 195v679h127v-700c1.33301 -27.333 17.333 -55.666 48 -84.999c31.333 -32 69.666 -48 114.999 -48c44.667 0 83.334 16 116.001 48c27.333 27.333 43 60.666 47 99.999
zM617 1228l188 -216h-133l-283 216h228z" />
    <glyph glyph-name="Wacute" unicode="&#x1e82;" horiz-adv-x="1602" 
d="M738 248l0.000976562 1268h127v-1268c11.333 -21.333 26.333 -41.333 45 -60c51.333 -49.333 112 -74 182 -74s130.5 25 181.5 75s76.5 110.333 76.5 181v1146h127v-1154c-2 -101.333 -39.333 -188.666 -112 -261.999c-75.333 -75.333 -166.333 -113 -273 -113
c-106 0 -196.667 37.333 -272 112l-19 17l-19 -17c-75.333 -74.667 -166 -112 -272 -112c-106.667 0 -197.334 37.667 -272.001 113c-73.333 73.333 -111 160.666 -113 261.999v1154h127v-1146c0 -70.667 25.5 -131 76.5 -181s111.5 -75 181.5 -75
c70.667 0 131.334 24.667 182.001 74c19.333 18.667 34.666 38.667 45.999 60zM1078 1797l-283 -216h-133l188 216h228z" />
    <glyph glyph-name="wacute" unicode="&#x1e83;" horiz-adv-x="1333" 
d="M603 262v685.001h126v-666c0 -47.333 16.167 -87 48.5 -119s70.833 -48 115.5 -48c45.333 0 84 16 116 48c30 29.333 45.667 57.666 47 84.999v700h127v-679c-2.66699 -76.667 -31 -141.667 -85 -195c-56 -57.333 -124.333 -86 -205 -86c-80 0 -155.333 35.333 -226 106
c-71.333 -70.667 -147 -106 -227 -106c-80.667 0 -149 28.667 -205 86c-54 53.333 -82.333 118.333 -85 195v679h127v-700c1.33301 -27.333 17.333 -55.666 48 -84.999c31.333 -32 69.666 -48 114.999 -48c44.667 0 83.334 16 116.001 48c27.333 27.333 43 60.666 47 99.999
zM944 1228l-283 -216h-133l188 216h228z" />
    <glyph glyph-name="Wdieresis" unicode="&#x1e84;" horiz-adv-x="1602" 
d="M738 248l0.000976562 1268h127v-1268c11.333 -21.333 26.333 -41.333 45 -60c51.333 -49.333 112 -74 182 -74s130.5 25 181.5 75s76.5 110.333 76.5 181v1146h127v-1154c-2 -101.333 -39.333 -188.666 -112 -261.999c-75.333 -75.333 -166.333 -113 -273 -113
c-106 0 -196.667 37.333 -272 112l-19 17l-19 -17c-75.333 -74.667 -166 -112 -272 -112c-106.667 0 -197.334 37.667 -272.001 113c-73.333 73.333 -111 160.666 -113 261.999v1154h127v-1146c0 -70.667 25.5 -131 76.5 -181s111.5 -75 181.5 -75
c70.667 0 131.334 24.667 182.001 74c19.333 18.667 34.666 38.667 45.999 60zM737.001 1806.5c20.667 -20.333 31 -44.833 31 -73.5c0 -29.333 -10.333 -54.166 -31 -74.499s-45.334 -30.5 -74.001 -30.5s-53.334 10.167 -74.001 30.5s-31 45.166 -31 74.499
c0 28.667 10.333 53.167 31 73.5s45.334 30.5 74.001 30.5s53.334 -10.167 74.001 -30.5zM1013 1806.5c20.667 -20.333 31 -44.833 31 -73.5c0 -29.333 -10.333 -54.166 -31 -74.499s-45.334 -30.5 -74.001 -30.5s-53.334 10.167 -74.001 30.5s-31 45.166 -31 74.499
c0 28.667 10.333 53.167 31 73.5s45.334 30.5 74.001 30.5s53.334 -10.167 74.001 -30.5z" />
    <glyph glyph-name="wdieresis" unicode="&#x1e85;" horiz-adv-x="1333" 
d="M603 262v685.001h126v-666c0 -47.333 16.167 -87 48.5 -119s70.833 -48 115.5 -48c45.333 0 84 16 116 48c30 29.333 45.667 57.666 47 84.999v700h127v-679c-2.66699 -76.667 -31 -141.667 -85 -195c-56 -57.333 -124.333 -86 -205 -86c-80 0 -155.333 35.333 -226 106
c-71.333 -70.667 -147 -106 -227 -106c-80.667 0 -149 28.667 -205 86c-54 53.333 -82.333 118.333 -85 195v679h127v-700c1.33301 -27.333 17.333 -55.666 48 -84.999c31.333 -32 69.666 -48 114.999 -48c44.667 0 83.334 16 116.001 48c27.333 27.333 43 60.666 47 99.999
zM603 1237.5c20.667 -20.333 31 -44.833 31 -73.5c0 -29.333 -10.333 -54.166 -31 -74.499s-45.334 -30.5 -74.001 -30.5s-53.334 10.167 -74.001 30.5s-31 45.166 -31 74.499c0 28.667 10.333 53.167 31 73.5s45.334 30.5 74.001 30.5s53.334 -10.167 74.001 -30.5z
M879 1237.5c20.667 -20.333 31 -44.833 31 -73.5c0 -29.333 -10.333 -54.166 -31 -74.499s-45.334 -30.5 -74.001 -30.5s-53.334 10.167 -74.001 30.5s-31 45.166 -31 74.499c0 28.667 10.333 53.167 31 73.5s45.334 30.5 74.001 30.5s53.334 -10.167 74.001 -30.5z" />
    <glyph glyph-name="Ygrave" unicode="&#x1ef2;" horiz-adv-x="1272" 
d="M572 611l-522 905h146l440 -763l440 763h146l-523 -905v-611h-127v611zM587 1846l188 -216h-133l-283 216h228z" />
    <glyph glyph-name="ygrave" unicode="&#x1ef3;" horiz-adv-x="1007" 
d="M313 -345h-129l254 534l-363 758h143l286 -617l286 617h141zM454 1228l188 -216h-133l-283 216h228z" />
    <glyph glyph-name="endash" unicode="&#x2013;" horiz-adv-x="853" 
d="M50 630h753v-127h-753v127z" />
    <glyph glyph-name="emdash" unicode="&#x2014;" horiz-adv-x="1438" 
d="M50 630h1338v-127h-1338v127z" />
    <glyph glyph-name="afii00208" unicode="&#x2015;" horiz-adv-x="3072" 
d="M0 630h2007v-127h-2007v127z" />
    <glyph glyph-name="underscoredbl" unicode="&#x2017;" horiz-adv-x="1014" 
d="M25 -299h964v-126h-964v126zM25 16h964v-126h-964v126z" />
    <glyph glyph-name="quoteleft" unicode="&#x2018;" horiz-adv-x="311" 
d="M206 1382c1.33301 0 9.00195 -7 23.002 -21c20.667 -20.667 31 -45.667 31 -75c0 -28.667 -10.333 -53.167 -31 -73.5s-45.334 -30.5 -74.001 -30.5s-53.334 10.167 -74.001 30.5s-31 44.833 -31 73.5c0 16 2.66699 31 8 45l97 195h105z" />
    <glyph glyph-name="quoteright" unicode="&#x2019;" horiz-adv-x="311" 
d="M105 1326c-2 0.666992 -9.66602 8 -22.999 22c-20.667 20 -31 44.667 -31 74s10.167 54 30.5 74s44.833 30 73.5 30c29.333 0 54.166 -10 74.499 -30s30.5 -44.667 30.5 -74c0 -15.333 -2.66699 -30.333 -8 -45l-97 -195h-105z" />
    <glyph glyph-name="quotesinglbase" unicode="&#x201a;" horiz-adv-x="311" 
d="M105 -6c-2 0.666992 -9.66602 8 -22.999 22c-20.667 20 -31 44.667 -31 74c0 28.667 10.167 53.167 30.5 73.5s44.833 30.5 73.5 30.5c29.333 0 54.166 -10.167 74.499 -30.5s30.5 -44.833 30.5 -73.5c0 -15.333 -2.66699 -30.333 -8 -45l-97 -195h-105z" />
    <glyph glyph-name="quotereversed" unicode="&#x201b;" horiz-adv-x="311" 
d="M205 1326c2 0.666992 9.66602 8 22.999 22c20.667 20 31 44.667 31 74s-10.167 54 -30.5 74s-44.833 30 -73.5 30c-29.333 0 -54.166 -10 -74.499 -30s-30.5 -44.667 -30.5 -74c0 -15.333 2.66699 -30.333 8 -45l97 -195h105z" />
    <glyph glyph-name="quotedblleft" unicode="&#x201c;" horiz-adv-x="542" 
d="M206 1382c1.33301 0 9.00195 -7 23.002 -21c20.667 -20.667 31 -45.667 31 -75c0 -28.667 -10.333 -53.167 -31 -73.5s-45.334 -30.5 -74.001 -30.5s-53.334 10.167 -74.001 30.5s-31 44.833 -31 73.5c0 16 2.66699 31 8 45l97 195h105zM437.002 1382
c2 0 10.001 -7 24.001 -21c20 -20.667 30 -45.667 30 -75c0 -28.667 -10.167 -53.167 -30.5 -73.5s-44.833 -30.5 -73.5 -30.5s-53.334 10.167 -74.001 30.5s-31 44.833 -31 73.5c0 16 2.66699 31 8 45l97 195h105z" />
    <glyph glyph-name="quotedblright" unicode="&#x201d;" horiz-adv-x="542" 
d="M105 1326c-2 0.666992 -9.66602 8 -22.999 22c-20.667 20 -31 44.667 -31 74s10.167 54 30.5 74s44.833 30 73.5 30c29.333 0 54.166 -10 74.499 -30s30.5 -44.667 30.5 -74c0 -15.333 -2.66699 -30.333 -8 -45l-97 -195h-105zM337.001 1326
c-2 0.666992 -9.66797 8 -23.001 22c-20.667 20 -31 44.667 -31 74s10.167 54 30.5 74s44.833 30 73.5 30s53.334 -10 74.001 -30s31 -44.667 31 -74c0 -15.333 -2.66699 -30.333 -8 -45l-97 -195h-105z" />
    <glyph glyph-name="quotedblbase" unicode="&#x201e;" horiz-adv-x="542" 
d="M105 -6c-2 0.666992 -9.66602 8 -22.999 22c-20.667 20 -31 44.667 -31 74c0 28.667 10.167 53.167 30.5 73.5s44.833 30.5 73.5 30.5c29.333 0 54.166 -10.167 74.499 -30.5s30.5 -44.833 30.5 -73.5c0 -15.333 -2.66699 -30.333 -8 -45l-97 -195h-105zM337.001 -6
c-2 0.666992 -9.66797 8 -23.001 22c-20.667 20 -31 44.667 -31 74c0 28.667 10.167 53.167 30.5 73.5s44.833 30.5 73.5 30.5s53.334 -10.167 74.001 -30.5s31 -44.833 31 -73.5c0 -15.333 -2.66699 -30.333 -8 -45l-97 -195h-105z" />
    <glyph glyph-name="dagger" unicode="&#x2020;" horiz-adv-x="757" 
d="M330 1512v201h97v-201h230v-97h-230v-1256h-97v1256h-230v97h230z" />
    <glyph glyph-name="daggerdbl" unicode="&#x2021;" horiz-adv-x="757" 
d="M330 1415h-230v97h230v201h97v-201h230v-97h-230v-402h230v-98h-230v-756h-97v756h-230v98h230v402z" />
    <glyph glyph-name="bullet" unicode="&#x2022;" horiz-adv-x="2620" 
d="M1041 1359l546 -0.00195312l308 -392l-64 -302c84 28 126 72.667 126 134c-13.333 16 -20 32 -20 48c0 52 46.667 78 140 78c69.333 0 139.333 -46.667 210 -140c45.333 -37.333 131.333 -74.666 258 -111.999c0 -18.667 -6.66699 -28 -20 -28
c0 -9.33301 2 -16.666 6 -21.999c-4 -22.667 -22.667 -37 -56 -43c-12 -2 -26 -3 -42 -3c-29.333 0 -65.333 3.33301 -108 10c16 -13.333 61.333 -20 136 -20c14 2.66699 26.333 4 37 4s19.667 -1.33301 27 -4c0 -36 -68 -64 -204 -84l-126 8
c76 -37.333 139.333 -56 190 -56h42v-8c-34.667 -46.667 -98 -70 -190 -70c-46.667 0 -100 12 -160 36c0 -29.333 53.333 -62 160 -98c0 -18.667 -25.333 -30.667 -76 -36c-29.333 0 -92.666 21.333 -190 64c0 -22.667 23.333 -53.334 70 -92.001c-3.33301 -2 -9 -3 -17 -3
c-24 0 -69.667 10.333 -137 31l22 -62l-28 -8c-25.333 0 -70 35.333 -134 106l-62 -294h-742l-84 294c-49.333 -62.667 -89.333 -98 -120 -106l-28 8l14 62c-57.333 -28 -101.333 -42 -132 -42l-14 22c42 25.333 63 50.666 63 75.999
c0 2.66699 -0.333008 5.33398 -1 8.00098c-85.333 -42.667 -148 -64 -188 -64c-46.667 5.33301 -70 17.333 -70 36c102.667 34.667 154 66.334 154 95.001v3c-48 -24 -99.333 -36 -154 -36h-28c-73.333 0 -127.333 23.333 -162 70v8h42c50.667 0 95 5.66699 133 17
s57 24.333 57 39l-140 -8c-126.667 22.667 -190 50.667 -190 84l14 8l50 -8c31.333 -1.33301 58.333 -2 81 -2c44.667 0 71.667 2.66699 81 8l-156 11c-46.667 3.33301 -72 14.333 -76 33l6 20l-20 8v28c149.333 41.333 247.333 90 294 146
c49.333 70.667 107.333 106 174 106c93.333 0 140 -26 140 -78c0 -16 -6.66699 -32 -20 -48c14.667 -89.333 52 -134 112 -134l-70 302zM1288 777.998c0 26 16.666 51.335 49.999 76.002c11.333 -24.667 25.666 -84 42.999 -178c3.33301 -20 5 -40.667 5 -62
c0 -77.333 -24.333 -160.666 -73 -249.999c76.667 67.333 136 133.666 178 198.999c34 53.333 51 105 51 155c0 11.333 -0.666992 22.666 -2 33.999c-9.33301 60.667 -18.666 106.667 -27.999 138c-9.33301 32 -17.666 67.667 -24.999 107l-163 -59
c-10.667 -6 -22.667 -11.667 -36 -17v3c-4 46.667 -14.333 71 -31 73c-35.333 -24.667 -94 -56.667 -176 -96c31.333 -9.33301 47 -24 47 -44v-252c0 -4 -3.66699 -8.33301 -11 -13s-20.333 -11.667 -39 -21c32 -48 65 -72 99 -72c15.333 0 31 5 47 15
c50 30.667 90 50.667 120 60c-30 7.33301 -46.833 15.166 -50.5 23.499s-5.5 14.5 -5.5 18.5v162z" />
    <glyph glyph-name="ellipsis" unicode="&#x2026;" horiz-adv-x="2068" 
d="M279 165.5c20.667 -20.333 31 -44.833 31 -73.5c0 -29.333 -10.333 -54.166 -31 -74.499s-45.334 -30.5 -74.001 -30.5s-53.334 10.167 -74.001 30.5s-31 45.166 -31 74.499c0 28.667 10.333 53.167 31 73.5s45.334 30.5 74.001 30.5s53.334 -10.167 74.001 -30.5z
M907 165.5c20.667 -20.333 31 -44.833 31 -73.5c0 -29.333 -10.333 -54.166 -31 -74.499s-45.334 -30.5 -74.001 -30.5s-53.334 10.167 -74.001 30.5s-31 45.166 -31 74.499c0 28.667 10.333 53.167 31 73.5s45.334 30.5 74.001 30.5s53.334 -10.167 74.001 -30.5z
M1535.5 165.5c20.333 -20.333 30.5 -44.833 30.5 -73.5c0 -29.333 -10.167 -54.166 -30.5 -74.499s-44.833 -30.5 -73.5 -30.5c-29.333 0 -54.166 10.167 -74.499 30.5s-30.5 45.166 -30.5 74.499c0 28.667 10.167 53.167 30.5 73.5s45.166 30.5 74.499 30.5
c28.667 0 53.167 -10.167 73.5 -30.5z" />
    <glyph glyph-name="perthousand" unicode="&#x2030;" horiz-adv-x="1687" 
d="M1078 1236l-870 -1242l-105 72l870 1242zM480.5 1093.5c45.667 -45.667 68.5 -101.167 68.5 -166.5c0 -64.667 -22.833 -119.834 -68.5 -165.501s-100.834 -68.5 -165.501 -68.5c-65.333 0 -120.833 22.833 -166.5 68.5s-68.5 100.834 -68.5 165.501
c0 65.333 22.833 120.833 68.5 166.5s101.167 68.5 166.5 68.5c64.667 0 119.834 -22.833 165.501 -68.5zM315 1038c-31.333 0 -57.666 -10.833 -78.999 -32.5s-32 -47.834 -32 -78.501s10.667 -56.667 32 -78s47.666 -32 78.999 -32c30 0 55.833 10.667 77.5 32
s32.5 47.333 32.5 78s-10.833 56.834 -32.5 78.501s-47.5 32.5 -77.5 32.5zM1032.5 541.5c45.667 -45.667 68.5 -101.167 68.5 -166.5c0 -64.667 -22.833 -119.834 -68.5 -165.501s-100.834 -68.5 -165.501 -68.5c-65.333 0 -120.833 22.833 -166.5 68.5
s-68.5 100.834 -68.5 165.501c0 65.333 22.833 120.833 68.5 166.5s101.167 68.5 166.5 68.5c64.667 0 119.834 -22.833 165.501 -68.5zM867 486c-31.333 0 -57.666 -10.833 -78.999 -32.5s-32 -47.834 -32 -78.501s10.667 -56.667 32 -78s47.666 -32 78.999 -32
c30 0 55.833 10.667 77.5 32s32.5 47.333 32.5 78s-10.833 56.834 -32.5 78.501s-47.5 32.5 -77.5 32.5zM1538.5 541.5c45.667 -45.667 68.5 -101.167 68.5 -166.5c0 -64.667 -22.833 -119.834 -68.5 -165.501s-100.834 -68.5 -165.501 -68.5
c-65.333 0 -120.833 22.833 -166.5 68.5s-68.5 100.834 -68.5 165.501c0 65.333 22.833 120.833 68.5 166.5s101.167 68.5 166.5 68.5c64.667 0 119.834 -22.833 165.501 -68.5zM1373 486c-31.333 0 -57.666 -10.833 -78.999 -32.5s-32 -47.834 -32 -78.501
s10.667 -56.667 32 -78s47.666 -32 78.999 -32c30 0 55.833 10.667 77.5 32s32.5 47.333 32.5 78s-10.833 56.834 -32.5 78.501s-47.5 32.5 -77.5 32.5z" />
    <glyph glyph-name="minute" unicode="&#x2032;" horiz-adv-x="377" 
d="M125 917v596h127v-596h-127z" />
    <glyph glyph-name="second" unicode="&#x2033;" horiz-adv-x="631" 
d="M125 917v596h127v-596h-127zM379 917v596h127v-596h-127z" />
    <glyph glyph-name="guilsinglleft" unicode="&#x2039;" horiz-adv-x="647" 
d="M100 447l447 479v-160l-297 -319l297 -319v-161z" />
    <glyph glyph-name="guilsinglright" unicode="&#x203a;" horiz-adv-x="647" 
d="M100 -33v161l296 319l-296 319v160l447 -479z" />
    <glyph glyph-name="exclamdbl" unicode="&#x203c;" horiz-adv-x="920" 
d="M304 165.5c20.667 -20.333 31 -44.833 31 -73.5c0 -29.333 -10.333 -54.166 -31 -74.499s-45.334 -30.5 -74.001 -30.5s-53.334 10.167 -74.001 30.5s-31 45.166 -31 74.499c0 28.667 10.333 53.167 31 73.5s45.334 30.5 74.001 30.5s53.334 -10.167 74.001 -30.5z
M291 1516v-1262h-126v1262h126zM764 165.5c20.667 -20.333 31 -44.833 31 -73.5c0 -29.333 -10.333 -54.166 -31 -74.499s-45.334 -30.5 -74.001 -30.5s-53.334 10.167 -74.001 30.5s-31 45.166 -31 74.499c0 28.667 10.333 53.167 31 73.5s45.334 30.5 74.001 30.5
s53.334 -10.167 74.001 -30.5zM751 1516v-1262h-126v1262h126z" />
    <glyph glyph-name="fraction" unicode="&#x2044;" horiz-adv-x="1073" 
d="M1023 1343l-869 -1242l-104 72l870 1242z" />
    <glyph glyph-name="fraction" unicode="&#x2215;" horiz-adv-x="1073" 
d="M1023 1343l-869 -1242l-104 72l870 1242z" />
    <glyph glyph-name="franc" unicode="&#x20a3;" horiz-adv-x="987" 
d="M199 475v1041h688v-127h-561v-568h561v-126h-561v-220h265v-127h-265v-348h-127v348h-149v127h149z" />
    <glyph glyph-name="lira" unicode="&#x20a4;" horiz-adv-x="1112" 
d="M280 739c-1.33301 3.33301 -7.66699 16.3389 -19 39.0059c-70 113.333 -109.333 221.666 -118 324.999c-1.33301 12 -2 24.333 -2 37c0 90.667 30 171.667 90 243c66.667 80 153.334 125 260.001 135c12 0.666992 24 1 36 1c90.667 0 172 -30 244 -90
c80.667 -68.667 126 -155.334 136 -260.001c2 -14.667 3 -29 3 -43c0 -42 -10 -86 -30 -132l-120 40c13.333 38 20 71.667 20 101c0 8 -0.333008 16 -1 24c-6.66699 69.333 -36.667 126.666 -90 171.999c-47.333 39.333 -101 59 -161 59c-8 0 -16 -0.333008 -24 -1
c-70 -6 -127.333 -35.667 -172 -89c-40 -48 -60 -101.333 -60 -160c0 -8.66699 0.333008 -17.334 1 -26.001c6 -66.667 29 -142.334 69 -227.001c32.667 -52.667 58 -102 76 -148h220v-127h-179c5.33301 -18.667 9.33301 -41 12 -67h167v-126h-159
c-3.33301 -112.667 -39.333 -209.667 -108 -291c27.333 10 79.333 15 156 15c46 0 91.667 -5 137 -15c58.667 -14 114.667 -21 168 -21c47.333 0 99.333 7.33301 156 22l24 -125c-65.333 -16 -125.333 -24 -180 -24c-56.667 0 -114.334 7 -173.001 21
c-58.667 12 -110.334 18 -155.001 18c-39.333 0 -72.666 -4.66699 -99.999 -14c-62.667 -23.333 -129 -52.333 -199 -87l-105 125c86 76 138.333 125.667 157 149c62 73.333 93.333 149 94 227h-217v126h208c-2.66699 19.333 -7.66699 41.666 -15 66.999h-193v127h146z" />
    <glyph glyph-name="peseta" unicode="&#x20a7;" horiz-adv-x="1832" 
d="M264 1388v-750h206c92.667 0 172 36.667 238 110s99 162 99 266c0 103.333 -33 191.5 -99 264.5s-145.333 109.5 -238 109.5h-206zM889 821c-22 -59.333 -54.999 -113.668 -98.999 -163.001c-88.667 -98 -195.334 -147 -320.001 -147h-206v-511h-114v1516h369
c106 -16 196 -65 270 -147c88.667 -98 133 -216.333 133 -355c0 -23.333 -1.33301 -46 -4 -68l64 1v385h127v-385h231c34.667 20 73.667 30 117 30c66 0 120.667 -22 164 -66c42.667 -42.667 64 -91.667 64 -147v-19l-112 -45c-8 60.667 -21.5 100.667 -40.5 120
s-44.167 29 -75.5 29c-30.667 0 -57 -10.833 -79 -32.5s-33 -48.167 -33 -79.5c0 -30.667 11 -57 33 -79c14 -14.667 45 -37 93 -67c80 -43.333 137.333 -82.333 172 -117c56 -57.333 84 -125.666 84 -204.999c0 -80.667 -28.167 -149.334 -84.5 -206.001
s-124.5 -85 -204.5 -85c-80.667 0 -149.167 28.333 -205.5 85s-84.5 125 -84.5 205l126 33c0 -67.333 16 -116.833 48 -148.5s70.667 -47.5 116 -47.5c44.667 0 83 15.833 115 47.5s48 70.5 48 116.5c0 45.333 -15.667 84 -47 116c-18.667 18 -57 45.667 -115 83
c-72 38.667 -122 72.334 -150 101.001c-46.667 46 -70 102 -70 168c0 30 4.66699 58 14 84h-124v-821h-127v821h-93z" />
    <glyph glyph-name="Euro" unicode="&#x20ac;" horiz-adv-x="1405" 
d="M259 858l0.000976562 131c0 145.333 51.667 269.5 155 372.5s227.333 154.5 372 154.5c146 0 275.667 -56.667 389 -170l-93 -93c-88 87.333 -186.667 131 -296 131c-108.667 0 -201.667 -38.5 -279 -115.5s-116 -170.167 -116 -279.5v-131h609l-25 -127h-584v-66h570
l-25 -127h-545v-37c0 -109.333 38.667 -202.333 116 -279s170.333 -115 279 -115c109.333 0 202.666 38.333 279.999 115c48 48 82.667 107 104 177h135c-26 -109.333 -74.667 -199.333 -146 -270c-102.667 -103.333 -227 -155 -373 -155
c-144.667 0 -268.667 51.5 -372 154.5s-155 227.167 -155 372.5v37h-159l25 127h134v66h-120l25 127h95z" />
    <glyph glyph-name="afii61352" unicode="&#x2116;" horiz-adv-x="1954" 
d="M1752 1464h77v-626h-698v76h621v550zM1414 1085c55.333 2.66699 97.666 18.334 126.999 47.001c31.333 30.667 47 68.334 47 113.001c0 44 -15.667 81.667 -47 113c-29.333 28.667 -71.666 44.334 -126.999 47.001c-56 -2.66699 -98.333 -18.334 -127 -47.001
c-31.333 -31.333 -47 -69 -47 -113c0 -44.667 15.667 -82.334 47 -113.001c28.667 -28.667 71 -44.334 127 -47.001zM1400 970c-76.667 0 -141.667 26.833 -195 80.5s-80 118.5 -80 194.5s26.667 140.833 80 194.5s118.333 80.5 195 80.5h27
c76.667 0 141.667 -26.833 195 -80.5s80 -118.5 80 -194.5s-26.667 -140.833 -80 -194.5s-118.333 -80.5 -195 -80.5h-27zM125 1516h126l721 -1249v1249h127v-1516h-117l-730 1262v-1262h-127v1516z" />
    <glyph glyph-name="trademark" unicode="&#x2122;" horiz-adv-x="1231" 
d="M465 1432h-101v-556h-97v556h-167v91h451l233 -358l233 358l86 1v-648h-96v459l-223 -343l-223 343v-459h-96v556z" />
    <glyph glyph-name="minus" unicode="&#x2212;" horiz-adv-x="1030" 
d="M125 630h780v-127h-780v127z" />
    <glyph glyph-name="approxequal" unicode="&#x2248;" horiz-adv-x="1241" 
d="M631 957c112 -64.667 191.999 -97 239.999 -97c7.33301 0 13.666 0.666992 18.999 2c40 12 68.333 38.333 85 79c8 20.667 12 50 12 88l129 -20c-3.33301 -44.667 -11.333 -83.334 -24 -116.001c-30.667 -74 -83 -123.667 -157 -149c-18 -5.33301 -37.667 -8 -59 -8
c-68 0 -156.667 31.333 -266 94c-113.333 64.667 -193.666 97 -240.999 97c-7.33301 0 -13.666 -0.666992 -18.999 -2c-40 -12 -68 -38 -84 -78c-8.66699 -22 -13.334 -51.667 -14.001 -89l-127 20c2 45.333 9.66699 84 23 116
c30.667 74.667 83.334 124.334 158.001 149.001c17.333 5.33301 36.333 8 57 8c68.667 0 158 -31.333 268 -94zM630.999 686c112 -64.667 191.999 -97.001 239.999 -97.001c7.33301 0 13.666 0.666992 18.999 2c40 12 68.333 38.333 85 79c8 20.667 12 50 12 88l129 -20
c-3.33301 -45.333 -11.333 -84 -24 -116c-30.667 -74.667 -83 -124.334 -157 -149.001c-18 -5.33301 -37.667 -8 -59 -8c-68 0 -156.667 31.333 -266 94c-113.333 64.667 -193.666 97 -240.999 97c-7.33301 0 -13.666 -0.666992 -18.999 -2c-40 -12 -68 -38.333 -84 -79
c-8.66699 -21.333 -13.334 -50.666 -14.001 -87.999l-127 20c2 44.667 9.66699 83.334 23 116.001c30.667 74 83.334 123.667 158.001 149c17.333 5.33301 36.333 8 57 8c68.667 0 158 -31.333 268 -94z" />
    <glyph glyph-name="lessequal" unicode="&#x2264;" horiz-adv-x="1343" 
d="M1243 134l-1143 416l1143 416v-135l-772 -281l772 -281v-135zM187 127h1056v-127h-1056v127z" />
    <glyph glyph-name="greaterequal" unicode="&#x2265;" horiz-adv-x="1343" 
d="M100 269l773 281l-773 281v135l1143 -416l-1143 -416v135zM100 127h1056v-127h-1056v127z" />
    <glyph glyph-name="uniF001" unicode="&#xf001;" horiz-adv-x="994" 
d="M309 821l-0.00195312 -821h-127v821h-92v126h92v224c4 74 32.333 137.667 85 191c54.667 50.667 117.667 76 189 76c36.667 0 82.334 -9.33301 137.001 -28l-41 -117c-37.333 16 -66.666 24 -87.999 24c-37.333 0 -73.333 -15.333 -108 -46
c-30 -29.333 -45.667 -65 -47 -107v-217h184v-126h-184zM826.998 947v-947h-127v947h127zM837.998 1237.5c20.667 -20.333 31 -44.833 31 -73.5c0 -29.333 -10.333 -54.166 -31 -74.499s-45.334 -30.5 -74.001 -30.5s-53.334 10.167 -74.001 30.5s-31 45.166 -31 74.499
c0 28.667 10.333 53.167 31 73.5s45.334 30.5 74.001 30.5s53.334 -10.167 74.001 -30.5z" />
    <glyph glyph-name="uniF002" unicode="&#xf002;" horiz-adv-x="961" 
d="M309 821l-0.00195312 -821h-127v821h-92v126h92v224c4 74 32.333 137.667 85 191c54.667 50.667 117.667 76 189 76c36.667 0 82.334 -9.33301 137.001 -28l-41 -117c-37.333 16 -66.666 24 -87.999 24c-37.333 0 -73.333 -15.333 -108 -46
c-30 -29.333 -45.667 -65 -47 -107v-217h184v-126h-184zM810.998 1516v-1516h-127v1516h127z" />
    <glyph glyph-name="uniFB01" unicode="&#xfb01;" horiz-adv-x="994" 
d="M309 821l-0.00195312 -821h-127v821h-92v126h92v224c4 74 32.333 137.667 85 191c54.667 50.667 117.667 76 189 76c36.667 0 82.334 -9.33301 137.001 -28l-41 -117c-37.333 16 -66.666 24 -87.999 24c-37.333 0 -73.333 -15.333 -108 -46
c-30 -29.333 -45.667 -65 -47 -107v-217h184v-126h-184zM826.998 947v-947h-127v947h127zM837.998 1237.5c20.667 -20.333 31 -44.833 31 -73.5c0 -29.333 -10.333 -54.166 -31 -74.499s-45.334 -30.5 -74.001 -30.5s-53.334 10.167 -74.001 30.5s-31 45.166 -31 74.499
c0 28.667 10.333 53.167 31 73.5s45.334 30.5 74.001 30.5s53.334 -10.167 74.001 -30.5z" />
    <glyph glyph-name="uniFB02" unicode="&#xfb02;" horiz-adv-x="961" 
d="M309 821l-0.00195312 -821h-127v821h-92v126h92v224c4 74 32.333 137.667 85 191c54.667 50.667 117.667 76 189 76c36.667 0 82.334 -9.33301 137.001 -28l-41 -117c-37.333 16 -66.666 24 -87.999 24c-37.333 0 -73.333 -15.333 -108 -46
c-30 -29.333 -45.667 -65 -47 -107v-217h184v-126h-184zM810.998 1516v-1516h-127v1516h127z" />
    <glyph glyph-name=".null" horiz-adv-x="200" 
 />
    <glyph glyph-name="nonmarkingreturn" horiz-adv-x="708" 
 />
    </font>
</defs>
</svg>
